<?xml version="1.0" encoding="UTF-8" standalone="no"?>
<!-- Created with Inkscape (http://www.inkscape.org/) -->

<svg
   width="135.59401"
   height="94.783234"
   viewBox="0 0 35.875914 25.078065"
   version="1.1"
   id="svg719"
   xml:space="preserve"
   inkscape:version="1.2.2 (b0a8486, 2022-12-01)"
   sodipodi:docname="landing-page-001.svg"
   inkscape:export-filename="landing-page-001.pdf"
   inkscape:export-xdpi="96"
   inkscape:export-ydpi="96"
   xmlns:inkscape="http://www.inkscape.org/namespaces/inkscape"
   xmlns:sodipodi="http://sodipodi.sourceforge.net/DTD/sodipodi-0.dtd"
   xmlns="http://www.w3.org/2000/svg"
   xmlns:svg="http://www.w3.org/2000/svg"><sodipodi:namedview
     id="namedview721"
     pagecolor="#ffffff"
     bordercolor="#000000"
     borderopacity="0.25"
     inkscape:showpageshadow="2"
     inkscape:pageopacity="0.0"
     inkscape:pagecheckerboard="0"
     inkscape:deskcolor="#171524"
     inkscape:document-units="mm"
     showgrid="false"
     showguides="true"
     inkscape:zoom="0.45254834"
     inkscape:cx="456.30484"
     inkscape:cy="26.516504"
     inkscape:window-width="2560"
     inkscape:window-height="958"
     inkscape:window-x="0"
     inkscape:window-y="25"
     inkscape:window-maximized="0"
     inkscape:current-layer="layer1" /><defs
     id="defs716" /><g
     inkscape:label="Camada 1"
     inkscape:groupmode="layer"
     id="layer1"
     transform="translate(-341.74012,-858.90794)"><path
       style="display:inline;fill:#ececec;stroke-width:1"
       d="m 350.5739,883.90608 c -0.58958,-0.18568 -1.12882,-0.64908 -1.42095,-1.22175 -0.14679,-0.28781 -0.28505,-0.98179 -0.28622,-1.43334 l -5.3e-4,-0.26328 h -2.63014 c -2.47908,0 -2.65219,-0.008 -3.01457,-0.14377 -0.51237,-0.19202 -1.03306,-0.68846 -1.28421,-1.22523 l -0.19716,-0.42124 v -7.75782 -7.75785 l 0.19716,-0.42124 c 0.25139,-0.53671 0.77184,-1.03348 1.28421,-1.22517 0.36225,-0.13589 0.53549,-0.14377 3.01457,-0.14377 h 2.63014 l 5.3e-4,-0.26328 c 7.8e-4,-0.45367 0.13973,-1.14633 0.2882,-1.43716 0.2209,-0.43236 0.66993,-0.87496 1.1055,-1.08886 l 0.39602,-0.1944 h 9.02156 9.02156 l 0.39609,0.1944 c 0.43554,0.21417 0.88491,0.6565 1.10552,1.08886 0.14846,0.29061 0.28742,0.98349 0.2882,1.43716 l 5.6e-4,0.26328 h 2.6301 c 2.47263,0 2.653,0.008 3.01172,0.14293 0.537,0.2011 0.97641,0.61317 1.25346,1.17585 l 0.2308,0.4687 v 7.76079 7.76083 l -0.2308,0.4687 c -0.27713,0.56268 -0.71646,0.97494 -1.25346,1.17585 -0.35869,0.1342 -0.53909,0.14293 -3.01172,0.14293 h -2.6301 l -5.6e-4,0.26328 c -7.8e-4,0.45362 -0.13974,1.14633 -0.2882,1.43711 -0.22051,0.43234 -0.66998,0.87501 -1.10552,1.08889 l -0.39603,0.19436 -8.91627,0.0119 c -7.19629,0.008 -8.97278,-0.003 -9.20941,-0.0787 z m 17.97325,-1.18871 c 0.29217,-0.12234 0.58293,-0.46694 0.67587,-0.80158 0.10061,-0.36227 0.10061,-20.59023 0,-20.95234 -0.0931,-0.33455 -0.38361,-0.67949 -0.67587,-0.80158 -0.34047,-0.1421 -17.39765,-0.1421 -17.73829,0 -0.29216,0.12234 -0.58294,0.46687 -0.67588,0.80158 -0.10061,0.36224 -0.10061,20.59017 0,20.95234 0.0906,0.3266 0.38007,0.67645 0.66041,0.79851 0.32186,0.14009 17.41851,0.14293 17.75376,10e-4 z m -15.3286,-1.16341 c -0.48237,-0.14678 -0.91505,-0.51264 -1.16767,-0.98748 -0.1173,-0.22013 -0.13068,-0.42218 -0.13068,-1.93073 v -1.68492 l 0.20466,-0.36899 c 0.2225,-0.40159 0.55344,-0.69274 0.94767,-0.83367 0.17657,-0.0629 0.72736,-0.0906 1.8317,-0.0919 1.7172,-10e-4 1.87164,0.0277 2.35349,0.43363 l 0.2122,0.17895 0.40829,-0.30879 c 0.45927,-0.34721 0.69881,-0.38681 0.98329,-0.16309 0.14092,0.11081 0.18489,0.20826 0.18489,0.40783 0,0.31909 -0.0411,0.37212 -0.68454,0.88338 l -0.50898,0.4045 v 1.38245 c 0,1.34672 -0.003,1.39184 -0.1821,1.74733 -0.0998,0.20071 -0.29574,0.4588 -0.43487,0.57353 -0.45626,0.37611 -0.72596,0.42369 -2.36204,0.41701 -0.81363,-0.003 -1.55857,-0.0319 -1.65532,-0.0598 z m 3.26826,-1.30023 c 0.16308,-0.16309 0.1726,-0.21538 0.1726,-0.98674 v -0.81444 l -0.40366,0.32898 c -0.49956,0.40726 -0.65794,0.48161 -0.89763,0.42144 -0.26366,-0.0661 -0.9236,-0.71008 -1.01654,-0.99152 -0.19834,-0.60137 0.52176,-1.00144 0.99189,-0.55102 l 0.19122,0.1829 0.50405,-0.4073 c 0.4596,-0.37135 0.49297,-0.41534 0.37848,-0.49906 -0.1726,-0.12632 -2.88942,-0.12777 -3.05352,-10e-4 -0.24465,0.18767 -0.27476,0.37888 -0.27476,1.73619 v 1.34394 l 0.20509,0.20507 0.20506,0.20509 h 1.41272 c 1.40629,0 1.41352,-8e-4 1.58502,-0.17221 z m 3.9954,0 c -0.11876,-0.11877 -0.17222,-0.25022 -0.17222,-0.42445 0,-0.17419 0.0531,-0.30525 0.17222,-0.42441 l 0.1726,-0.1726 h 2.00016 2.00015 l 0.19359,0.16626 c 0.14729,0.12711 0.19361,0.22923 0.19361,0.43039 0,0.20112 -0.0464,0.30365 -0.19361,0.4303 l -0.19359,0.16628 h -2.00015 -2.00016 z m 0.14376,-2.29575 c -0.36303,-0.19834 -0.4322,-0.65152 -0.14376,-0.94012 l 0.1726,-0.17263 3.21513,10e-4 c 3.38904,10e-4 3.3447,-10e-4 3.51961,0.32663 0.13149,0.24744 0.0955,0.44035 -0.12365,0.6594 l -0.20509,0.20506 -3.14713,-10e-4 c -2.14201,-0.001 -3.19202,-0.0277 -3.28755,-0.0787 z m -7.41941,-3.59442 c -0.5913,-0.16426 -1.04188,-0.61362 -1.22441,-1.22013 -0.14007,-0.46497 -0.13504,-2.95427 0.008,-3.43175 0.13214,-0.44428 0.50529,-0.88154 0.93202,-1.09172 0.31949,-0.15756 0.39907,-0.16427 1.91297,-0.16427 1.72425,0 2.04459,0.0566 2.38866,0.42302 0.0898,0.0954 0.19399,0.17381 0.23158,0.17381 0.0356,0 0.20272,-0.11001 0.36701,-0.24506 0.39314,-0.32225 0.61264,-0.40279 0.85074,-0.31237 0.25972,0.0987 0.36938,0.26683 0.37214,0.57121 10e-4,0.24109 -0.041,0.29573 -0.59454,0.75827 l -0.59675,0.49842 -5.5e-4,1.31287 c -1.9e-4,0.72208 -0.0356,1.43466 -0.0755,1.58348 -0.0979,0.35235 -0.57767,0.87081 -0.97721,1.05603 -0.28426,0.13187 -0.46395,0.14813 -1.79025,0.16274 -1.04169,0.0119 -1.57071,-0.008 -1.80287,-0.0753 z m 3.27824,-1.31324 c 0.17341,-0.17381 0.17896,-0.20388 0.15956,-0.96188 l -0.0199,-0.78236 -0.44704,0.34758 c -0.64543,0.50184 -0.82153,0.48848 -1.41197,-0.10737 -0.38877,-0.39234 -0.4508,-0.49005 -0.4508,-0.71119 0,-0.19279 0.0479,-0.29773 0.1936,-0.4227 0.24743,-0.21301 0.45239,-0.21023 0.77713,0.008 0.28901,0.19637 0.26883,0.20191 0.83435,-0.24506 0.35632,-0.2815 0.3868,-0.32543 0.29059,-0.42129 -0.0887,-0.0887 -0.35114,-0.1068 -1.54969,-0.1068 h -1.44285 l -0.16944,0.19717 c -0.16662,0.19398 -0.16945,0.21931 -0.16945,1.5816 0,1.48308 0.0319,1.62508 0.37611,1.76957 0.0829,0.0356 0.75802,0.0558 1.50053,0.0476 1.34546,-0.0151 1.35068,-0.0151 1.52938,-0.19476 z m 4.2816,0.16426 c -0.44206,-0.1068 -0.61479,-0.68909 -0.29375,-0.99058 0.15872,-0.14966 0.20507,-0.15234 2.18103,-0.15234 1.15795,0 2.07228,0.0277 2.1447,0.0677 0.21617,0.11558 0.31791,0.45785 0.21221,0.71336 -0.15789,0.38086 -0.34522,0.41356 -2.32859,0.40447 -0.97621,-0.003 -1.83817,-0.0237 -1.91536,-0.0421 z m -0.30405,-2.56944 c -0.21774,-0.23122 -0.20466,-0.60672 0.0277,-0.8257 l 0.18092,-0.17022 3.08068,-0.0197 c 2.59472,-0.0151 3.11997,-0.003 3.32968,0.0843 0.28304,0.11796 0.41747,0.38084 0.35077,0.68455 -0.0911,0.41497 -0.04,0.40913 -3.5813,0.40913 h -3.23671 z m -7.40123,-3.52452 c -0.40536,-0.14881 -0.71261,-0.41902 -0.93673,-0.82349 l -0.20428,-0.36897 v -1.68494 c 0,-1.59376 0.008,-1.70017 0.15199,-1.96579 0.17898,-0.33097 0.52319,-0.66969 0.86619,-0.85217 0.21381,-0.11356 0.44642,-0.13337 1.78724,-0.15368 1.72482,-0.0237 1.98567,0.0151 2.4648,0.38086 l 0.29968,0.22883 0.40048,-0.31076 c 0.46795,-0.36346 0.72288,-0.39932 0.98353,-0.13891 0.17935,0.17933 0.22804,0.50493 0.10887,0.72766 -0.0356,0.0653 -0.30325,0.30642 -0.59678,0.53623 l -0.53332,0.41777 -7.8e-4,1.37225 c -5.5e-4,1.29609 -0.008,1.39178 -0.16662,1.7233 -0.19954,0.4219 -0.46152,0.67989 -0.88576,0.87193 -0.28862,0.13068 -0.45232,0.14293 -1.89561,0.1394 -1.15939,-10e-4 -1.6496,-0.0318 -1.84266,-0.0998 z m 3.4255,-1.25937 c 0.16361,-0.16358 0.17261,-0.21537 0.17261,-0.99603 v -0.8237 l -0.19319,0.17972 c -0.38363,0.35711 -0.81313,0.61888 -1.01517,0.61888 -0.14999,0 -0.30759,-0.0974 -0.59301,-0.3678 -0.61698,-0.58351 -0.69586,-0.85696 -0.35473,-1.22957 0.19994,-0.21853 0.54111,-0.20824 0.8178,0.0237 l 0.21696,0.18252 0.5005,-0.40437 c 0.70154,-0.56683 0.65122,-0.59271 -1.15317,-0.59271 h -1.39613 l -0.20506,0.20508 -0.20509,0.20508 v 1.34396 c 0,1.35718 0.0315,1.54845 0.27475,1.73617 0.0787,0.0606 0.52706,0.0863 1.53629,0.0879 1.42059,10e-4 1.42542,10e-4 1.5972,-0.17023 z m 3.99542,0 c -0.32385,-0.32384 -0.1754,-0.87711 0.26524,-0.98764 0.0879,-0.0197 1.02002,-0.0319 2.07102,-0.0197 1.80331,0.0197 1.91874,0.0277 2.05138,0.16157 0.0772,0.0772 0.16074,0.24189 0.18568,0.36582 0.0396,0.18923 0.008,0.2593 -0.16825,0.43854 l -0.21339,0.21338 h -2.0095 -2.00951 z m 0,-2.38702 c -0.11877,-0.11875 -0.17222,-0.2502 -0.17222,-0.42444 0,-0.17421 0.0531,-0.30523 0.17222,-0.42444 l 0.1726,-0.17223 h 3.203 3.20302 l 0.20508,0.20509 c 0.12392,0.12392 0.20507,0.27911 0.20507,0.39153 0,0.11196 -0.0811,0.26763 -0.20507,0.39156 l -0.20508,0.20506 h -3.20302 -3.203 z m -11.61606,7.96522 v -8.42477 l -2.33432,10e-4 c -1.2839,10e-4 -2.47207,0.0315 -2.64041,0.0622 -0.40263,0.0779 -0.64195,0.2609 -0.83483,0.63824 l -0.15789,0.30918 v 7.41217 7.41214 l 0.15789,0.30921 c 0.18767,0.36738 0.43716,0.56478 0.80282,0.63553 0.14728,0.0277 1.33409,0.0555 2.63731,0.0598 l 2.36943,0.008 z m -3.06641,1.31935 c -1.42203,-1.41139 -1.42203,-1.22726 0,-2.63863 1.12751,-1.11912 1.20179,-1.16425 1.58711,-0.96497 0.22407,0.1161 0.28584,0.23399 0.28584,0.54536 0,0.17934 -0.12553,0.34245 -0.75067,0.9771 l -0.75066,0.76179 0.75066,0.76179 c 0.62539,0.63471 0.75067,0.79773 0.75067,0.9772 0,0.31158 -0.0618,0.42955 -0.28584,0.54539 -0.38521,0.19913 -0.4596,0.154 -1.58711,-0.96503 z m 29.66486,7.04028 c 0.4027,-0.0779 0.64194,-0.26091 0.83486,-0.63831 l 0.15804,-0.30919 v -7.41215 -7.41213 l -0.15804,-0.30919 c -0.19279,-0.37769 -0.43216,-0.56048 -0.83486,-0.63823 -0.16827,-0.0319 -1.35644,-0.0605 -2.64038,-0.0621 l -2.33438,-10e-4 v 8.42483 8.42478 l 2.33438,-10e-4 c 1.28394,-0.001 2.47208,-0.0319 2.64038,-0.0622 z m -3.60889,-6.14489 c -0.12075,-0.12074 -0.17262,-0.25021 -0.17262,-0.43174 0,-0.23554 0.0692,-0.32979 0.75066,-1.02121 l 0.75068,-0.76179 -0.75068,-0.76179 c -0.64047,-0.64994 -0.75066,-0.79486 -0.75066,-0.98747 0,-0.12433 0.0319,-0.28228 0.0677,-0.35196 0.0895,-0.16662 0.45066,-0.31197 0.65074,-0.26168 0.0879,0.0197 0.62532,0.50975 1.19491,1.08387 0.92488,0.93236 1.0355,1.06933 1.0355,1.28185 0,0.21338 -0.11116,0.34917 -1.07316,1.3111 -0.94508,0.94511 -1.10045,1.07315 -1.30201,1.07315 -0.14964,0 -0.28859,-0.0598 -0.40119,-0.17221 z"
       id="path6595" /></g></svg>
