<?xml version="1.0" encoding="UTF-8" standalone="no"?>
<!-- Created with Inkscape (http://www.inkscape.org/) -->

<svg
   width="128.61876"
   height="122.57789"
   viewBox="0 0 34.030379 32.432067"
   version="1.1"
   id="svg719"
   xml:space="preserve"
   inkscape:version="1.2.2 (b0a8486, 2022-12-01)"
   sodipodi:docname="landing-page-001.svg"
   xmlns:inkscape="http://www.inkscape.org/namespaces/inkscape"
   xmlns:sodipodi="http://sodipodi.sourceforge.net/DTD/sodipodi-0.dtd"
   xmlns="http://www.w3.org/2000/svg"
   xmlns:svg="http://www.w3.org/2000/svg"><sodipodi:namedview
     id="namedview721"
     pagecolor="#ffffff"
     bordercolor="#000000"
     borderopacity="0.25"
     inkscape:showpageshadow="2"
     inkscape:pageopacity="0.0"
     inkscape:pagecheckerboard="0"
     inkscape:deskcolor="#171524"
     inkscape:document-units="mm"
     showgrid="false"
     showguides="true"
     inkscape:zoom="0.45254834"
     inkscape:cx="797.70484"
     inkscape:cy="4423.8368"
     inkscape:window-width="2560"
     inkscape:window-height="1056"
     inkscape:window-x="0"
     inkscape:window-y="24"
     inkscape:window-maximized="0"
     inkscape:current-layer="layer1" /><defs
     id="defs716" /><g
     inkscape:label="Camada 1"
     inkscape:groupmode="layer"
     id="layer1"
     transform="translate(-180.40381,-520.3073)"><path
       style="fill:#f8f8f8;fill-opacity:1;stroke-width:0.999996"
       d="m 181.09931,552.64589 c -0.29992,-0.15672 -0.43837,-0.30011 -0.5731,-0.59348 -0.10766,-0.23448 -0.12213,-0.45437 -0.1224,-1.86127 -2.5e-4,-1.83252 0.0588,-2.23584 0.44282,-3.01597 0.31539,-0.64083 1.11847,-1.47373 1.72733,-1.79147 0.42438,-0.22146 1.29564,-0.47722 1.6257,-0.47722 h 0.18761 l 0.0187,-8.89088 c 0.0147,-6.99203 0.0369,-8.94375 0.10356,-9.13846 0.11079,-0.32368 0.44773,-0.76058 0.78485,-1.01771 0.18034,-0.13755 0.68009,-0.34391 1.51037,-0.62369 l 1.24085,-0.41812 5.1e-4,-1.60511 c 1.9e-4,-0.92642 0.0302,-1.7125 0.0708,-1.85909 0.0864,-0.31096 0.46446,-0.74175 0.80232,-0.91412 0.35347,-0.18033 1.04812,-0.1751 1.43209,0.0108 0.15783,0.0765 0.37753,0.2484 0.48822,0.38222 0.31778,0.38423 0.39682,0.76461 0.39682,1.90986 v 1.01092 l 4.2366,-1.42513 c 2.8346,-0.95354 4.28786,-1.41228 4.3915,-1.38627 0.0852,0.0214 1.27609,1.12219 2.64644,2.44622 2.06459,1.99485 2.52234,2.47 2.67134,2.77295 l 0.1798,0.36561 0.0189,3.41666 0.0189,3.41665 -0.14686,0.15631 c -0.17871,0.19025 -0.45104,0.20225 -0.66472,0.0293 l -0.15693,-0.12701 -0.0332,-3.37948 c -0.0294,-2.9869 -0.0458,-3.39731 -0.14195,-3.53297 -0.0598,-0.0844 -0.73284,-0.75467 -1.49566,-1.48944 -0.76283,-0.73477 -1.63373,-1.57739 -1.93536,-1.87249 l -0.5484,-0.53655 v 6.23045 6.23046 h 4.54039 4.54042 l 0.34001,0.16943 c 0.187,0.0932 0.42107,0.27571 0.52015,0.4056 0.36109,0.47345 0.36247,0.49254 0.36247,5.05257 v 4.21052 l 0.51516,7.5e-4 c 0.93851,0.002 1.71366,0.30857 2.3498,0.93103 0.43944,0.42999 0.81015,1.12062 0.92303,1.7196 0.0371,0.19692 0.0668,1.22894 0.066,2.29333 -0.002,2.18743 -0.0247,2.31075 -0.50131,2.67422 l -0.25133,0.19171 -16.19156,0.0165 c -14.58915,0.0148 -16.21126,0.006 -16.39083,-0.0877 z m 3.29032,-1.88972 v -1.06358 h -1.49567 -1.49566 v 0.99381 c 0,0.87635 0.0137,1.0018 0.11633,1.06155 0.0685,0.0399 0.68301,0.0687 1.49567,0.0698 l 1.37933,0.002 z m 3.65605,-0.93276 c 0,-2.09693 0.0229,-2.28516 0.31814,-2.61134 0.19801,-0.21881 0.4274,-0.29896 2.58751,-0.90407 2.99326,-0.83851 2.87584,-0.81137 3.16512,-0.7315 0.33868,0.0935 0.69216,0.41992 0.77406,0.71477 0.0407,0.14661 0.0678,1.29762 0.0681,2.88706 l 5e-4,2.64327 2.14378,-0.0175 2.14378,-0.0175 0.017,-5.76661 c 0.009,-3.17163 -0.005,-5.76671 -0.0332,-5.76686 -0.0276,-1.3e-4 -1.53882,0.4966 -3.35821,1.10388 -3.22008,1.07477 -3.31244,1.10119 -3.47622,0.99388 -0.35008,-0.22938 -0.34092,-0.67433 0.0176,-0.85544 0.10211,-0.0515 1.68879,-0.59393 3.52596,-1.20524 l 3.34029,-1.11147 v -1.25747 c 0,-0.69161 -0.0252,-1.25747 -0.0559,-1.25747 -0.0308,0 -2.41163,0.7927 -5.29082,1.76155 -2.87918,0.96886 -5.31245,1.76157 -5.40725,1.76157 -0.36815,0 -0.608,-0.46436 -0.39225,-0.75942 0.0866,-0.11843 2.23283,-0.86493 8.43745,-2.93473 l 2.70882,-0.90362 v -1.25746 c 0,-0.69161 -0.0244,-1.25747 -0.054,-1.25747 -0.0297,0 -2.41032,0.79269 -5.2902,1.76155 -2.87989,0.96886 -5.32224,1.76156 -5.42745,1.76156 -0.35207,0 -0.57106,-0.40392 -0.39617,-0.73071 0.0838,-0.1566 -0.17466,-0.0644 5.9663,-2.12711 l 5.20157,-1.74712 v -1.25388 c 0,-0.68964 -0.0234,-1.25387 -0.0518,-1.25387 -0.0285,0 -2.40897,0.79269 -5.28988,1.76154 -2.88091,0.96886 -5.32424,1.76156 -5.42962,1.76156 -0.3524,0 -0.57148,-0.40374 -0.39649,-0.7307 0.0835,-0.15606 -0.18852,-0.0591 5.96629,-2.12658 l 5.20158,-1.74729 v -1.25406 c 0,-0.68974 -0.0233,-1.25406 -0.0517,-1.25406 -0.0286,0 -2.40898,0.79269 -5.28995,1.76154 -2.88099,0.96887 -5.32436,1.76157 -5.42971,1.76157 -0.35233,0 -0.57139,-0.40378 -0.39642,-0.73071 0.0836,-0.15606 -0.18851,-0.0591 5.9663,-2.12658 l 5.20157,-1.74729 v -1.35377 c 0,-0.74458 -0.0109,-1.35377 -0.0242,-1.35377 -0.0133,0 -1.96514,0.65352 -4.33742,1.45227 -2.37227,0.79874 -5.32537,1.7906 -6.56245,2.20412 -1.23708,0.41351 -2.34387,0.81468 -2.45953,0.89147 -0.11566,0.0767 -0.27761,0.27284 -0.35987,0.43568 l -0.14956,0.29605 v 12.17279 c 0,6.69503 0.02,12.19272 0.0444,12.21709 0.0244,0.0244 0.62264,0.0444 1.32947,0.0444 h 1.28517 z m 0.14455,-6.20083 c -0.17758,-0.18903 -0.18634,-0.46911 -0.0199,-0.63557 0.17925,-0.17925 2.16461,-0.82974 2.37289,-0.77746 0.0987,0.0247 0.20749,0.13014 0.27024,0.26171 0.0958,0.20085 0.0957,0.23822 -5.1e-4,0.42435 -0.0954,0.18443 -0.20346,0.23675 -1.12072,0.54247 -0.55836,0.18608 -1.09221,0.33834 -1.18633,0.33834 -0.0941,0 -0.23619,-0.0693 -0.31569,-0.15384 z m 2.7803,5.97029 c 0,-1.73818 -0.0182,-2.22645 -0.0831,-2.22498 -0.0457,8.1e-4 -0.47196,0.11327 -0.94725,0.2494 l -0.86416,0.24749 -0.0175,1.97749 -0.0176,1.97747 h 0.96486 0.96487 z m 2.9755,-0.39472 c 0.01,-1.4236 -0.005,-2.60872 -0.0332,-2.63361 -0.0278,-0.0249 -0.47691,0.0746 -0.99789,0.22094 l -0.94725,0.26618 v 2.33973 c 0,1.28686 0.0207,2.36046 0.046,2.38579 0.0253,0.0253 0.46656,0.0378 0.98049,0.0277 l 0.93442,-0.0184 z m 13.64296,1.55802 v -1.06358 h -3.65606 -3.65606 v 1.06358 1.06357 h 3.65606 3.65606 z m 5.72112,0.99477 c 0.11833,-0.0634 0.12857,-0.14812 0.12857,-1.06358 v -0.99477 h -2.42629 -2.42629 v 1.01927 c 0,0.56059 0.02,1.0392 0.0444,1.06358 0.0752,0.0752 4.53702,0.0518 4.67969,-0.0246 z m -28.92048,-4.4514 v -1.39596 h -0.1935 c -0.30369,0 -0.9712,0.23161 -1.32874,0.46104 -0.63816,0.40951 -1.23929,1.23042 -1.36608,1.86554 -0.0256,0.12797 -0.0612,0.28501 -0.0792,0.349 -0.0305,0.10832 0.0706,0.11632 1.46739,0.11632 h 1.50015 z m 23.19986,1.0802 c 0.002,-1.29167 0.63182,-2.45146 1.64015,-3.02052 l 0.35356,-0.19954 v -4.34664 -4.34665 l -0.19394,-0.21708 -0.19393,-0.21708 -4.45924,-0.0185 -4.45922,-0.0185 v 6.35005 6.35007 h 3.65606 3.65606 l 5e-4,-0.31575 z m -5.58379,-0.76219 c -0.35175,-0.23704 -0.39727,-0.38614 -0.39837,-1.30487 -0.002,-1.32345 0.094,-1.4062 1.62456,-1.4062 1.56124,0 1.63167,0.063 1.63167,1.4601 v 0.86843 l -0.22738,0.24831 -0.22739,0.2483 -1.08594,0.0209 c -1.04639,0.0202 -1.09434,0.0153 -1.31715,-0.13493 z m 1.86076,-1.28188 v -0.43209 h -0.63151 -0.63149 v 0.43209 0.43208 h 0.63149 0.63151 z m -1.86972,-2.53822 c -0.33095,-0.20539 -0.39039,-0.40046 -0.39039,-1.28097 0,-0.90932 0.0661,-1.12027 0.41869,-1.33522 0.20152,-0.12289 0.35147,-0.12978 2.82848,-0.13002 2.89065,-2.4e-4 2.92091,0.004 3.17047,0.41629 0.11066,0.18294 0.13002,0.33875 0.13002,1.04589 -2e-5,0.91765 -0.0424,1.05652 -0.38646,1.2663 -0.20064,0.12234 -0.35376,0.12906 -2.90399,0.12764 -2.37137,-0.002 -2.713,-0.0145 -2.86682,-0.10991 z m 5.1934,-1.31727 v -0.43208 h -2.29334 -2.29334 v 0.43208 0.43208 h 2.29334 2.29334 z m -5.1934,-2.47174 c -0.33246,-0.20632 -0.39049,-0.3992 -0.38941,-1.29428 8.1e-4,-0.91553 0.0471,-1.06816 0.39204,-1.30061 0.22467,-0.15141 0.22762,-0.15156 2.84735,-0.15156 2.89805,0 2.92767,0.004 3.17727,0.41653 0.11066,0.18294 0.13002,0.33876 0.13002,1.04589 -2e-5,0.91766 -0.0424,1.05653 -0.38646,1.26631 -0.20064,0.12234 -0.35376,0.12906 -2.90399,0.12762 -2.37137,-0.002 -2.713,-0.0145 -2.86682,-0.1099 z m 5.1934,-1.31727 v -0.43207 h -2.29334 -2.29334 v 0.43207 0.43208 h 2.29334 2.29334 z m 6.23629,9.45591 c -0.0492,-0.93281 -0.47534,-1.61373 -1.26509,-2.02145 -0.29708,-0.15338 -0.45379,-0.18544 -1.016,-0.20785 -0.80325,-0.032 -1.24093,0.10245 -1.72763,0.53088 -0.55299,0.48675 -0.83161,1.12173 -0.83161,1.89519 v 0.35163 h 2.43462 2.43463 z m -23.18711,-25.21944 c 0,-1.29043 -0.048,-1.48711 -0.39229,-1.60712 -0.24106,-0.084 -0.45708,-0.0374 -0.65467,0.14146 -0.14637,0.13248 -0.14957,0.16622 -0.14957,1.58149 v 1.44611 l 0.59826,-0.20065 0.59827,-0.20064 z"
       id="path25484" /></g></svg>
