<?xml version="1.0" encoding="UTF-8" standalone="no"?>
<!-- Created with Inkscape (http://www.inkscape.org/) -->

<svg
   width="125.77506"
   height="125.78371"
   viewBox="0 0 33.277985 33.280273"
   version="1.1"
   id="svg719"
   xml:space="preserve"
   inkscape:version="1.2.2 (b0a8486, 2022-12-01)"
   sodipodi:docname="landing-page-001.svg"
   xmlns:inkscape="http://www.inkscape.org/namespaces/inkscape"
   xmlns:sodipodi="http://sodipodi.sourceforge.net/DTD/sodipodi-0.dtd"
   xmlns="http://www.w3.org/2000/svg"
   xmlns:svg="http://www.w3.org/2000/svg"><sodipodi:namedview
     id="namedview721"
     pagecolor="#ffffff"
     bordercolor="#000000"
     borderopacity="0.25"
     inkscape:showpageshadow="2"
     inkscape:pageopacity="0.0"
     inkscape:pagecheckerboard="0"
     inkscape:deskcolor="#171524"
     inkscape:document-units="mm"
     showgrid="false"
     showguides="true"
     inkscape:zoom="0.45254834"
     inkscape:cx="797.70484"
     inkscape:cy="4423.8368"
     inkscape:window-width="2560"
     inkscape:window-height="1056"
     inkscape:window-x="0"
     inkscape:window-y="24"
     inkscape:window-maximized="0"
     inkscape:current-layer="layer1" /><defs
     id="defs716" /><g
     inkscape:label="Camada 1"
     inkscape:groupmode="layer"
     id="layer1"
     transform="translate(-414.68961,-409.1624)"><path
       style="fill:#f8f8f8;fill-opacity:1;stroke-width:0.999999"
       d="m 414.84915,442.28318 -0.15953,-0.15953 v -5.49809 -5.49809 l 0.15953,-0.15953 0.15954,-0.15954 h 1.79034 1.79036 v -1.87768 c 0,-1.71934 0.01,-1.89002 0.11835,-2.02386 0.0978,-0.12081 0.26416,-0.17032 0.9587,-0.28535 l 0.84034,-0.13917 0.0325,-5.84774 0.0325,-5.84775 0.16822,-0.43199 c 0.25401,-0.65225 0.70434,-1.23794 1.24233,-1.61576 0.39733,-0.27903 0.77686,-0.4406 1.46553,-0.62389 0.0447,-0.0119 0.0812,-0.0797 0.0812,-0.1507 0,-0.26261 0.31304,-0.97919 0.60887,-1.39376 0.35955,-0.50385 0.96218,-0.96027 1.59149,-1.20534 l 0.43199,-0.16823 10.74244,-0.0174 10.74245,-0.0174 0.16944,0.16946 c 0.15924,0.15923 0.16701,0.19581 0.12885,0.60645 -0.13512,1.45376 -1.16119,2.65467 -2.57799,3.01726 -0.34286,0.0877 -0.34492,0.0898 -0.43267,0.43266 -0.20794,0.81253 -0.69745,1.51836 -1.37044,1.97605 -0.41871,0.28476 -1.07045,0.55997 -1.32609,0.55997 -0.11608,0 -0.11963,0.18069 -0.10357,5.27823 l 0.0166,5.27822 0.83653,0.13528 c 0.70396,0.11384 0.85588,0.15919 0.95869,0.28615 0.11326,0.13987 0.12216,0.28781 0.12216,2.02856 v 1.87768 h 1.79035 1.79035 l 0.15954,0.15954 0.15953,0.15954 v 5.49808 5.49808 l -0.15953,0.15954 -0.15954,0.15953 h -16.31994 -16.31994 z m 3.74024,-5.65762 v -4.84222 h -1.46242 -1.46241 v 4.84222 4.84222 h 1.46241 1.46242 z m 5.45967,1.32129 c 0,-3.18505 0.0103,-3.53226 0.10757,-3.63978 0.10296,-0.11377 0.41029,-0.11886 7.16071,-0.11886 6.47181,0 7.06294,0.009 7.172,0.10756 0.11237,0.10169 0.11886,0.30038 0.11886,3.63979 v 3.53222 h 2.24237 2.24237 v -4.15976 -4.15976 h -11.76431 -11.7643 v 4.15976 4.15976 h 2.24236 2.24237 z m 4.54973,2.31849 c 0,-1.11576 0.009,-1.21179 0.13,-1.33242 0.0722,-0.0722 0.21665,-0.12999 0.32498,-0.12999 0.10833,0 0.25276,0.0578 0.32498,0.12999 0.12063,0.12063 0.12999,0.21666 0.12999,1.33242 v 1.20244 h 1.82051 1.82052 l -0.0168,-3.16857 -0.0169,-3.16856 h -1.78739 -1.7874 l -0.0177,1.21507 -0.0177,1.21508 -0.16983,0.13359 c -0.0934,0.0735 -0.22044,0.1336 -0.28229,0.1336 -0.0618,0 -0.18889,-0.0601 -0.2823,-0.1336 l -0.16983,-0.13359 -0.0177,-1.21508 -0.0177,-1.21507 h -1.78739 -1.7874 l -0.0168,3.16856 -0.0169,3.16857 h 1.82051 1.82051 z m 9.08384,-1.96613 -0.0169,-3.16856 h -1.78739 -1.7874 l -0.0168,3.16856 -0.0169,3.16857 h 1.82112 1.82113 z m 9.31008,-1.67365 v -4.84222 h -1.46241 -1.46242 v 4.84222 4.84222 h 1.46242 1.46241 z m -3.89977,-5.58967 v -1.20243 h -11.76431 -11.7643 v 1.20243 1.20243 h 11.7643 11.76431 z m 0,-2.7936 c 0,-0.58578 -0.007,-0.61788 -0.14624,-0.64974 -0.0804,-0.0184 -1.34543,-0.22286 -2.81109,-0.45428 -1.46566,-0.23142 -4.04479,-0.64066 -5.73139,-0.90943 l -3.06655,-0.48868 -5.74042,0.91077 c -3.15724,0.50093 -5.80625,0.92525 -5.88668,0.94296 -0.13911,0.0306 -0.14624,0.0622 -0.14624,0.6484 v 0.61623 h 11.7643 11.76431 z m -19.94364,-2.17973 c 0.66694,-0.10663 1.22997,-0.19387 1.25118,-0.19387 0.0212,0 0.0385,-2.22287 0.0385,-4.9397 v -4.93971 h -1.46242 -1.46241 v 5.17014 5.17014 l 0.21124,-0.0366 c 0.11618,-0.0201 0.75691,-0.12381 1.42385,-0.23043 z m 17.99375,-4.90608 v -5.1672 h -1.46241 -1.46242 v 4.93572 4.93573 l 0.30874,0.0459 c 0.1698,0.0252 0.79133,0.12604 1.38116,0.22401 0.58985,0.098 1.109,0.1815 1.15369,0.1856 0.0644,0.006 0.0812,-1.06535 0.0812,-5.15974 z m -13.90115,4.25724 c 0.89793,-0.14299 1.64369,-0.25998 1.65724,-0.25998 0.0135,0 0.025,-2.28868 0.0254,-5.08595 7.4e-4,-5.37526 -7.3e-4,-5.34482 0.3044,-6.02872 0.0717,-0.16069 0.25239,-0.44571 0.40157,-0.63339 l 0.27123,-0.34123 h -0.80546 -0.80546 l -0.035,0.21124 c -0.12391,0.74749 -0.70691,1.61978 -1.39566,2.08819 -0.419,0.28495 -1.07093,0.5604 -1.32635,0.5604 -0.11536,0 -0.11982,0.18133 -0.11982,4.87472 0,4.29326 0.0117,4.87471 0.0977,4.87471 0.0537,0 0.83233,-0.117 1.73026,-0.25999 z m 10.00138,-4.96333 c 0,-2.96067 0.0263,-5.36185 0.0606,-5.54311 0.0993,-0.52346 0.31095,-1.00617 0.62285,-1.42035 l 0.29368,-0.38998 -0.75727,-0.0183 c -0.4165,-0.0101 -0.77057,-0.005 -0.78684,0.0112 -0.0163,0.0162 -0.058,0.15616 -0.0928,0.31087 -0.11628,0.51771 -0.4584,1.10683 -0.90023,1.55017 -0.46789,0.46951 -0.93828,0.75042 -1.5274,0.91218 l -0.38998,0.10708 -0.0167,4.5878 -0.0167,4.58779 0.30916,0.0461 c 0.17005,0.0254 0.87951,0.14096 1.57659,0.25686 0.69709,0.11591 1.34787,0.21398 1.44617,0.21793 l 0.17874,0.007 z m -6.51128,4.40959 c 0.54085,-0.0877 0.67143,-0.0877 1.21798,2.4e-4 0.3367,0.0542 0.67099,0.0985 0.74287,0.0985 0.12967,0 0.1307,-0.0353 0.1307,-4.48473 v -4.48473 h -1.49492 -1.49491 v 4.48473 4.48473 l 0.14624,-2.4e-4 c 0.0804,-1.3e-4 0.41885,-0.0445 0.75204,-0.0985 z m -4.79804,-10.07927 c 0.79652,-0.37922 1.31245,-1.10868 1.42083,-2.00887 0.0861,-0.71485 -0.0293,-0.68233 2.41989,-0.68233 h 2.07145 l 0.0383,-0.17873 c 0.1188,-0.55526 0.41258,-1.15605 0.75719,-1.54855 l 0.19949,-0.22721 -3.27481,0.0186 -3.27481,0.0186 -0.42248,0.20313 c -0.79635,0.38289 -1.31286,1.11005 -1.41988,1.99898 -0.0308,0.25575 -0.0962,0.47931 -0.15859,0.54166 -0.0623,0.0623 -0.28592,0.12781 -0.54166,0.1586 -0.87795,0.10569 -1.62307,0.62666 -1.98432,1.38738 -0.10185,0.21449 -0.18521,0.42812 -0.18524,0.47473 -4e-5,0.0683 0.38291,0.0809 1.96608,0.065 l 1.96613,-0.0198 z m 8.3195,0.0308 c 0.78657,-0.37236 1.30671,-1.07333 1.42729,-1.92347 0.0355,-0.25009 0.0814,-0.49886 0.10212,-0.55281 0.0845,-0.22021 0.33405,-0.24569 2.40592,-0.24569 1.98513,0 2.04432,-0.004 2.04432,-0.12704 0,-0.26183 0.31454,-0.97926 0.61225,-1.39646 l 0.3083,-0.43204 -3.27136,0.0191 -3.27136,0.0191 -0.36554,0.17959 c -0.81343,0.39962 -1.30013,1.06402 -1.42106,1.93989 -0.0843,0.61077 -0.20676,0.7351 -0.78329,0.79536 -0.95382,0.0997 -1.81579,0.82046 -2.07907,1.73847 l -0.0566,0.19732 1.9953,-0.021 c 1.99444,-0.021 1.99546,-0.0211 2.35279,-0.19025 z m 8.3845,-0.0308 c 0.79353,-0.37779 1.31252,-1.10918 1.41988,-2.00098 0.0308,-0.25574 0.0962,-0.47931 0.1586,-0.54166 0.0624,-0.0623 0.28592,-0.1278 0.54166,-0.15859 0.87794,-0.1057 1.62307,-0.62667 1.98432,-1.38738 0.10186,-0.21449 0.18521,-0.42812 0.18524,-0.47474 5e-5,-0.0683 -0.38291,-0.0809 -1.96609,-0.065 l -1.96613,0.0198 -0.42247,0.20313 c -0.79636,0.38288 -1.31286,1.11005 -1.41988,1.99898 -0.0308,0.25574 -0.0962,0.4793 -0.1586,0.54166 -0.0623,0.0623 -0.28591,0.12781 -0.54166,0.1586 -0.87794,0.10569 -1.62307,0.62666 -1.98431,1.38737 -0.10186,0.21449 -0.18522,0.42813 -0.18524,0.47474 -5e-5,0.0683 0.38291,0.0809 1.96608,0.065 l 1.96613,-0.0198 z"
       id="path19267-1" /></g></svg>
