<?xml version="1.0" encoding="UTF-8" standalone="no"?>
<!-- Created with Inkscape (http://www.inkscape.org/) -->

<svg
   width="138.42099"
   height="108.03499"
   viewBox="0 0 36.623886 28.584258"
   version="1.1"
   id="svg719"
   xml:space="preserve"
   inkscape:version="1.2.2 (b0a8486, 2022-12-01)"
   sodipodi:docname="landing-page-001.svg"
   xmlns:inkscape="http://www.inkscape.org/namespaces/inkscape"
   xmlns:sodipodi="http://sodipodi.sourceforge.net/DTD/sodipodi-0.dtd"
   xmlns="http://www.w3.org/2000/svg"
   xmlns:svg="http://www.w3.org/2000/svg"><sodipodi:namedview
     id="namedview721"
     pagecolor="#ffffff"
     bordercolor="#000000"
     borderopacity="0.25"
     inkscape:showpageshadow="2"
     inkscape:pageopacity="0.0"
     inkscape:pagecheckerboard="0"
     inkscape:deskcolor="#171524"
     inkscape:document-units="mm"
     showgrid="false"
     showguides="true"
     inkscape:zoom="0.45254834"
     inkscape:cx="797.70484"
     inkscape:cy="4423.8368"
     inkscape:window-width="2560"
     inkscape:window-height="1056"
     inkscape:window-x="0"
     inkscape:window-y="24"
     inkscape:window-maximized="0"
     inkscape:current-layer="layer1" /><defs
     id="defs716" /><g
     inkscape:label="Camada 1"
     inkscape:groupmode="layer"
     id="layer1"
     transform="translate(-179.00771,-411.51037)"><path
       style="fill:#f8f8f8;fill-opacity:1;stroke-width:0.999997"
       d="m 191.12755,440.05583 c -1.90854,-0.22693 -3.14606,-0.58606 -4.97415,-1.44352 -1.34923,-0.63286 -2.45893,-0.91954 -4.3658,-1.12787 -1.29796,-0.14181 -1.7214,-0.27752 -2.13086,-0.68292 -0.82245,-0.81432 -0.86816,-2.01054 -0.10907,-2.85483 0.17267,-0.19206 0.37692,-0.36918 0.45388,-0.3936 0.13096,-0.0416 0.13993,-0.1158 0.13993,-1.15852 0,-1.36484 0.0575,-1.58664 0.53435,-2.06356 0.40567,-0.40567 0.73144,-0.53435 1.35268,-0.53435 h 0.40322 v -1.20913 c 0,-2.0572 0.22694,-3.57194 0.78633,-5.24851 1.47737,-4.42788 4.92477,-7.86158 9.39458,-9.35725 0.52265,-0.17489 0.69781,-0.26448 0.69781,-0.35691 0,-0.0679 0.0981,-0.31968 0.21794,-0.55955 0.28064,-0.56161 0.92121,-1.16252 1.47939,-1.38782 0.39758,-0.16047 0.48928,-0.1671 2.31063,-0.1671 1.82134,0 1.91305,0.007 2.31062,0.1671 0.55817,0.2253 1.19875,0.82621 1.47938,1.38782 0.11987,0.23987 0.21794,0.4945 0.21794,0.56584 0,0.0963 0.10588,0.16046 0.41153,0.24922 0.22635,0.0658 0.76581,0.26175 1.19881,0.43559 4.55695,1.82955 7.95321,5.90751 8.94872,10.74494 0.22549,1.09572 0.31953,2.14691 0.3196,3.57274 l 6e-5,1.16302 h 0.40323 c 0.62124,0 0.94701,0.12868 1.35267,0.53435 0.47692,0.47692 0.53435,0.69872 0.53435,2.06356 0,1.04272 0.009,1.11695 0.13993,1.15852 0.077,0.0244 0.28648,0.2074 0.46559,0.40661 0.75082,0.8351 0.70009,2.02909 -0.12077,2.84182 -0.41304,0.40895 -0.83818,0.54543 -2.13087,0.68401 -1.96071,0.21022 -3.00204,0.4911 -4.65234,1.25487 -1.55582,0.72005 -2.94015,1.11993 -4.45218,1.28605 -0.63683,0.07 -12.05223,0.0965 -12.61713,0.0294 z m 13.34791,-1.2661 c 0.95878,-0.19035 2.17409,-0.59629 3.18488,-1.06383 1.7319,-0.80108 3.02279,-1.15002 5.11048,-1.38142 1.12655,-0.12486 1.37359,-0.21176 1.58426,-0.55728 0.26769,-0.43902 0.0989,-1.03038 -0.36516,-1.27926 -0.22319,-0.11969 -0.46143,-0.13078 -2.81121,-0.13078 h -2.56735 l -0.1336,0.16985 c -0.28885,0.36721 -0.49029,0.40272 -2.28461,0.40272 -1.85978,0 -1.99795,-0.0287 -2.34798,-0.4876 l -0.19278,-0.25275 v -1.84326 c 0,-1.75006 0.008,-1.85326 0.14757,-2.04091 0.36595,-0.49016 0.36806,-0.49063 2.29048,-0.51422 1.96333,-0.0241 2.0898,2.7e-4 2.45068,0.47303 0.19136,0.25064 0.19295,0.26246 0.21501,1.60026 l 0.0222,1.34776 h 1.14079 1.14078 v -2.93721 c 0,-1.61547 -0.0341,-3.24996 -0.0757,-3.63221 -0.17733,-1.62793 -0.58664,-3.06462 -1.28592,-4.51359 -1.10663,-2.29301 -2.67888,-4.1069 -4.75766,-5.48884 -1.24413,-0.82709 -3.40264,-1.81129 -3.45663,-1.5761 -0.0117,0.051 0.0784,2.25827 0.20008,4.9052 0.20148,4.38088 0.21133,4.82786 0.10981,4.9828 -0.20369,0.31087 -0.72888,0.31671 -0.92699,0.0103 -0.0817,-0.12643 -0.15487,-1.2986 -0.34934,-5.59926 -0.19015,-4.20541 -0.26998,-5.49619 -0.35188,-5.68986 -0.16655,-0.39384 -0.48419,-0.72162 -0.87619,-0.90416 -0.34328,-0.15985 -0.43539,-0.16801 -1.89954,-0.1683 -0.84632,-1.7e-4 -1.65873,0.033 -1.80535,0.0737 -0.40015,0.11113 -0.84617,0.48872 -1.0424,0.88248 -0.17195,0.34503 -0.17671,0.41055 -0.42181,5.79721 -0.19539,4.29447 -0.26971,5.48211 -0.35091,5.60815 -0.19742,0.30644 -0.72293,0.30056 -0.92665,-0.0104 -0.10156,-0.155 -0.092,-0.59592 0.10671,-4.91933 0.12005,-2.61199 0.21816,-4.82085 0.21801,-4.90857 l -2.6e-4,-0.15949 -0.51889,0.18355 c -4.40003,1.55655 -7.85814,5.52876 -8.77867,10.08374 -0.25161,1.24496 -0.2917,1.92972 -0.2923,4.99204 l -5.4e-4,2.98807 h 1.14079 1.14079 l 0.0222,-1.35484 c 0.0243,-1.48231 0.0408,-1.54319 0.515,-1.8972 0.18766,-0.1401 0.29086,-0.14756 2.04092,-0.14756 h 1.84326 l 0.25274,0.19278 c 0.45891,0.35003 0.4876,0.4882 0.4876,2.34797 0,1.85962 -0.0287,1.99783 -0.4874,2.34797 l -0.25256,0.19278 -1.65188,0.0221 c -0.90854,0.0122 -1.75563,0.003 -1.88242,-0.0207 -0.1268,-0.0236 -0.3487,-0.15431 -0.49312,-0.29052 l -0.26257,-0.24764 -2.54864,1.5e-4 c -2.28304,7e-5 -2.57473,0.0132 -2.79913,0.12525 -0.28012,0.13993 -0.50086,0.51068 -0.50061,0.84084 2e-4,0.27938 0.22683,0.6457 0.48071,0.77698 0.11062,0.0572 0.78257,0.17212 1.49322,0.25536 1.99061,0.23318 3.1157,0.54658 4.89014,1.36216 1.3309,0.61173 2.4069,0.93942 3.65642,1.11356 0.53051,0.0739 2.05593,0.0908 6.94233,0.0769 5.54033,-0.0158 6.33257,-0.0318 6.87077,-0.13862 z M 192.341,434.2015 c -0.11074,-0.11075 -0.17567,-0.25745 -0.17567,-0.3969 0,-0.13944 0.065,-0.28615 0.17567,-0.39689 l 0.17567,-0.17567 h 4.80174 4.80172 l 0.17568,0.17567 c 0.23241,0.23242 0.23241,0.56137 0,0.79379 l -0.17568,0.17566 h -4.80172 -4.80174 z m -2.46593,-1.8283 v -1.43142 h -1.43141 -1.43141 v 1.43142 1.4314 h 1.43141 1.43141 z m 17.74948,0 v -1.43142 h -1.4314 -1.43141 v 1.43142 1.4314 h 1.43141 1.4314 z m -25.19282,-0.28629 v -1.14513 h -0.39689 c -0.32596,0 -0.42828,0.0314 -0.57256,0.17567 -0.16923,0.16923 -0.17567,0.21126 -0.17567,1.14513 v 0.96946 h 0.57256 0.57256 z m 30.91847,0.17567 c 0,-0.93387 -0.007,-0.9759 -0.17567,-1.14513 -0.14428,-0.14427 -0.24661,-0.17567 -0.57257,-0.17567 h -0.39689 v 1.14513 1.14513 h 0.57257 0.57256 z"
       id="path23237"
       inkscape:export-filename="Icons/helmet.svg"
       inkscape:export-xdpi="96"
       inkscape:export-ydpi="96" /></g></svg>
