<?xml version="1.0" encoding="UTF-8" standalone="no"?>
<!-- Created with Inkscape (http://www.inkscape.org/) -->

<svg
   width="120.75496"
   height="122.57789"
   viewBox="0 0 31.949749 32.432067"
   version="1.1"
   id="svg719"
   xml:space="preserve"
   inkscape:version="1.2.2 (b0a8486, 2022-12-01)"
   sodipodi:docname="landing-page-001.svg"
   xmlns:inkscape="http://www.inkscape.org/namespaces/inkscape"
   xmlns:sodipodi="http://sodipodi.sourceforge.net/DTD/sodipodi-0.dtd"
   xmlns="http://www.w3.org/2000/svg"
   xmlns:svg="http://www.w3.org/2000/svg"><sodipodi:namedview
     id="namedview721"
     pagecolor="#ffffff"
     bordercolor="#000000"
     borderopacity="0.25"
     inkscape:showpageshadow="2"
     inkscape:pageopacity="0.0"
     inkscape:pagecheckerboard="0"
     inkscape:deskcolor="#171524"
     inkscape:document-units="mm"
     showgrid="false"
     showguides="true"
     inkscape:zoom="0.45254834"
     inkscape:cx="797.70484"
     inkscape:cy="4423.8368"
     inkscape:window-width="2560"
     inkscape:window-height="1056"
     inkscape:window-x="0"
     inkscape:window-y="24"
     inkscape:window-maximized="0"
     inkscape:current-layer="layer1" /><defs
     id="defs716" /><g
     inkscape:label="Camada 1"
     inkscape:groupmode="layer"
     id="layer1"
     transform="translate(-62.870015,-520.3073)"><g
       id="g20114-3-1"
       transform="matrix(0.64679878,0,0,0.65644203,118.01164,268.39104)"
       style="stroke-width:1.53467"><path
         style="fill:#f8f8f8;fill-opacity:1;stroke-width:1.53467"
         d="m -85.253133,432.34586 v -0.82006 h 1.640127 1.640127 v -13.97773 -13.97772 l -0.582616,-0.0421 c -0.4351,-0.0315 -0.636628,-0.0962 -0.795945,-0.25547 -0.208714,-0.20872 -0.213326,-0.26536 -0.213326,-2.61992 0,-2.35457 0.0046,-2.41121 0.213326,-2.61992 0.159317,-0.15932 0.360845,-0.224 0.795945,-0.25548 l 0.582616,-0.0421 v -1.68156 c 0,-1.94898 0.06402,-2.17918 0.651382,-2.34229 0.198903,-0.0552 0.698105,-0.10068 1.109344,-0.10097 l 0.747704,-5.5e-4 0.0031,-4.65507 c 0.0032,-4.90851 -0.0035,-4.83254 0.44886,-5.07346 0.303828,-0.16182 36.611735,-0.16182 36.91556,0 0.452347,0.24092 0.445626,0.16495 0.448859,5.07346 l 0.003,4.65507 0.747704,5.5e-4 c 1.677192,8.6e-4 1.760726,0.11949 1.760726,2.4932 v 1.63162 l 0.582615,0.0421 c 0.4351,0.0315 0.636631,0.0962 0.795945,0.25547 0.208716,0.20872 0.213325,0.26536 0.213325,2.61993 0,2.35456 -0.0046,2.41119 -0.213325,2.61992 -0.159315,0.15931 -0.360846,0.224 -0.795945,0.25546 l -0.582615,0.0421 v 13.97772 13.97774 h 1.640127 1.640127 v 0.82006 0.82007 h -24.698355 -24.698395 z m 44.476407,-14.80939 v -13.98931 h -19.778013 -19.778012 v 13.98931 13.98933 h 19.778012 19.778013 z m -36.810784,11.2441 -0.236808,-0.23682 0.003,-4.41826 c 0.0022,-3.32099 0.03226,-4.45627 0.120598,-4.57134 0.273382,-0.35606 0.480308,-0.37754 3.637023,-0.37754 h 3.098027 l 0.229082,0.22908 c 0.137369,0.13736 0.25377,0.39808 0.29075,0.65123 0.03392,0.23217 0.04825,2.23852 0.03184,4.45854 l -0.02982,4.03639 -0.270695,0.23276 -0.270697,0.23276 h -3.18278 -3.182783 z m 5.551877,-4.68358 v -3.28026 h -2.07428 -2.074278 v 3.28026 3.28026 h 2.074278 2.07428 z m 8.437227,4.6651 -0.236587,-0.25528 0.003,-4.39979 c 0.0022,-3.30647 0.03228,-4.43782 0.120599,-4.55287 0.273381,-0.35606 0.480308,-0.37754 3.637022,-0.37754 h 3.098027 l 0.230416,0.23041 c 0.126728,0.12673 0.257293,0.37637 0.290144,0.55475 0.03285,0.17838 0.04659,2.18413 0.03051,4.45721 l -0.02921,4.13287 -0.270697,0.23276 -0.270692,0.23276 h -3.183005 -3.183004 z m 5.552098,-4.6651 v -3.28026 h -2.074278 -2.07428 v 3.28026 3.28026 h 2.07428 2.074278 z m 7.65127,4.68754 -0.270696,-0.23284 v -4.4547 -4.4547 l 0.270696,-0.23284 0.270696,-0.23284 h 3.077378 c 3.256234,0 3.461457,0.0252 3.654689,0.44933 0.07341,0.16112 0.107116,1.59531 0.107116,4.55798 v 4.32289 l -0.236587,0.25528 -0.23659,0.25528 h -3.183005 -3.183001 z m 5.469751,-4.68754 v -3.28026 h -2.074277 -2.07428 v 3.28026 3.28026 h 2.07428 2.074277 z m -32.382199,-8.2963 c -0.520853,-0.2102 -0.516832,-0.17217 -0.516832,-4.88905 v -4.3629 l 0.232839,-0.2707 0.232843,-0.27069 h 3.189939 3.189937 l 0.267508,0.26741 0.267509,0.26741 0.02802,4.14578 c 0.01892,2.79603 -0.0066,4.27402 -0.07804,4.53967 -0.174264,0.64716 -0.299605,0.6697 -3.685407,0.66262 -1.60686,-0.003 -3.014603,-0.0437 -3.128316,-0.0895 z m 5.223615,-4.87296 v -3.28026 l -2.05016,-0.0261 -2.05016,-0.0261 v 3.33233 3.33233 l 2.05016,-0.0261 2.05016,-0.0261 z m 8.76571,4.87296 c -0.520852,-0.2102 -0.516832,-0.17217 -0.516832,-4.88905 v -4.3629 l 0.232842,-0.2707 0.23284,-0.27069 h 3.18994 3.189938 l 0.267506,0.26741 0.267508,0.26741 0.03004,4.17058 c 0.0208,2.88886 -0.0033,4.28406 -0.07847,4.53985 -0.181835,0.61879 -0.331412,0.64466 -3.686996,0.63764 -1.606859,-0.003 -3.0146,-0.0437 -3.128315,-0.0895 z m 5.223615,-4.87296 v -3.28026 l -2.05016,-0.0261 -2.05016,-0.0261 v 3.33233 3.33233 l 2.05016,-0.0261 2.05016,-0.0261 z M -50.1945,415.76 c -0.19327,-0.0854 -0.339667,-0.24496 -0.410033,-0.4468 -0.145644,-0.4178 -0.153192,-8.33149 -0.0084,-8.74699 0.188907,-0.5419 0.302256,-0.55886 3.732895,-0.55886 h 3.129213 l 0.232807,0.27069 0.232807,0.2707 v 4.37899 4.37899 l -0.232733,0.2707 -0.232736,0.27069 -3.071642,0.0224 c -2.436853,0.0178 -3.13376,-0.005 -3.372233,-0.11049 z m 5.269213,-4.83419 v -3.33041 l -2.050159,0.0261 -2.050161,0.0261 -0.02547,3.18305 c -0.014,1.75067 -0.0046,3.23764 0.0211,3.30437 0.03536,0.0921 0.534825,0.12133 2.075629,0.12133 h 2.029066 z m 5.788688,-10.273 v -1.25422 h -21.41814 -21.41814 v 1.25422 1.25421 h 21.41814 21.41814 z m -1.661365,-4.12444 -0.02699,-1.2301 h -19.729768 -19.729773 l -0.02699,1.2301 -0.02699,1.2301 h 19.783777 19.783777 z m -2.487195,-7.01878 v -4.10032 h -17.26958 -17.269579 v 4.10032 4.10032 h 17.269579 17.26958 z m -21.964933,2.37808 c -0.740657,-0.25595 -1.136919,-0.60683 -1.485919,-1.31576 -0.284787,-0.57848 -0.30448,-0.68122 -0.264143,-1.37803 0.09308,-1.60786 1.070431,-2.5572 2.63453,-2.55901 1.624164,-0.002 2.684995,1.05483 2.692216,2.68176 0.0087,1.95522 -1.733912,3.20786 -3.576684,2.57104 z m 1.874665,-0.94281 c 1.016545,-0.74062 0.915105,-2.74708 -0.166455,-3.29247 -1.34005,-0.67576 -2.664415,0.3573 -2.478383,1.93323 0.126024,1.06758 0.79931,1.65326 1.824776,1.58734 0.356997,-0.0229 0.650555,-0.1046 0.820062,-0.2281 z m -8.94964,-1.62823 v -2.65314 h 0.48239 0.48239 v 1.15773 1.15774 h 1.254215 1.254215 v -1.15774 -1.15773 h 0.482391 0.482391 v 2.65314 2.65315 h -0.482391 -0.482391 v -1.15774 -1.15773 h -1.254215 -1.254215 v 1.15773 1.15774 h -0.48239 -0.48239 z m 12.349197,0.38592 v -2.26724 h -0.820065 -0.820062 v -0.38592 -0.3859 h 2.122518 2.122517 v 0.382 0.38202 l -0.795945,0.028 -0.795942,0.0281 -0.0259,2.24312 -0.0259,2.24311 h -0.48061 -0.480614 z m 3.280254,-0.38592 v -2.65314 h 1.688368 1.688368 v 0.3859 0.38592 h -1.205978 -1.205977 v 0.72359 0.72358 h 0.916544 0.916543 v 0.38591 0.38592 h -0.916543 -0.916544 v 0.77182 0.77183 h 1.205977 1.205978 v 0.38591 0.38591 h -1.688368 -1.688368 z m 4.245039,0 v -2.65314 h 0.482391 0.48239 v 2.26723 2.26724 h 1.061258 1.06126 v 0.38591 0.38591 h -1.54365 -1.543649 z"
         id="path20791" /></g></g></svg>
