<?xml version="1.0" encoding="UTF-8"?>
<!DOCTYPE svg PUBLIC "-//W3C//DTD SVG 1.1//EN" "http://www.w3.org/Graphics/SVG/1.1/DTD/svg11.dtd">
<!-- Creator: CorelDRAW 2018 (64 Bit) -->
<svg xmlns="http://www.w3.org/2000/svg" xml:space="preserve" width="25.5015mm" height="25.4037mm" version="1.1" style="shape-rendering:geometricPrecision; text-rendering:geometricPrecision; image-rendering:optimizeQuality; fill-rule:evenodd; clip-rule:evenodd"
viewBox="0 0 667.76 665.2"
 xmlns:xlink="http://www.w3.org/1999/xlink">
 <defs>
  <style type="text/css">
   <![CDATA[
    .fil0 {fill:#1C3F5E}
   ]]>
  </style>
 </defs>
 <g id="Camada_x0020_1">
  <metadata id="CorelCorpID_0Corel-Layer"/>
  <path class="fil0" d="M87.85 134.69c-1.89,-20.49 -0.3,-48.85 -0.3,-70.19 0,-30.12 5.09,-43.56 -31.84,-33.2 -18.28,5.13 -32.94,17.86 -41.01,29.02 -12.45,17.21 -14.16,31.44 -14.15,57.09l0 351.96c0,45.05 -7.3,80.78 31.17,109.11 17.3,12.74 33.03,13.72 57.31,13.71l211.63 0c23.11,0 48.59,-1.01 71.41,0.18 -2.56,5 -22.22,23.43 -27.71,28.84 -4.25,4.18 -26.58,25.39 -28.54,28.94 -4.54,8.2 1.69,14.49 10.07,15.03l86.35 0.02c76.3,0 152.59,-0.01 228.89,0 30.55,0.01 26.46,-0.61 26.46,-30.2l-0.11 -313.98c-1.06,-8.49 -9.76,-12.13 -16.59,-6.35 -5.97,5.05 -23.48,25.44 -28.95,27.85 -1.03,-58.95 -0.06,-120.71 -0.05,-180.25 0,-35.72 2.25,-27.58 -83.4,-27.58 3.1,-6.08 42.6,-42.26 51.88,-53.11 8.71,-10.19 12.69,-24.59 3.29,-38.62 -3.36,-5 -8.25,-8.75 -12.83,-13.6 -15.14,-16.04 -28.17,-32.67 -48.62,-28.78 -11.89,2.27 -23.15,16.14 -29.79,22.98l-105.24 105.23c-7.63,7.66 -5.07,5.95 -19.43,5.91l-289.88 -0zm156.67 201.25l18.02 18.51 26.84 -9.21c-2.4,-5.39 -28.34,-29.32 -34.44,-35.87 -3.29,3.07 -9.59,22.86 -10.42,26.57zm239.02 259.78l99.92 0c10.3,0 13.63,-3.5 13.63,-13.63l0 -100.06c0,-12.63 -9.41,-17.29 -18.21,-9.29l-105.19 105.24c-7.75,8.8 -3.22,17.75 9.85,17.75zm22.41 -20.03l70.83 -0.03 0.08 -71c-5.18,2.26 -30.3,28.77 -36.1,34.58 -6.18,6.18 -32.09,30.49 -34.81,36.46zm7.27 -534.2c1.71,4.12 40.65,42.54 43.94,44.45 4.33,-3.83 19.63,-17.81 21.09,-22.22 2.39,-7.22 -2.83,-11.01 -6.02,-14.26 -3.89,-3.97 -7.01,-6.96 -10.92,-10.95 -4.02,-4.09 -16.71,-19.64 -24.4,-18.3 -5.15,0.9 -20.48,17.27 -23.68,21.28zm-32 32.21c1.84,3.84 39.37,41.43 43.73,43.94 2.68,-1.52 2.2,-1.45 4.63,-3.66l12.55 -12.44c-1.88,-5.12 -16.45,-17.85 -21.15,-22.73 -5.57,-5.78 -16.09,-17.22 -22.49,-21.94 -3.46,1.63 -14.86,13.25 -17.27,16.83zm-460.76 395.26c12.61,-14.54 29.28,-20.12 46.85,-24.62 0,-10.1 -1.1,-59.34 0.91,-64.71 3.04,-8.13 15.34,-8.88 18.51,-0.02 1.62,4.52 0.78,55.31 0.82,64.46 0.05,13.03 0.55,19.28 -12.29,20.22 -64.58,4.73 -72.44,87.41 -18.05,104.78 18.83,6.01 102.37,3.01 128.43,3.01l196.69 0.01c7.17,0.06 9.8,1.17 13.92,-2.56 7.66,-6.94 35.76,-38.46 41.89,-39.65 9.67,-1.89 15.37,8.85 8.94,16.89l-32.73 32.84c-21.94,21.91 -43.43,43.25 -64.92,65.21l298.21 0.32 0.15 -46.2c-12.14,-0.25 -27.58,2.99 -27.58,-9.95 0,-13.56 17.03,-9.57 27.65,-10.31l-0.04 -28.58c-10.5,-0.48 -26.82,2.96 -27.58,-9.44 -0.86,-13.95 15.53,-10.65 27.12,-10.95l0.5 -28.84c-11.41,-0.43 -27.13,3.03 -27.63,-9.67 -0.54,-13.78 16.19,-9.96 27.55,-10.52l-0.02 -29.01c-12.06,-0.27 -27.49,3 -27.54,-9.91 -0.05,-13.67 16.98,-9.62 27.65,-10.32l-0.02 -84.87c-18.62,17.45 -35.68,35.77 -54.05,53.61 -18.51,17.97 -36.66,36.12 -54.63,54.65 -17.77,18.33 -35.73,36.26 -54.05,54.06 -3.48,3.38 -9.21,11.19 -15.39,11.62 -9.65,0.67 -13.64,-9.12 -8.6,-16.02l136.31 -136.31c6.4,-6.2 4.22,-11.05 4.22,-21.87 -0.01,-25.5 1.14,-183.06 -0.45,-191.24 -21.23,-1.66 -48.56,-0.13 -70.49,-0.18 -18.34,-0.04 -14.5,1.19 -24.21,10.79l-178.9 178.81c-17.98,17.91 -15.36,14.22 -46.23,24.96 -8.94,3.11 -18.12,7.24 -26.27,9.58 18.87,1.62 115.04,0.24 142.18,0.24 11.89,0 23.77,0.01 35.66,0 10.78,-0.01 26.72,-1.57 23.13,12.85 -2.43,9.77 -17.76,7.2 -28.88,7.2l-178.28 0c-23.07,0 -48.64,1.06 -71.4,0.01 -15.27,-0.7 -14.52,-15.59 -6.09,-19.07 5.35,-2.21 28.25,-0.98 35.93,-0.98 3.49,-6.77 8.17,-21.76 11.04,-30.26l22.24 -62.73c2.23,-4.14 16.75,-17.78 20.84,-21.74 5.62,-5.45 26.15,-29.39 33.52,-29.71 6.28,-0.27 11.17,4.76 10.27,11.22 -0.99,7.11 -34.76,37.24 -40.92,44.16l44.08 44.43c4.4,-3.29 9.41,-8.74 12.29,-11.99l126.69 -126.38c4.57,-4.9 8.01,-8.4 12.44,-12.84l25.54 -25.08c5.84,-5.99 21.75,-20.75 24.7,-25.98l-43.45 -43.92c-5.53,3.45 -117.72,116.86 -130.03,129.3 -18.31,18.49 -27.32,-0.79 -18.26,-10.21 8.44,-8.78 48.08,-46.3 51.58,-52.38l-282.36 -0.21c0,14.89 1.82,188.19 -1.59,194.05 -4.79,8.24 -17.2,5.71 -18.51,-5.23 -1.19,-10.04 -0.13,-194.68 -0.13,-228.65 0,-20.65 1.2,-45.23 -0.21,-65.4 -15.7,1.52 -28.82,12.95 -35.41,21.85 -10.42,14.07 -11.54,26.02 -11.52,47.01l0 292.15c0,17.46 -1.38,41.6 0.29,58.25z"/>
 </g>
</svg>
