<?xml version="1.0" encoding="UTF-8"?>
<!DOCTYPE svg PUBLIC "-//W3C//DTD SVG 1.1//EN" "http://www.w3.org/Graphics/SVG/1.1/DTD/svg11.dtd">
<!-- Creator: CorelDRAW 2018 (64 Bit) -->
<svg xmlns="http://www.w3.org/2000/svg" xml:space="preserve" width="27.3901mm" height="29.3501mm" version="1.1" style="shape-rendering:geometricPrecision; text-rendering:geometricPrecision; image-rendering:optimizeQuality; fill-rule:evenodd; clip-rule:evenodd"
viewBox="0 0 785.56 841.78"
 xmlns:xlink="http://www.w3.org/1999/xlink">
 <defs>
  <style type="text/css">
   <![CDATA[
    .fil0 {fill:#1C3F5E}
   ]]>
  </style>
 </defs>
 <g id="Camada_x0020_1">
  <metadata id="CorelCorpID_0Corel-Layer"/>
  <g id="_3002730089552">
   <path class="fil0" d="M225.81 2.96c-17.75,6.22 -33.12,22.87 -37.15,40.62 -1.1,4.57 -2.01,25.43 -2.01,46.66 0,44.65 1.47,49.96 14.82,58.92l7.87 5.13 109.79 0.55c75.03,0.37 112.17,0 116.75,-1.46 8.23,-2.38 17.02,-9.52 20.86,-16.84 1.46,-2.93 3.3,-12.26 3.84,-20.86l1.1 -15.55 73.74 0.55 73.92 0.55 4.76 4.76c3.84,4.02 4.76,6.77 5.13,14.64 0.18,8.05 -0.37,9.7 -2.56,9.15 -1.46,-0.37 -12.99,-1.1 -25.62,-1.46 -48.67,-1.83 -89.48,13.54 -124.8,46.84 -72.83,68.8 -74.66,179.69 -4.39,250.14 38.79,38.61 92.04,56.54 147.12,49.59l11.34 -1.46 -0.36 212.45 -0.55 117.98 -6.04 5.31 -5.86 5.31 -282.9 0c-307.42,0 -290.22,0.55 -294.97,-10.07 -1.65,-3.66 -2.19,-1.59 -2.19,-299.86 0,-423.98 -0.73,-397.08 10.06,-402.02 3.29,-1.47 19.94,-2.2 54.71,-2.2 49.77,0 49.95,0 53.8,-4.21 5.31,-5.67 5.13,-13.18 -0.55,-18.85l-4.57 -4.57 -53.62 0.55c-53.43,0.55 -53.62,0.55 -62.58,5.31 -10.25,5.12 -19.94,16.65 -22.87,26.9 -1.28,4.57 -1.83,134.49 -1.83,400.19 0.18,323.89 0.55,300.05 2.56,305.72 3.66,10.06 11.16,18.85 20.86,24.52l8.6 5.13 288.21 0.55c319.86,0.55 298.45,1.28 311.81,-11.71 3.66,-3.48 8.42,-9.88 10.8,-14.09l4.03 -7.69 0.55 -124.01 0.37 -218.85 14.27 -6.95c34.95,-17.2 64.96,-47.58 80.88,-82.16 7.5,-16.1 14.09,-40.44 15.55,-57.28 1.1,-13.18 0.91,-15.01 -2.74,-19.58 -2.93,-3.66 -5.49,-4.94 -10.06,-4.94 -8.78,0 -12.99,6.04 -14.27,21.41 -4.94,51.42 -37.51,97.71 -84.17,119.49 -29.09,13.72 -67.89,17.38 -98.08,9.33 -36.05,-9.52 -67.52,-31.84 -86.92,-62.03 -16.84,-25.8 -23.6,-49.41 -23.6,-80.88 -0.18,-40.81 12.99,-72.65 42.64,-102.66 18.11,-18.3 33.85,-28.18 58.55,-36.78 16.47,-5.67 18.67,-5.85 43.92,-5.85 30.56,-0.18 41.72,2.19 64.96,13.72 25.8,12.63 28.55,6.04 -25.07,59.65l-47.03 47.03 -26.17 -25.62c-21.41,-21.04 -28,-26.35 -35.32,-28.73 -21.78,-7.5 -43.92,0.73 -54.35,20.13 -6.77,12.44 -7.87,22.14 -4.21,34.77 2.93,10.25 4.94,12.44 48.13,56 28.37,28.55 47.94,46.66 52.52,48.86 10.25,4.94 28.18,4.94 38.25,0 4.94,-2.38 37.69,-33.85 96.43,-92.78 95.89,-96.25 93.69,-93.5 93.69,-112.9 -0.18,-24.7 -19.39,-43.74 -44.46,-43.92 -14.82,0 -23.79,4.39 -39.71,19.39l-11.35 10.98 -7.87 -5.49c-4.39,-2.93 -13.72,-8.23 -20.86,-11.9l-12.99 -6.59 -0.91 -15.19c-1.46,-23.6 -8.97,-36.78 -26.17,-45.93 -7.14,-3.84 -9.33,-4.03 -83.44,-4.57l-76.12 -0.55 -1.28 -13.18c-0.55,-7.32 -2.38,-17.02 -4.02,-21.78 -3.66,-11.16 -16.84,-25.8 -28.91,-32.21l-9.33 -4.94 -91.49 -0.37c-83.81,-0.55 -92.23,-0.18 -100.83,2.74l0 0zm192.68 28.91c2.74,2.01 6.95,6.59 9.33,9.88 4.02,6.04 4.02,7.14 3.66,45.56l-0.55 39.53 -105.95 0.55c-76.67,0.18 -106.68,-0.18 -108.33,-1.65 -2.01,-1.65 -2.56,-9.88 -2.56,-38.25 0,-34.04 0.18,-36.41 4.21,-43.92 2.93,-5.49 6.77,-9.33 12.26,-12.26l8.05 -4.39 87.29 0.55c85.45,0.55 87.47,0.55 92.59,4.39l0 0zm333.76 131.75c4.57,4.21 6.77,11.71 5.13,18.11 -1.1,3.84 -27.08,31.11 -87.1,90.94l-85.64 85.64 -8.23 0 -8.05 0 -41.72 -41.54c-42.82,-42.82 -47.21,-48.49 -43.74,-57.64 2.38,-6.59 10.61,-12.44 17.2,-12.44 4.57,0 10.43,4.94 37.88,32.02 28.91,28.55 33.12,32.02 38.61,32.02 5.49,0 12.63,-6.4 81.06,-74.84 41.35,-41.17 76.49,-75.21 77.95,-75.76 4.21,-1.65 13.17,0.18 16.65,3.48l-0 0z"/>
   <path class="fil0" d="M79.05 206.44c-2.56,2.56 -4.02,6.04 -4.02,10.06 0,4.03 1.46,7.5 4.02,10.06 3.84,3.48 6.22,3.66 54.9,3.66l51.05 0 4.39 -4.57c2.56,-2.38 4.57,-6.59 4.57,-9.15 0,-2.56 -2.01,-6.77 -4.57,-9.15l-4.39 -4.57 -51.05 0c-48.67,0 -51.05,0.18 -54.9,3.66l0 0z"/>
   <path class="fil0" d="M101.19 286.5c-16.65,5.49 -27.08,14.82 -34.58,31.11 -4.21,9.33 -4.76,12.26 -4.03,24.89 1.1,17.57 7.69,30.56 20.68,40.62 28.18,21.41 66.79,12.08 84.36,-20.49 2.74,-4.94 3.48,-10.25 3.48,-22.88 0,-18.11 -2.74,-25.62 -13.91,-38.24 -12.08,-13.91 -38.25,-20.86 -56,-15.01l0 0zm29.46 29.1c11.89,6.77 17.57,23.6 11.89,34.77 -9.7,18.85 -31.11,22.51 -45.56,7.87 -5.13,-5.31 -6.22,-8.23 -6.96,-16.47 -0.73,-8.05 0,-11.34 3.3,-16.65 8.05,-12.99 24.15,-17.02 37.33,-9.51z"/>
   <path class="fil0" d="M196.71 300.41c-4.57,5.12 -4.21,13.91 0.73,18.85 3.84,4.02 4.21,4.02 87.65,4.57 45.93,0.37 86.37,0 89.66,-0.55 6.96,-1.28 13.18,-7.32 13.18,-12.99 0,-2.19 -1.65,-6.04 -3.84,-8.78l-3.66 -4.76 -90.21 0c-88.02,0 -90.21,0 -93.5,3.66l0 0z"/>
   <path class="fil0" d="M202.2 360.8c-8.97,3.48 -11.71,15 -5.49,21.96 3.29,3.66 5.49,3.66 93.5,3.66l90.21 0 3.66 -4.76c6.22,-7.87 4.39,-15.74 -4.76,-20.5 -4.76,-2.56 -171.09,-2.93 -177.13,-0.36z"/>
   <path class="fil0" d="M105.22 453.94c-16.84,4.39 -29.83,14.64 -37.33,29.83 -14.09,28.18 -1.83,62.03 27.08,75.39 6.22,2.74 12.26,3.84 22.14,3.84 22.32,0 38.98,-10.25 49.77,-30.74 3.48,-6.4 4.21,-10.61 4.21,-24.15 0,-14.82 -0.55,-17.38 -5.49,-26.35 -6.04,-10.8 -14.27,-18.48 -25.98,-23.97 -8.97,-4.21 -25.98,-6.04 -34.4,-3.84l0 0zm26.35 30.93c17.93,13.17 17.02,37.51 -1.65,47.39 -9.51,5.13 -15.01,5.31 -24.89,0.73 -10.8,-4.94 -16.1,-14.09 -15.01,-26.53 0.91,-11.53 5.13,-17.93 15.19,-23.06 8.6,-4.57 19.21,-4.02 26.35,1.47l0 0z"/>
   <path class="fil0" d="M196.71 466.93c-5.13,5.67 -4.39,14.46 1.65,19.58l4.94 4.21 116.01 0 116.02 0 4.94 -4.21c6.22,-5.49 6.59,-15.19 0.55,-19.94 -3.66,-3.11 -12.08,-3.3 -122.42,-3.3 -116.38,0 -118.39,0 -121.68,3.66z"/>
   <path class="fil0" d="M203.85 526.77c-10.06,2.01 -13.91,15.56 -6.4,23.06 3.84,4.03 5.12,4.03 60.2,4.57 30.93,0.37 58.92,0 62.22,-0.55 15.55,-2.93 17.93,-20.86 3.29,-26.53 -4.76,-1.83 -110.52,-2.38 -119.31,-0.55z"/>
   <path class="fil0" d="M107.78 620.82c-16.65,2.56 -32.39,14.09 -40.44,29.64 -5.31,10.61 -6.59,30.74 -2.56,43 4.02,11.71 15.37,24.71 27.45,31.11 8.05,4.21 11.53,4.94 24.89,4.94 12.63,0 17.02,-0.73 23.24,-4.21 12.44,-6.59 20.86,-15.19 26.53,-26.9 18.85,-40.07 -15.01,-84.54 -59.11,-77.59l0 0zm18.48 28.18c10.43,2.93 18.3,14.46 18.3,27.08 0,19.95 -21.96,32.94 -40.26,23.61 -18.11,-8.97 -19.94,-34.22 -3.3,-46.85 8.24,-6.22 13.73,-6.95 25.25,-3.84z"/>
   <path class="fil0" d="M198.91 631.8c-8.23,4.76 -7.14,19.4 1.65,23.42 3.3,1.46 30.38,2.01 91.49,2.01l86.92 0 4.39 -4.57c2.56,-2.38 4.57,-6.59 4.57,-9.15 0,-2.56 -2.01,-6.77 -4.57,-9.15l-4.39 -4.57 -88.38 0c-58.37,0.18 -89.48,0.73 -91.68,2.01l0 -0z"/>
   <path class="fil0" d="M197.44 697.13c-6.04,4.94 -5.49,14.27 0.91,19.95l4.94 4.21 116.01 0 116.02 0 4.94 -4.21c6.22,-5.49 6.59,-15.19 0.55,-19.95 -3.66,-3.11 -12.08,-3.29 -121.51,-3.29 -111.62,0 -117.84,0.18 -121.87,3.29z"/>
  </g>
 </g>
</svg>
