<?xml version="1.0" encoding="UTF-8"?>
<!DOCTYPE svg PUBLIC "-//W3C//DTD SVG 1.1//EN" "http://www.w3.org/Graphics/SVG/1.1/DTD/svg11.dtd">
<!-- Creator: CorelDRAW 2018 (64 Bit) -->
<svg xmlns="http://www.w3.org/2000/svg" xml:space="preserve" width="29.287mm" height="29.7264mm" version="1.1" style="shape-rendering:geometricPrecision; text-rendering:geometricPrecision; image-rendering:optimizeQuality; fill-rule:evenodd; clip-rule:evenodd"
viewBox="0 0 916.34 930.09"
 xmlns:xlink="http://www.w3.org/1999/xlink">
 <defs>
  <style type="text/css">
   <![CDATA[
    .fil0 {fill:#1C3F5E}
   ]]>
  </style>
 </defs>
 <g id="Camada_x0020_1">
  <metadata id="CorelCorpID_0Corel-Layer"/>
  <g id="_3003077347520">
   <path class="fil0" d="M387.58 818l23.85 -41.31c7.11,4.1 9.05,7.12 17.7,12.11l-23.85 41.32c-21.42,37.09 39.7,72.7 61.26,35.37l23.85 -41.31c8.46,4.89 10.87,7.13 20.17,7.84 -11.12,19.26 -26.26,51.67 -43.31,63.07 -12.53,8.38 -27.74,12.06 -42.21,8.77 -23.67,-5.39 -37.69,-19.63 -44.11,-40.72 -3.74,-12.27 -2.26,-29.7 6.65,-45.13zm12.49 104.09l-11.37 -6.57c-11.1,-7.69 -20.38,-18.31 -26.95,-31.59 -22.23,-44.88 3.65,-80.14 28.54,-123.25 -10.69,-10.01 -20.42,-18.49 -29.86,-29.33 -54.25,-62.23 -17.01,-41.42 -95.1,-86.51 -34.09,36.41 -87.31,9.6 -85.76,-32.42 -39.41,-22.76 -78.83,-45.51 -118.24,-68.27 -17.99,-10.39 -43.38,-21.77 -53.7,-34.99 -5.44,-6.96 -7.61,-14.59 -7.62,-23.25 -0.01,-8.77 1.45,-15.73 7.42,-26.07l97.88 -169.53c11.37,-19.69 25.68,-26.12 42.74,-24.77 15.45,1.23 38.9,18.72 55.8,28.47 38.46,22.21 76.93,44.41 115.39,66.62 5.2,-3.27 7.32,-5.65 13.32,-8.7 20.54,-10.45 45.95,-5.74 61.46,16.36 4.58,6.52 4.82,7.96 6.64,15.08 2.76,10.77 3.08,21.72 -4.56,34.94l9.97 5.76c28.2,16.29 44.78,10.88 66.65,1.56l30.66 -11.4c53.3,-14.21 77.67,13.27 84.02,4.64 9.09,-12.36 13.84,-59.2 8.79,-83.06 -14.26,-67.42 25.76,-147.07 95.13,-172.98 13.14,-4.91 49.62,-16.49 62.62,-8.98 17.25,9.96 23.74,23.78 12.96,43.49 -10.49,19.18 -51.65,82.3 -52.49,98.36 -1.74,33.35 34.22,53.67 61.41,34.18 13.35,-9.57 46.51,-76.18 58.75,-95.35 8.53,-13.36 24.84,-19.79 39.04,-11.59 14.47,8.35 19.5,25.42 23.84,41.78 21.21,79.84 -21.73,162.52 -97.16,187.94 -57.5,19.37 -72.5,55.74 -99.97,103.31 48.42,27.96 32.9,82.82 0.3,95.5 -7.1,2.76 -17.56,6.08 -25.43,3.96 -0.31,8.4 1.02,17.97 -4.61,27.73 -6.19,10.71 -9.99,17.92 -22.49,23.95 -3.29,1.59 -6.39,2.88 -9.83,3.76 -5.1,1.31 -5.2,0.52 -10.06,2.91 1.45,21.8 2.25,22.42 -9.99,43.62 -7.69,13.32 -33.64,24.77 -46.81,18.56 -2.73,10.17 4.23,28.3 -23.2,48.24 -23.95,17.41 -35.54,97 -99.49,105.1 -17.4,2.21 -34.11,-0.36 -48.64,-7.23zm29.04 -83.91l21.39 -37.04 18.52 10.69c-20.57,35.62 -22.71,49.57 -38.54,40.43 -4.61,-2.66 -4.14,-9.28 -1.36,-14.08zm-230.58 -271.79l-11.51 19.95 -155.28 -89.65c-8.49,-4.9 -8.08,-12.33 -3.17,-20.83l102.81 -178.08c3.98,-6.89 11.09,-8.8 17.98,-4.82l155.28 89.65 -73.2 126.79c-4.91,8.49 -5.32,15.92 3.17,20.83 15.83,9.14 24.2,-15.6 33.6,-31.89l59.22 -102.58c7.8,-13.59 16.55,-32.23 39.47,-19 10.25,5.92 12.54,21.05 6.18,32.06l-124.2 215.12c-15.64,27.1 -57.85,7.53 -38.34,-25.85 8.76,-14.99 22.68,-30.68 7.61,-39.37 -8.49,-4.9 -14.71,-0.83 -19.62,7.67zm438.84 55.82c-9.08,15.73 3.53,16.01 9.8,28.69 9.44,19.1 -8.28,42.15 -31.04,35.85 -5.2,-1.44 -20.84,-14.68 -29.03,-0.49 -6.79,11.75 10.07,20.17 13.22,25.36 11.4,18.77 -6.21,47.83 -29.75,38.79 -7.27,-2.79 -22.74,-15.87 -31.5,-0.7 -8.76,15.18 15.51,22.49 2.45,45.1 -16.98,29.4 -47.85,0.87 -72.17,-13.18 -31.54,-18.21 -52.15,-29.84 -74.19,-51.17 -38.51,-37.26 -44.91,-65.26 -79.04,-84.79 -7.14,-4.09 -14.23,-8.26 -21.38,-12.33 -7.01,-3.99 -18.37,-7.65 -14.62,-14.15l103.64 -179.5c22.26,12.85 37.13,23.57 65.57,20.02 34.6,-4.31 70.52,-40.31 123.55,-15.3 -12.45,21.56 -26.19,48.52 0.53,68.5 27.8,20.79 91.9,50.26 120.86,69.97 24.17,16.46 6.84,52.68 -19.88,47.13 -6.57,-1.36 -12.09,-5.08 -19.3,-9.11 -5.61,-3.14 -13.71,-5.62 -17.71,1.32zm-0.75 -380.34c19.84,-34.35 58.23,-59.03 92.64,-63.22 24.45,-2.98 18.55,-1.05 4.87,22.65 -25.89,44.8 -79.28,108.3 -15.19,152.21 19.61,13.43 52.17,12.16 72.05,-2.92 26.53,-20.12 49.76,-79.73 65.61,-101.67 5.97,-8.26 7.82,-0.8 10.62,5.81 6.5,15.38 11.25,36.18 10.18,52.69 -2.83,43.99 -17.75,79.09 -55.25,105.54 -30.91,21.8 -82.69,22.57 -121.6,89.97l-23.03 39.89 -18.52 -10.69 13.98 -24.22c5.91,-10.23 -14.5,-24.24 -23.02,-9.49l-12.34 21.37 -18.52 -10.69 44.41 -76.93c7.14,-12.37 28.42,-8.03 16.88,13.54 -12.05,22.52 13.46,26.04 18.08,18.03 8.81,-15.26 14.73,-20.79 9.61,-38.7 -8,-28.01 -48.66,-35.14 -63.47,-9.49l-46.88 81.2c-26.87,-15.51 -11.7,-14.95 14.42,-71.3 9.33,-20.12 12.15,-43.78 12.78,-62.43 1.11,-32.66 -19.71,-66.79 11.67,-121.14z"/>
   <g>
    <path class="fil0" d="M711.31 13.54l0 59.24c0,20.37 27.08,20.37 27.08,0l0 -55.86c0,-10.42 -4.86,-15.64 -10.45,-16.93l-5.76 0c-5.77,1.26 -10.86,6.22 -10.86,13.54z"/>
    <path class="fil0" d="M861.95 172.64c0,24.74 29.59,7.21 36.53,4.37 31.12,-12.75 13.79,-29.76 5.79,-29.76 -5.53,0 -19.55,6.57 -24.83,9.02 -8.23,3.81 -17.48,5.88 -17.48,16.37z"/>
    <path class="fil0" d="M533.59 159.1c0,10.94 8.51,13.91 16.68,17.17 7.87,3.14 37.48,22.61 37.48,-5.32 0,-7.79 -11.29,-11.83 -17.48,-14.68 -5.31,-2.45 -19.29,-9.02 -24.83,-9.02 -5.74,0 -11.85,6.11 -11.85,11.85z"/>
    <path class="fil0" d="M606.37 74.47c0,6.62 5.84,13.02 10.87,21.29 6.9,11.33 9.91,17.64 19.6,17.64 26.62,0 1.31,-33.58 0.72,-34.57 -4.48,-7.36 -7.06,-16.21 -17.64,-16.21 -7.24,0 -13.54,5.22 -13.54,11.85z"/>
    <path class="fil0" d="M801.02 99.86c0,12.23 4.9,13.54 15.23,13.54 8.17,0 27.08,-34.75 27.08,-37.24 0,-8.19 -5.35,-13.54 -13.54,-13.54 -10.33,0 -12.98,8.38 -17.01,15.15 -3.22,5.42 -11.77,15.04 -11.77,22.08z"/>
   </g>
  </g>
 </g>
</svg>
