<?xml version="1.0" encoding="UTF-8"?>
<!DOCTYPE svg PUBLIC "-//W3C//DTD SVG 1.1//EN" "http://www.w3.org/Graphics/SVG/1.1/DTD/svg11.dtd">
<!-- Creator: CorelDRAW 2018 (64 Bit) -->
<svg xmlns="http://www.w3.org/2000/svg" xml:space="preserve" width="25.7201mm" height="24.8159mm" version="1.1" style="shape-rendering:geometricPrecision; text-rendering:geometricPrecision; image-rendering:optimizeQuality; fill-rule:evenodd; clip-rule:evenodd"
viewBox="0 0 680.79 656.85"
 xmlns:xlink="http://www.w3.org/1999/xlink">
 <defs>
  <style type="text/css">
   <![CDATA[
    .fil0 {fill:#1C3F5E}
   ]]>
  </style>
 </defs>
 <g id="Camada_x0020_1">
  <metadata id="CorelCorpID_0Corel-Layer"/>
  <g id="_3002814764448">
   <path class="fil0" d="M230.03 296.51c0,-35.42 26.26,-76.31 49.2,-82.44 0,18.69 -2.33,71.22 0.73,85.7 11.1,52.57 81.97,54.69 95.56,1.27 2.82,-11.07 0.78,-70.63 0.78,-86.97 5.94,1.38 14.88,8.83 18.97,12.94 49.42,49.69 34.6,120.05 -17.68,150.57 -11.79,6.88 -21.24,3.69 -21.24,22.64l0 106.37c-6.85,0.15 -21.32,2.27 -27.92,2.27 -7.15,0 -21.76,-2.27 -29.25,-2.27l0 -109.03c0,-14.71 -8.8,-12.75 -21.86,-20.69 -27.41,-16.66 -47.28,-46.52 -47.28,-80.37zm450.76 185.8l0 17.76c-1.91,27.48 -12.8,53.5 -32.43,79.14 -9.25,12.09 -18.79,2.82 -20.03,-2.86 -1.57,-7.15 9.34,-14.83 18.67,-31.74 41.28,-74.78 -14.65,-172.31 -104.49,-172.31 -27.73,0 -60.77,13.46 -80.13,32.89 -11,11.04 -16.61,18.37 -24.03,33.14 -11.19,22.27 -11.51,34.64 -11.51,58.96 0,55.22 53.79,109.03 109.03,109.03 55.57,0 54.98,-14.63 69.14,-14.63 2.1,0 7.98,4.49 7.98,7.98 0,11.96 -7.89,15.63 -28.76,21.77 -33.57,9.87 -69.13,8.14 -100.24,-7.12 -23.54,-11.55 -27.95,-19.96 -39.87,-27.94 -8.05,1.87 -24.72,10.07 -38.56,13.3 0,20.15 1.93,28.18 -6.35,41.52 -5.92,9.53 -17.1,15.66 -32.21,15.66l-78.45 0c-15.66,0 -25.57,-6.36 -32.16,-15.71 -8.28,-11.75 -6.4,-22.63 -6.4,-41.47 -19.42,-4.53 -42.51,-15.47 -58.5,-23.93 -9.68,6.48 -29.48,39.02 -60.43,19.21 -5.15,-3.3 -8.19,-7.37 -12.37,-11.56l-46.54 -46.54c-7.96,-7.95 -16.29,-14.78 -16.29,-30.25 0,-17.23 11.96,-32.31 25.26,-41.22l-13.68 -27.54c-2.64,-6.07 -9.71,-24.52 -10.25,-30.97 -15.21,0 -30.34,0.6 -39.69,-5.52 -9.28,-6.07 -17.49,-15.74 -17.49,-27.72l0 -90.42c0,-9.19 5.17,-17.58 11.43,-23.14 12.61,-11.2 24.91,-10.1 45.75,-10.1 1.28,-15.44 16.16,-43.82 23.93,-58.5 -9.99,-6.69 -25.26,-23.94 -25.26,-37.23 0,-19.44 5.27,-23.22 16.95,-34.9l47.2 -47.2c37.85,-37.88 55.66,-1.61 71.47,8.98 16.47,-8.71 38.4,-19.25 58.5,-23.93 0,-19.18 -1.92,-29.35 6.42,-41.45 6.54,-9.5 16.4,-15.72 32.14,-15.72l81.11 0c13.73,0 24.66,7.47 30.06,16.48 7.75,12.92 5.84,21.55 5.84,40.7 20.55,4.79 41.72,15.05 58.5,23.93 8.59,-5.75 31.1,-39.37 60.43,-19.22 4.95,3.4 7.61,6.81 11.7,10.91 8.08,8.08 15.19,15.19 23.27,23.27 14.7,14.69 40.22,35.12 40.22,51.52 0,29.72 -12.36,26.6 -23.93,43.88 1.18,5.05 4.44,10.24 6.65,14.62 4.42,8.74 15.77,35.66 15.95,43.88l11.97 0c23.61,0 45.21,10.63 45.21,31.91l0 93.08c0,10.08 -6.45,16.35 -10.64,22.6 6.92,4.64 20.76,27.1 24.51,36.65 6.55,16.67 10.33,32.64 11.39,48.1zm-442.78 -312.12c3.76,0 16.54,-6.54 20.89,-8.36 7.28,-3.07 14.46,-5.48 21.92,-7.33 33.54,-8.28 68.52,-7.68 101.28,1.91 13.98,4.09 28.71,11.45 40.19,18.31 6.41,3.84 11.15,7.73 17.09,12.17l15.73 13.53c34.96,34.73 52.83,79.34 52.83,133.32 0,9.63 -1.33,13.32 -1.33,22.6 -13.4,7.09 -23.68,8.23 -39.63,18.88 -37.77,25.22 -61.42,64.43 -61.42,116.75 -9.65,0.8 -17.82,8.47 -27.92,9.31l0 -101.05c15.89,-3.7 35.92,-23.79 45.23,-35.88 30.84,-40.11 29.82,-96.1 0.75,-136.41 -9.55,-13.25 -53.41,-56.34 -65.86,-23.09 -4.84,12.92 0.84,69.64 -1.7,87.39 -5.38,37.7 -56.87,35.44 -56.87,-5.02l0.32 -74.69c-1.2,-10.87 -6.81,-19.72 -18.93,-19.72 -28.67,0 -70.47,54.69 -70.47,94.41 0,33.54 4.44,50.3 21.51,75.55 12.11,17.9 27.86,27.72 46.3,37.47l0 101.05c-15.47,-1.29 -37.32,-15.14 -50.96,-23.5 -29.15,-17.86 -54.06,-51.69 -66.43,-82.49 -22.79,-56.73 -14.09,-127.82 22.79,-174.77 4.53,-5.78 8.73,-10.21 13.3,-15.96 4.83,-6.09 11.35,-8.79 14.9,-14.42 5.91,-9.37 -0.73,-15.97 -10.71,-15.97 -7.35,0 -32.93,32.34 -37.77,39.35 -17.33,25.07 -29,52.99 -33.66,83.35 -11.11,72.51 18.23,147.62 77.31,191.88 51.04,38.25 121.36,51.39 184.78,30.32 6.41,-2.13 10.69,-4.41 16.78,-5.83 0,19.25 12.86,41.29 22.6,55.84 -14.81,7.11 -41.42,11.48 -44.6,17.9 -5.87,11.83 7.05,48.59 -15.24,48.59l-86.43 0c-5.76,0 -10.83,-4.09 -12.47,-8.8 -2.05,-5.89 -0.84,-15.02 -0.82,-21.79 0.1,-22.95 -0.95,-20.78 -19.1,-26.11 -11.7,-3.44 -23.07,-7.54 -32.77,-12.44 -4.69,-2.37 -26.76,-14.63 -30.58,-14.63 -10.61,0 -22.41,27.92 -39.89,27.92 -7.96,0 -22.47,-17.82 -28.26,-23.6 -9.19,-9.19 -17.4,-17.4 -26.59,-26.59 -8.1,-8.1 -23.43,-17.89 -15.42,-32.02 5.47,-9.65 25.06,-21.65 25.06,-30.8 0,-5.46 -4.69,-10.72 -7.11,-15.49 -32.4,-63.8 -10.16,-65.69 -47.4,-65.62 -7.4,0.02 -15.38,0.81 -20.73,-1.87 -5.46,-2.73 -8.52,-7.79 -8.52,-15.41l0 -79.78c0,-17.52 13.87,-17.32 27.92,-17.29 33.51,0.09 20.44,0.93 41.03,-49.39 2.41,-5.88 4.43,-9.66 7.27,-15.34 3.24,-6.47 7.55,-11.9 7.55,-19.04 0,-4.94 -20.67,-21.15 -24.56,-27.31 -9.08,-14.39 6.07,-24.02 14.25,-32.19l39.89 -39.89c5.35,-5.35 9.63,-10.97 18.28,-10.97 12.8,0 29.01,27.92 35.9,27.92 7.33,0 23.71,-10.5 31.02,-14.18 40.42,-20.37 52.94,-5.97 52.76,-37.66 -0.03,-5.59 -0.87,-17.35 0.51,-22.09 1.39,-4.78 7.03,-9.83 12.78,-9.83l86.43 0c16.87,0 13.35,19.21 13.29,30.59 -0.16,28.24 6.01,20.93 36.08,31.73l46.37 21.44c10.61,0 22.41,-27.92 39.89,-27.92 8.39,0 32.14,27.49 38.89,34.24 31.75,31.75 45.58,34.88 21.94,58.5 -18.81,18.8 -19.57,14 -8.51,35.77 32.58,64.16 10.31,65.69 47.41,65.62 17.51,-0.03 29.25,-0.35 29.25,17.28l0 79.78c0,7.96 -2.56,7.94 -3.99,13.3 -9.79,-0.81 -36.23,-29.25 -82.44,-29.25l-21.28 0c0,-28.24 3.88,-35.75 -3.97,-67.83 -6.29,-25.68 -15.38,-46.95 -29.8,-68.59 -3.79,-5.69 -6.3,-8.94 -10.09,-13.84 -2.25,-2.9 -2.99,-3.53 -5.68,-6.29 -3.03,-3.12 -3.27,-4.23 -5.98,-7.32 -13.77,-15.73 -39.36,-31.8 -57.5,-40.9 -46.14,-23.14 -105.17,-25.87 -154.76,-8.49 -9.09,3.18 -17.72,7.17 -25.72,11.51 -9.76,5.29 -7.73,19.58 3.63,19.58z"/>
   <path class="fil0" d="M535.85 535.85c-16.22,0 -10.93,-1.76 -30.39,-17.48 -15.93,-12.87 -18.81,-12.17 -18.81,-26.4 0,-4.94 8.18,-10.64 13.3,-10.64 10.56,0 17.92,17.29 30.58,17.29 5.38,0 23.66,-24.42 27.73,-29.45 4.12,-5.1 8.65,-9.53 12.92,-15 5.1,-6.53 8.78,-12.73 17.85,-12.73 7.55,0 21.03,8.88 7.83,25.11 -3.09,3.8 -5.21,6.17 -8.4,10.22 -1.91,2.43 -2.49,2.76 -4.34,4.97l-12.72 15.2c-5.33,5.99 -29.94,38.9 -35.56,38.9zm-6.65 -62.49c-5.33,-1.42 -6.86,-4.38 -11.51,-7.1 -33.83,-19.84 -69.19,22 -43.97,51.95l17.11 14.8c12.57,10.15 22.43,24.13 41.02,24.13 10.13,0 17.57,-3.66 22.98,-8.93l45.18 -53.22c10.22,-11.47 24.14,-25.58 23.22,-41.31 -1.72,-29.36 -34.59,-42.04 -54.38,-27.09 -5.83,4.41 -9.2,9.7 -14.08,15.17 -3.63,4.08 -24.28,26.74 -25.57,31.6z"/>
  </g>
 </g>
</svg>
