<?xml version="1.0" encoding="UTF-8" standalone="no"?>
<!-- Created with Inkscape (http://www.inkscape.org/) -->

<svg
   width="116.86374"
   height="136.74835"
   viewBox="0 0 30.920197 36.181336"
   version="1.1"
   id="svg719"
   xml:space="preserve"
   inkscape:version="1.2.2 (b0a8486, 2022-12-01)"
   sodipodi:docname="landing-page-001.svg"
   inkscape:export-filename="landing-page-001.pdf"
   inkscape:export-xdpi="96"
   inkscape:export-ydpi="96"
   xmlns:inkscape="http://www.inkscape.org/namespaces/inkscape"
   xmlns:sodipodi="http://sodipodi.sourceforge.net/DTD/sodipodi-0.dtd"
   xmlns="http://www.w3.org/2000/svg"
   xmlns:svg="http://www.w3.org/2000/svg"><sodipodi:namedview
     id="namedview721"
     pagecolor="#ffffff"
     bordercolor="#000000"
     borderopacity="0.25"
     inkscape:showpageshadow="2"
     inkscape:pageopacity="0.0"
     inkscape:pagecheckerboard="0"
     inkscape:deskcolor="#171524"
     inkscape:document-units="mm"
     showgrid="false"
     showguides="true"
     inkscape:zoom="0.45254834"
     inkscape:cx="456.30484"
     inkscape:cy="26.516504"
     inkscape:window-width="2560"
     inkscape:window-height="958"
     inkscape:window-x="0"
     inkscape:window-y="25"
     inkscape:window-maximized="0"
     inkscape:current-layer="layer1" /><defs
     id="defs716" /><g
     inkscape:label="Camada 1"
     inkscape:groupmode="layer"
     id="layer1"
     transform="translate(-414.79606,-805.52189)"><path
       style="display:inline;fill:#f2f2f2;stroke-width:0.999997"
       d="m 443.46566,835.18748 c -1.13392,0.38838 -2.49435,0.14495 -3.41604,-0.61047 -0.23201,-0.19003 -0.52045,-0.5402 -1.07324,-1.30124 -0.57149,-0.78696 -0.7752,-1.0355 -0.84073,-1.01385 -0.0479,0.0119 -0.40157,0.14444 -0.78851,0.28663 -0.41221,0.15166 -1.31838,0.386 -2.18731,0.56569 l -1.48353,0.30683 -1.11034,0.69266 c -1.02862,0.64382 -1.10384,0.7016 -1.04073,0.78856 0.12392,0.17022 0.16778,0.6887 0.0901,1.0737 -0.213,1.06015 -1.45786,1.7678 -2.50798,1.42516 l -0.32939,-0.10738 -3.36955,2.16916 c -3.27288,2.10622 -3.37911,2.17099 -3.70759,2.2231 -0.37452,0.0606 -0.91294,-0.044 -1.22943,-0.23595 -0.16864,-0.10302 -0.70211,-0.80819 -2.8902,-3.82113 -2.95844,-4.0736 -2.85036,-3.89912 -2.7465,-4.50892 0.0277,-0.16393 0.11557,-0.41778 0.19438,-0.56323 0.14143,-0.26128 0.1837,-0.29135 3.43488,-2.43262 l 3.29241,-2.1673 -0.0618,-0.22527 c -0.0942,-0.34165 0.0151,-0.96988 0.23082,-1.34069 0.15554,-0.26724 0.27237,-0.38125 0.59822,-0.58872 0.22249,-0.14175 0.50645,-0.28226 0.63125,-0.31196 0.66458,-0.16041 1.51374,0.0621 1.95819,0.51271 l 0.20824,0.21104 0.54139,-0.38324 c 0.4862,-0.34325 0.56696,-0.42919 0.79302,-0.82338 0.22961,-0.40062 0.2609,-0.54485 0.35036,-1.63341 0.10737,-1.30057 0.2241,-1.75231 0.63274,-2.45583 0.26564,-0.45805 0.85659,-1.1559 1.12727,-1.33227 0.13706,-0.0895 0.13386,-0.10061 -0.10382,-0.36382 -0.32503,-0.36107 -1.31954,-1.05508 -1.81677,-1.26725 -0.21892,-0.0938 -0.72761,-0.26683 -1.13055,-0.38519 -1.73344,-0.51 -2.87402,-1.32548 -3.76512,-2.69204 -0.5134,-0.7876 -0.76332,-1.43868 -0.90727,-2.36517 -0.22883,-1.47168 0.18526,-3.34071 0.83227,-3.75573 0.29651,-0.19003 0.77155,-0.22921 1.1275,-0.0938 l 0.32623,0.12485 1.44671,1.93453 1.44673,1.9345 0.34127,0.11955 c 0.5471,0.19201 0.98867,0.16511 1.43576,-0.0879 0.47069,-0.26723 0.68166,-0.52383 0.79414,-0.96872 0.1734,-0.68538 0.15116,-0.73153 -1.39119,-2.92074 l -1.36414,-1.93586 0.0151,-0.29455 c 0.0197,-0.36342 0.29416,-0.76646 0.63609,-0.93055 0.48217,-0.23122 1.96899,-0.10222 2.93641,0.25533 0.67322,0.24864 1.37016,0.62755 1.93551,1.05185 0.45314,0.33967 0.5556,0.45277 1.14578,1.26096 0.56015,0.76717 0.67558,0.95591 0.83138,1.40335 0.25377,0.714 0.39548,1.70169 0.34443,2.39542 -0.0693,0.93554 -0.0356,1.64654 0.0938,2.17719 0.22924,0.91983 0.40249,1.2571 1.24414,2.42861 l 0.77965,1.07984 0.39314,-0.20864 c 0.50844,-0.27038 0.83639,-0.32819 1.40159,-0.24784 0.63158,0.0902 1.04846,0.34088 1.42755,0.85803 0.24425,0.33414 0.306,0.47279 0.35905,0.81088 0.0586,0.3781 -0.001,0.81029 -0.16825,1.20829 l -0.0688,0.16308 0.37174,0.1944 c 0.30722,0.16108 0.422,0.26405 0.66388,0.59942 0.34997,0.48474 0.44432,0.87343 0.35474,1.46416 l -0.0598,0.39665 0.30523,0.11677 c 1.15709,0.44241 1.70584,1.6864 1.20456,2.73035 -0.0679,0.14209 -0.12777,0.26724 -0.13269,0.27792 -0.003,0.008 0.15956,0.11402 0.36422,0.23001 0.32186,0.18212 0.41082,0.26921 0.65252,0.63886 0.19597,0.29535 0.29534,0.52841 0.33137,0.75653 0.0487,0.31395 0.0966,0.39075 1.03008,1.67614 0.78093,1.07524 1.00255,1.41883 1.10056,1.69905 0.59931,1.7311 -0.29731,3.52717 -2.06215,4.13158 z m 0.91468,-1.91859 c 0.26288,-0.44155 0.37137,-1.18651 0.24347,-1.67212 -0.0874,-0.33137 -0.18606,-0.4953 -0.84492,-1.4027 -0.64461,-0.88753 -0.75588,-1.01517 -0.80879,-0.94156 -0.0315,0.0484 -0.17893,0.18567 -0.32144,0.30721 l -0.25934,0.22131 0.61349,0.84465 c 0.57805,0.79594 0.61545,0.86669 0.66819,1.21252 0.13454,0.90455 -0.66424,1.67943 -1.61003,1.5613 -0.62909,-0.0787 -0.79892,-0.21339 -1.52994,-1.2174 l -0.6372,-0.87489 -0.37413,0.24347 -0.37412,0.24349 0.79184,1.05198 c 0.71151,0.94778 0.8229,1.06915 1.10008,1.22566 0.60065,0.3377 1.47777,0.41732 2.1272,0.19359 0.39391,-0.13589 0.9973,-0.63227 1.21592,-0.99782 z m -1.75478,-1.12693 0.0685,-0.20903 -0.58419,-0.80442 -0.58413,-0.80439 -0.36978,0.24111 -0.36976,0.2411 0.58417,0.80441 0.58419,0.80443 0.23081,0.0119 c 0.12658,0.008 0.26249,-0.008 0.3009,-0.0318 0.0356,-0.0277 0.10096,-0.1394 0.1389,-0.25534 z m -0.3274,-3.71808 c 0.13622,-0.37688 0.0966,-0.71184 -0.11875,-1.00899 -0.25138,-0.346 -0.56842,-0.47938 -1.08051,-0.45466 -0.43128,0.0237 -0.65695,-0.10886 -0.73803,-0.42351 -0.0602,-0.23318 0.0197,-0.3575 0.42055,-0.67132 0.57283,-0.4467 0.7165,-1.00483 0.37849,-1.47044 -0.34165,-0.47047 -0.93908,-0.62389 -1.48375,-0.38086 -0.31751,0.14176 -0.56657,0.0972 -0.73285,-0.13269 -0.19002,-0.26207 -0.11001,-0.47847 0.29693,-0.80708 0.24625,-0.19993 0.36462,-0.34679 0.43082,-0.53822 0.29137,-0.84137 -0.48224,-1.5611 -1.40342,-1.30622 -0.61467,0.16985 -0.97487,-0.0237 -0.88665,-0.47497 0.0356,-0.19835 0.0925,-0.25535 0.48638,-0.51319 0.53551,-0.35037 0.73207,-0.66926 0.69501,-1.12805 -0.0464,-0.55492 -0.51577,-0.93343 -1.15855,-0.93033 -0.27237,10e-4 -0.30247,0.0151 -2.21973,1.26064 -1.06867,0.69302 -2.29282,1.46317 -2.72028,1.71171 -0.73535,0.42879 -0.79599,0.45227 -1.13897,0.45131 -0.23635,-7.5e-4 -0.49027,-0.0674 -0.73101,-0.19161 -0.31911,-0.1646 -0.41499,-0.25378 -0.7139,-0.66571 -0.39594,-0.54506 -0.38599,-0.54435 -0.84513,-0.0356 -0.68497,0.75742 -0.90569,1.40144 -1.0353,3.01813 -0.12074,1.5082 -0.43035,2.09552 -1.51348,2.87562 l -0.59202,0.42524 2.51917,3.46883 2.51919,3.46885 0.93586,-0.60979 c 0.51474,-0.33533 1.09113,-0.67137 1.28119,-0.74593 0.18964,-0.0747 0.98726,-0.27316 1.77176,-0.44093 1.47545,-0.31554 2.37881,-0.59711 3.23482,-1.00896 0.72904,-0.35077 0.99956,-0.51351 2.60602,-1.56783 1.38474,-0.91102 1.46012,-0.96896 1.53617,-1.17383 z m -11.76977,7.55774 c 0.059,-0.12511 0.10096,-0.33969 0.0931,-0.4769 -0.0151,-0.24346 -0.0903,-0.35394 -3.14581,-4.56125 -2.97969,-4.10352 -3.14117,-4.31894 -3.37338,-4.43082 -0.67921,-0.33216 -1.48261,0.20666 -1.40371,0.94102 0.0237,0.21259 0.22646,0.51755 2.0989,3.14786 2.01582,2.83335 2.07192,2.91697 2.01876,3.06828 -0.07,0.19874 -0.29099,0.34246 -0.51206,0.33374 -0.16777,-0.008 -0.23161,-0.0861 -2.08792,-2.58652 l -1.91503,-2.57935 -3.17538,2.05147 -3.1754,2.05141 -0.074,0.25457 -0.0741,0.25456 2.61638,3.60263 2.6164,3.60271 0.24744,0.0618 0.24703,0.0618 3.20508,-2.08834 3.20504,-2.0884 -0.38324,-0.56024 c -0.36423,-0.52758 -0.37888,-0.57243 -0.31553,-0.76694 0.0853,-0.25931 0.20548,-0.33848 0.48497,-0.32067 0.20905,0.008 0.24388,0.0444 0.7506,0.69139 0.42851,0.54558 0.57891,0.69927 0.77476,0.78788 0.46336,0.20905 1.07054,-0.003 1.28017,-0.44651 z m 0.23438,-17.24685 -1.18663,-1.63395 -0.0558,-0.3943 c -0.07,-0.49378 0.11557,-0.93334 0.53485,-1.26708 0.2423,-0.19321 0.34997,-0.23675 0.70942,-0.27912 0.63114,-0.0763 0.99468,0.0761 1.42098,0.59591 0.29891,0.36699 0.33098,0.43054 0.29853,0.60252 -0.0237,0.12167 -0.10967,0.23991 -0.2328,0.31987 -0.27436,0.17815 -0.57529,0.0817 -0.82743,-0.26525 -0.21814,-0.30048 -0.48383,-0.38876 -0.7167,-0.23673 -0.0779,0.051 -0.15786,0.17419 -0.17734,0.27475 -0.0319,0.17341 0.0151,0.25415 1.11887,1.77161 l 1.15447,1.58972 0.36977,-0.2411 0.36978,-0.24112 -0.34681,-0.47768 c -0.41918,-0.57742 -0.44895,-0.82973 -0.12275,-1.04243 0.34404,-0.22448 0.52037,-0.14091 0.95088,0.45215 l 0.37174,0.51192 0.36978,-0.24108 0.37017,-0.2411 -0.59662,-0.82193 c -0.32822,-0.45199 -0.72696,-1.0585 -0.88598,-1.34788 -0.62383,-1.13337 -0.91832,-2.4006 -0.83302,-3.58532 0.0982,-1.36019 0.0421,-1.84545 -0.32979,-2.75435 -0.29018,-0.71258 -1.04872,-1.6968 -1.65373,-2.14531 -0.52668,-0.39038 -1.30999,-0.769 -1.97649,-0.95513 -0.73585,-0.20547 -1.80073,-0.25613 -1.81653,-0.0863 -10e-4,0.008 0.60976,0.89077 1.3565,1.95422 l 1.35778,1.93365 0.0799,0.44187 c 0.0982,0.54138 -0.0464,1.24489 -0.35511,1.74649 -0.19439,0.31436 -0.29178,0.40415 -0.79058,0.72942 -0.49815,0.32463 -0.62235,0.37886 -0.9992,0.43797 -0.60026,0.0945 -1.2824,-0.0151 -1.81464,-0.30169 l -0.44198,-0.23435 -1.40572,-1.87802 c -0.77326,-1.03278 -1.43771,-1.88373 -1.47732,-1.89035 -0.13095,-0.0237 -0.2617,0.28268 -0.41502,0.96785 -0.24864,1.113 -0.17538,2.01961 0.24822,3.06035 0.1841,0.45242 0.30802,0.65458 0.72089,1.17429 0.78745,0.99214 1.67731,1.5616 3.01221,1.92744 1.81719,0.49802 2.79622,1.189 4.15246,2.93068 0.40621,0.52119 0.79395,0.97615 0.86185,1.01084 0.1525,0.0776 0.38165,0.0319 0.62868,-0.12166 l 0.18687,-0.11758 z"
       id="path19266-3" /></g></svg>
