<?xml version="1.0" encoding="UTF-8" standalone="no"?>
<!-- Created with Inkscape (http://www.inkscape.org/) -->

<svg
   width="112.12134"
   height="109.67574"
   viewBox="0 0 29.665437 29.018372"
   version="1.1"
   id="svg719"
   xml:space="preserve"
   inkscape:version="1.2.2 (b0a8486, 2022-12-01)"
   sodipodi:docname="landing-page-001.svg"
   inkscape:export-filename="landing-page-001.pdf"
   inkscape:export-xdpi="96"
   inkscape:export-ydpi="96"
   xmlns:inkscape="http://www.inkscape.org/namespaces/inkscape"
   xmlns:sodipodi="http://sodipodi.sourceforge.net/DTD/sodipodi-0.dtd"
   xmlns="http://www.w3.org/2000/svg"
   xmlns:svg="http://www.w3.org/2000/svg"><sodipodi:namedview
     id="namedview721"
     pagecolor="#ffffff"
     bordercolor="#000000"
     borderopacity="0.25"
     inkscape:showpageshadow="2"
     inkscape:pageopacity="0.0"
     inkscape:pagecheckerboard="0"
     inkscape:deskcolor="#171524"
     inkscape:document-units="mm"
     showgrid="false"
     showguides="true"
     inkscape:zoom="0.45254834"
     inkscape:cx="456.30484"
     inkscape:cy="26.516504"
     inkscape:window-width="2560"
     inkscape:window-height="958"
     inkscape:window-x="0"
     inkscape:window-y="25"
     inkscape:window-maximized="0"
     inkscape:current-layer="layer1" /><defs
     id="defs716" /><g
     inkscape:label="Camada 1"
     inkscape:groupmode="layer"
     id="layer1"
     transform="translate(-280.81482,-800.3535)"><path
       style="display:inline;fill:#f2f2f2;stroke-width:0.999997"
       d="m 299.33506,829.34139 c -0.86541,-0.0705 -1.41191,-0.23953 -3.82884,-1.1835 -1.66843,-0.65157 -2.35182,-0.94506 -2.44577,-1.05037 -0.27474,-0.30799 -0.10645,-0.82426 0.30167,-0.92679 0.1631,-0.0408 0.0823,-0.07 3.21936,1.15464 0.9405,0.36699 1.91865,0.71171 2.17368,0.7659 0.66543,0.14126 1.76377,0.13269 2.43449,-0.0197 0.28704,-0.065 2.05853,-0.51145 3.93684,-0.99199 2.36735,-0.60569 3.47468,-0.91397 3.60922,-1.00496 0.54793,-0.37056 0.7435,-1.09137 0.46071,-1.6986 -0.22883,-0.49123 -0.67506,-0.78015 -1.20508,-0.78015 -0.15638,0 -1.64674,0.31157 -3.31137,0.69301 -1.66464,0.38126 -3.22221,0.72351 -3.46133,0.76074 -0.6733,0.10497 -1.87585,0.0397 -2.5794,-0.14411 -0.3191,-0.0823 -1.93598,-0.67109 -3.59381,-1.30821 -3.25693,-1.2518 -3.27499,-1.26103 -3.27499,-1.67255 0,-0.27238 0.12115,-0.44694 0.36582,-0.52769 0.23002,-0.0755 0.15116,-0.10142 2.6416,0.85946 1.61962,0.625 1.85818,0.70193 2.17677,0.70193 0.89285,0 1.55809,-0.75218 1.46476,-1.65625 -0.0396,-0.37413 -0.24901,-0.76797 -0.52106,-0.97557 -0.10325,-0.0787 -1.51535,-0.69264 -3.13794,-1.36412 l -2.9501,-1.22086 h -2.71515 -2.71518 v 3.27495 3.27502 h 1.27002 1.27009 l 0.15,0.17815 c 0.20982,0.24982 0.2027,0.53146 -0.0198,0.75355 l -0.16945,0.16944 h -1.25067 -1.25072 l -5e-5,0.30405 c -1.5e-4,0.3587 -0.14259,0.6783 -0.34759,0.78087 -0.10852,0.0542 -0.73094,0.0724 -2.48378,0.0733 l -2.33885,8.7e-4 -0.19715,-0.19717 -0.19717,-0.19715 v -5.27965 -5.27962 l 0.16946,-0.18963 0.16904,-0.18924 2.35159,-0.0151 c 2.62267,-0.0151 2.63233,-0.0151 2.79243,0.3662 0.0451,0.10852 0.0823,0.38046 0.0823,0.60473 v 0.40763 h 2.81856 2.81855 l 2.96337,1.22412 c 1.62987,0.67325 3.09074,1.28842 3.24639,1.36704 0.60914,0.30761 1.0877,0.9325 1.28023,1.67163 0.23121,0.88836 -0.0277,1.80801 -0.70731,2.51479 -0.16661,0.1734 -0.29732,0.31948 -0.28981,0.32503 0.11836,0.0853 0.98706,0.22169 1.54959,0.24387 0.88658,0.0356 0.87521,0.0356 4.65426,-0.82997 2.05993,-0.4725 2.992,-0.66205 3.25532,-0.66205 0.94412,0 1.8486,0.5676 2.2669,1.42253 0.59353,1.21311 0.0668,2.73728 -1.14878,3.32453 -0.24507,0.11835 -1.4685,0.45565 -3.7819,1.04278 -4.12215,1.04621 -4.10322,1.04174 -4.62574,1.08111 -0.22961,0.0151 -0.50844,0.0397 -0.62006,0.0491 -0.11172,0.0119 -0.43763,-10e-4 -0.72452,-0.0237 z m -14.1143,-8.45979 v -4.52122 h -1.62301 -1.623 v 4.52122 4.52118 h 1.623 1.62301 z m 5.40841,5.3087 c -0.13505,-0.1161 -0.16276,-0.18567 -0.16276,-0.41073 0,-0.22526 0.0277,-0.29455 0.16276,-0.41079 0.32937,-0.28344 0.86498,-0.11808 0.94169,0.29019 0.0416,0.22132 -0.0847,0.51718 -0.26052,0.61143 -0.19834,0.10612 -0.50667,0.07 -0.68107,-0.0804 z m 9.8362,-8.47754 c -0.30643,-0.11956 -0.46764,-0.48334 -0.34524,-0.77928 0.1181,-0.28466 0.53565,-0.42945 0.81199,-0.2815 0.14057,0.0753 0.28663,0.35317 0.28663,0.54517 0,0.30285 -0.47171,0.62562 -0.7535,0.51563 z m 2.00526,-1.38154 c -0.23676,-0.12551 -0.3203,-0.25614 -0.32226,-0.50479 -10e-4,-0.18093 0.0502,-0.27358 0.32424,-0.57964 1.19346,-1.33461 1.85593,-2.67523 2.14209,-4.33504 0.11835,-0.68847 0.0851,-2.29027 -0.0622,-2.95621 -0.71702,-3.24324 -3.22105,-5.68897 -6.47701,-6.32613 -0.83189,-0.16274 -2.01072,-0.17261 -2.85549,-0.0237 -2.96962,0.52346 -5.42041,2.63257 -6.36812,5.48037 -0.29139,0.87561 -0.35552,1.33683 -0.35552,2.55042 0,0.62165 0.0197,1.20464 0.0458,1.29555 l 0.0458,0.16509 0.23001,-0.32106 c 0.1263,-0.17658 0.28823,-0.3393 0.35949,-0.36226 0.26564,-0.0843 0.47351,-0.0356 0.63734,0.1468 0.27675,0.30919 0.23358,0.45378 -0.42626,1.42769 -0.32186,0.47547 -0.63798,0.91012 -0.70201,0.96593 -0.0721,0.0625 -0.20704,0.10061 -0.3563,0.0987 -0.34324,-0.003 -1.9903,-0.97972 -2.13298,-1.26351 -0.12075,-0.24033 -0.0594,-0.50158 0.16393,-0.69624 0.19676,-0.17182 0.4737,-0.1468 0.82454,0.0747 l 0.24466,0.15436 -0.0466,-0.36503 c -0.0237,-0.20071 -0.0444,-0.86063 -0.0421,-1.46631 0.003,-1.21228 0.0957,-1.80537 0.42945,-2.80039 1.11968,-3.34193 3.99504,-5.73459 7.53592,-6.27062 0.71027,-0.1076 2.07289,-0.0811 2.86332,0.0551 3.5921,0.62045 6.49106,3.29134 7.39477,6.81301 0.25102,0.97841 0.31199,1.5747 0.27397,2.67955 -0.0747,2.17151 -0.7998,4.03293 -2.22847,5.71958 -0.57936,0.68391 -0.81348,0.816 -1.13967,0.64314 z m -7.91761,-0.92105 c -0.52603,-0.18765 -1.0036,-0.43919 -1.47808,-0.77868 -1.04502,-0.74766 -1.1631,-1.03041 -0.66879,-1.60154 0.38443,-0.44425 0.37412,-0.9184 -0.0277,-1.30835 l -0.20785,-0.20114 h -0.61963 c -0.34086,0 -0.65239,-0.0197 -0.69246,-0.0471 -0.2605,-0.16866 -0.4485,-1.20402 -0.39669,-2.18449 0.0776,-1.46835 0.31356,-1.85654 1.01841,-1.67585 0.36423,0.0934 0.652,0.0316 0.89212,-0.19675 0.41793,-0.39432 0.40967,-0.9051 -0.0237,-1.40477 -0.41661,-0.48141 -0.29811,-0.76051 0.6087,-1.43398 0.70267,-0.52182 1.80279,-1.02726 2.23586,-1.02726 0.23755,0 0.44123,0.19834 0.55117,0.53687 0.1742,0.53553 0.48767,0.76728 0.98283,0.72623 0.48746,-0.0403 0.63157,-0.18488 0.90085,-0.90355 0.074,-0.19756 0.30723,-0.35948 0.51797,-0.35948 0.18962,0 0.7991,0.21971 1.29885,0.46902 0.83099,0.41419 1.67089,1.10306 1.7315,1.42016 0.0396,0.20193 -0.0666,0.47302 -0.24507,0.63213 -0.19437,0.1734 -0.29177,0.4001 -0.29177,0.67925 0,0.34641 0.1651,0.62467 0.46443,0.78305 0.27831,0.14678 0.48767,0.16393 0.81556,0.0658 0.26009,-0.0776 0.53426,0.008 0.66241,0.20545 0.17814,0.27554 0.27513,1.05744 0.24465,1.96971 -0.0356,1.00927 -0.12975,1.44535 -0.36303,1.64574 -0.1473,0.12631 -0.18924,0.13269 -0.68616,0.0989 -0.47105,-0.0315 -0.55031,-0.0237 -0.71837,0.0831 -0.27159,0.17144 -0.41925,0.44428 -0.41949,0.77612 -2.3e-4,0.31951 0.0547,0.44532 0.32663,0.74988 0.15519,0.1734 0.19437,0.26643 0.19437,0.46047 0,0.21734 -0.0319,0.27435 -0.30721,0.54043 -0.5263,0.50973 -1.28536,0.97014 -2.11338,1.2818 -0.69908,0.26328 -1.03651,0.14763 -1.19858,-0.40976 -0.10382,-0.35669 -0.31672,-0.57128 -0.6728,-0.67796 -0.46292,-0.13857 -0.97984,0.17815 -1.10566,0.6777 -0.13856,0.54922 -0.48629,0.66669 -1.21029,0.40849 z m 0.42829,-1.42507 c 0.2708,-0.37729 0.71969,-0.67006 1.21346,-0.79187 0.6699,-0.16544 1.33414,0.0151 1.87528,0.5164 0.14294,0.13147 0.29734,0.31237 0.34365,0.40176 0.0835,0.16159 0.0853,0.16192 0.29968,0.0729 0.23201,-0.0963 0.71049,-0.37492 0.93658,-0.54547 l 0.13891,-0.10497 -0.13941,-0.28229 c -0.11955,-0.24227 -0.1389,-0.365 -0.13822,-0.8619 0.001,-0.6874 0.10611,-0.97266 0.51526,-1.41031 0.33454,-0.35788 0.7798,-0.58302 1.25574,-0.63553 l 0.37096,-0.0408 0.0319,-0.3769 c 0.0151,-0.20704 0.0197,-0.53636 0.008,-0.73141 l -0.0198,-0.35473 -0.34364,-0.0356 c -0.70367,-0.0736 -1.3613,-0.54232 -1.66261,-1.18512 -0.13385,-0.28582 -0.15434,-0.40447 -0.15401,-0.88086 3.8e-4,-0.45141 0.0237,-0.60292 0.13419,-0.84049 l 0.13336,-0.28981 -0.19201,-0.16106 c -0.10566,-0.0887 -0.38244,-0.25812 -0.61546,-0.37687 l -0.4236,-0.21578 -0.12392,0.1738 c -0.22805,0.31989 -0.58454,0.62389 -0.90967,0.77636 -0.27594,0.12949 -0.40041,0.15132 -0.87273,0.15132 -0.48552,0 -0.58973,-0.0197 -0.88046,-0.16192 -0.30405,-0.1493 -0.91643,-0.72202 -0.91643,-0.85708 0,-0.0315 -0.0356,-0.053 -0.0787,-0.053 -0.0974,0 -0.67834,0.30601 -1.0019,0.52797 l -0.24032,0.16459 0.1342,0.33455 c 0.0736,0.18409 0.15167,0.45556 0.17341,0.60318 0.0458,0.31474 -0.0523,0.85292 -0.21458,1.17194 -0.29297,0.57632 -0.9654,1.04148 -1.61175,1.11464 -0.40012,0.0451 -0.40461,0.054 -0.40461,0.77789 0,0.72585 0.003,0.73587 0.39472,0.76457 0.70196,0.0519 1.32416,0.50276 1.65187,1.19749 0.15754,0.33452 0.18173,0.44691 0.17896,0.84928 -10e-4,0.37727 -0.0316,0.52736 -0.15922,0.80584 -0.0863,0.18806 -0.14965,0.34641 -0.14124,0.35195 0.008,0.003 0.10645,0.0733 0.21813,0.15083 0.15435,0.10737 0.97117,0.56502 1.02352,0.57384 0.003,8.7e-4 0.10256,-0.1283 0.21653,-0.28703 z m 1.02082,-2.007 c -0.6215,-0.16627 -1.28821,-0.69757 -1.57092,-1.2518 -0.57872,-1.13435 -0.20982,-2.56586 0.83466,-3.2411 0.45276,-0.29255 0.87605,-0.4141 1.42749,-0.40975 0.98315,0.008 1.79378,0.53628 2.22793,1.45259 0.17141,0.36107 0.18171,0.42354 0.18171,1.05053 0,0.63331 -0.0119,0.68566 -0.18687,1.04846 -0.53521,1.0937 -1.75771,1.66046 -2.9142,1.35107 z m 1.06192,-1.1285 c 0.27633,-0.0768 0.64728,-0.40628 0.80628,-0.71639 0.14495,-0.28268 0.15988,-0.77793 0.0356,-1.07633 -0.45971,-1.07785 -1.93154,-1.13783 -2.44882,-0.0998 -0.5315,1.06664 0.44594,2.21576 1.60979,1.89254 z"
       id="path19302" /></g></svg>
