<?xml version="1.0" encoding="UTF-8" standalone="no"?>
<!-- Created with Inkscape (http://www.inkscape.org/) -->

<svg
   width="154.05946"
   height="125.69212"
   viewBox="0 0 40.761566 33.256042"
   version="1.1"
   id="svg719"
   xml:space="preserve"
   inkscape:version="1.2.2 (b0a8486, 2022-12-01)"
   sodipodi:docname="landing-page-001.svg"
   xmlns:inkscape="http://www.inkscape.org/namespaces/inkscape"
   xmlns:sodipodi="http://sodipodi.sourceforge.net/DTD/sodipodi-0.dtd"
   xmlns="http://www.w3.org/2000/svg"
   xmlns:svg="http://www.w3.org/2000/svg"><sodipodi:namedview
     id="namedview721"
     pagecolor="#ffffff"
     bordercolor="#000000"
     borderopacity="0.25"
     inkscape:showpageshadow="2"
     inkscape:pageopacity="0.0"
     inkscape:pagecheckerboard="0"
     inkscape:deskcolor="#171524"
     inkscape:document-units="mm"
     showgrid="false"
     showguides="true"
     inkscape:zoom="0.45254834"
     inkscape:cx="797.70484"
     inkscape:cy="4423.8368"
     inkscape:window-width="2560"
     inkscape:window-height="1056"
     inkscape:window-x="0"
     inkscape:window-y="24"
     inkscape:window-maximized="0"
     inkscape:current-layer="layer1" /><defs
     id="defs716" /><g
     inkscape:label="Camada 1"
     inkscape:groupmode="layer"
     id="layer1"
     transform="translate(-293.99283,-409.17452)"><path
       style="fill:#f8f8f8;fill-opacity:1;stroke-width:0.999999"
       d="m 295.15905,442.37416 c -0.67717,-0.20396 -1.16621,-0.88761 -1.16621,-1.63027 0,-0.54893 0.31457,-1.17648 0.7263,-1.44895 l 0.30867,-0.20428 v -9.14282 -9.14281 l -0.22936,-0.11861 c -0.87623,-0.45312 -1.08598,-1.90595 -0.38384,-2.65868 0.0964,-0.10338 0.30825,-0.25613 0.4707,-0.33944 0.273,-0.14 0.49743,-0.15148 2.96332,-0.15148 h 2.66794 l 0.0221,-3.77583 c 0.0216,-3.67155 0.0267,-3.78191 0.1863,-3.99561 0.0903,-0.12088 0.26306,-0.29364 0.38396,-0.38392 0.21679,-0.16188 0.30163,-0.16444 6.14728,-0.18554 l 5.92746,-0.0214 0.1969,0.19691 c 0.25045,0.25045 0.25102,0.55534 0.002,0.80485 l -0.1954,0.19542 h -5.73573 -5.73572 v 14.33025 14.33026 h 0.83593 0.83594 v -13.12428 -13.12431 l 0.18152,-0.26934 c 0.0998,-0.14815 0.27,-0.31413 0.37815,-0.36887 0.15423,-0.078 2.40283,-0.0997 10.42685,-0.10037 10.00713,-8.8e-4 10.23578,0.003 10.48509,0.15453 0.54044,0.32952 0.50145,-0.73828 0.50145,13.73243 v 13.10022 h 0.83592 0.83594 v -14.33026 -14.33025 h -5.73573 -5.73572 l -0.19541,-0.19542 c -0.24953,-0.24952 -0.24896,-0.55441 0.002,-0.80485 l 0.19691,-0.19691 5.92746,0.0214 c 5.84566,0.0211 5.9305,0.0237 6.14727,0.18555 0.12091,0.0903 0.29369,0.26304 0.38397,0.38391 0.15961,0.21371 0.16475,0.32407 0.18629,3.99562 l 0.0222,3.77583 h 2.66794 c 2.46588,0 2.69031,0.0115 2.96332,0.15148 0.16245,0.0833 0.37427,0.23606 0.4707,0.33944 0.70214,0.75273 0.49239,2.20556 -0.38384,2.65868 l -0.22935,0.11861 v 6.22982 c 0,6.9751 0.0327,6.58371 -0.54947,6.58371 -0.55631,0 -0.60103,-0.12465 -0.63127,-1.75966 l -0.0264,-1.42484 h -2.14309 -2.14309 v 4.29908 4.29907 h 2.14387 2.14388 l 0.0256,-1.70349 c 0.0232,-1.54248 0.0399,-1.71931 0.17722,-1.87089 0.19795,-0.2185 0.62901,-0.22268 0.84351,-0.008 0.14951,0.14951 0.15922,0.26538 0.15922,1.90013 v 1.74089 l 0.30867,0.20427 c 0.9772,0.64668 0.9441,2.31415 -0.0576,2.90302 l -0.37047,0.21779 -19.10701,0.0134 c -10.50886,0.007 -19.20916,-0.0174 -19.33402,-0.055 z m 38.25564,-1.24455 c 0.17994,-0.16284 0.19164,-0.60694 0.0205,-0.77809 -0.11304,-0.11303 -1.95275,-0.12512 -19.06152,-0.12512 -17.10878,0 -18.94849,0.0121 -19.06152,0.12512 -0.16366,0.16365 -0.16003,0.58008 0.007,0.76425 0.12695,0.14027 0.82315,0.1456 19.04104,0.1456 17.48356,0 18.92025,-0.01 19.05487,-0.13176 z m -32.89362,-6.39646 v -4.29908 h -2.14954 -2.14954 v 4.29908 4.29907 h 2.14954 2.14954 z m 8.12049,-0.3172 v -4.61627 l 0.2323,-0.26 0.23231,-0.25999 h 5.26748 5.2675 l 0.2323,0.25999 0.23231,0.26 v 4.61627 4.61627 h 2.03012 2.03012 v -7.68262 -7.68261 h -9.79235 -9.79234 v 7.68261 7.68262 h 2.03012 2.03013 z m 0.20976,-6.21682 c -0.15214,-0.11967 -0.20976,-0.23837 -0.20976,-0.43209 0,-0.19371 0.0576,-0.31242 0.20976,-0.43208 0.20745,-0.16319 0.26831,-0.16501 5.52233,-0.16501 5.25404,0 5.31489,0.002 5.52234,0.16501 0.2901,0.22819 0.2901,0.63598 0,0.86417 -0.20745,0.16319 -0.2683,0.16501 -5.52234,0.16501 -5.25402,0 -5.31488,-0.002 -5.52233,-0.16501 z m 4.94584,6.55392 -0.0206,-4.27918 -1.9704,-0.0213 -1.97041,-0.0213 v 4.30048 4.30046 h 1.991 1.99101 z m 5.11441,-0.0213 v -4.30046 l -1.97041,0.0213 -1.97041,0.0213 -0.0206,4.27918 -0.0206,4.27917 h 1.99101 1.991 z m -21.17693,-9.67153 v -4.17966 h -0.75633 -0.75632 v 4.17966 4.17966 h 0.75632 0.75633 z m 2.78643,-0.003 v -4.18254 l -0.77622,0.0228 -0.77623,0.0228 -0.0206,4.15975 -0.0206,4.15976 h 0.79684 0.79683 v -4.18295 z m 29.27822,0.0228 -0.0206,-4.15975 -0.77623,-0.0228 -0.77622,-0.0228 v 4.18254 4.18255 h 0.79684 0.79683 z m 2.72603,-0.0199 v -4.17967 h -0.75632 -0.75632 v 4.17967 4.17965 h 0.75632 0.75632 z m -8.35932,-3.34373 v -0.83594 h -9.79235 -9.79234 v 0.83594 0.83593 h 9.79234 9.79235 z m -23.64493,-2.5078 v -0.55728 l -2.44809,8.7e-4 c -2.83303,0.002 -2.84614,0.004 -2.84614,0.55612 0,0.5522 0.0131,0.55476 2.84614,0.55612 l 2.44809,8.7e-4 z m 23.64493,-2.70682 v -3.26411 h -9.79235 -9.79234 v 3.26411 3.26411 h 9.79234 9.79235 z m -16.55661,2.15476 c -0.11174,-0.20878 -0.10983,-3.74414 0.002,-4.03876 0.10177,-0.2677 0.20632,-0.34232 0.48186,-0.34394 0.30718,-0.002 0.57842,0.25276 0.91132,0.85532 0.45845,0.82974 0.41235,0.82519 0.84009,0.083 0.20949,-0.36348 0.45832,-0.72358 0.55296,-0.80021 0.22933,-0.1857 0.59496,-0.17651 0.79135,0.0199 0.15083,0.15083 0.15923,0.26538 0.15923,2.17342 0,1.46045 -0.0263,2.04047 -0.0955,2.10974 -0.1065,0.1065 -0.60721,0.12713 -0.75814,0.0312 -0.0682,-0.0433 -0.10396,-0.42998 -0.11941,-1.29113 l -0.0221,-1.22928 -0.34191,0.57584 c -0.29844,0.50263 -0.3711,0.57583 -0.57158,0.57583 -0.20288,0 -0.26516,-0.0658 -0.53383,-0.5635 l -0.30415,-0.56352 -0.0221,1.17501 c -0.0132,0.70097 -0.0573,1.21738 -0.10926,1.28003 -0.048,0.0578 -0.24272,0.10501 -0.43286,0.10501 -0.26031,0 -0.36606,-0.038 -0.42811,-0.154 z m 4.27637,0.0701 c -0.0766,-0.0458 -0.13932,-0.15953 -0.13932,-0.25282 0,-0.0933 0.25456,-1.01404 0.5657,-2.04608 0.38141,-1.26518 0.61769,-1.92181 0.72533,-2.01574 0.17401,-0.15188 0.69824,-0.1881 0.92966,-0.0643 0.0973,0.0521 0.33189,0.69837 0.76514,2.10784 0.615,2.00075 0.62249,2.03536 0.47558,2.19768 -0.11237,0.12417 -0.22667,0.15907 -0.46253,0.14121 -0.30532,-0.0231 -0.31662,-0.0348 -0.44459,-0.46157 l -0.13132,-0.43787 -0.65027,-0.0231 -0.65028,-0.0231 -0.0853,0.3415 c -0.0469,0.18784 -0.11499,0.39525 -0.1513,0.46093 -0.0794,0.14371 -0.55209,0.19138 -0.7465,0.0753 z m 2.07003,-1.68743 c -0.0203,-0.0547 -0.11976,-0.41555 -0.22111,-0.80181 -0.10793,-0.41134 -0.20795,-0.65871 -0.24143,-0.5971 -0.0662,0.12183 -0.39339,1.30263 -0.39339,1.4197 0,0.0433 0.20087,0.0787 0.44638,0.0787 0.32369,0 0.43626,-0.0273 0.40955,-0.0995 z m 1.80801,1.67265 c -0.0217,-0.0566 -0.0299,-1.05077 -0.0181,-2.2094 l 0.0213,-2.1066 0.21893,-0.077 c 0.14091,-0.0495 0.29696,-0.0495 0.43787,-2e-5 l 0.21893,0.077 0.0214,1.80931 0.0214,1.80932 h 0.79311 c 0.77063,0 0.79448,0.005 0.84104,0.19094 0.0264,0.10501 0.036,0.27518 0.0214,0.37815 -0.0264,0.18645 -0.0317,0.18733 -1.28212,0.20917 -0.96846,0.0169 -1.26464,-0.002 -1.29506,-0.0808 z m 3.07096,-0.0552 c -0.0505,-0.0944 -0.0824,-0.9248 -0.0824,-2.14502 0,-1.96723 0.002,-1.99251 0.17694,-2.11496 0.0973,-0.0681 0.25056,-0.12394 0.34054,-0.12394 0.09,0 0.24322,0.0558 0.34054,0.12394 0.1737,0.12166 0.17694,0.15588 0.17694,1.87088 v 1.74697 h 0.74039 c 0.7846,0 0.93148,0.058 0.93148,0.36767 0,0.42645 -0.006,0.42845 -1.31933,0.42845 -1.12734,0 -1.2291,-0.012 -1.30509,-0.15399 z m 14.48668,1.00631 c 0.1673,-0.0846 0.19904,-0.15706 0.19904,-0.45426 0,-0.55218 -0.0132,-0.55475 -2.84615,-0.5561 l -2.44809,-8.8e-4 v 0.55729 0.55729 l 2.44809,-8.7e-4 c 1.81376,-8.8e-4 2.49965,-0.0273 2.64711,-0.10186 z"
       id="path24910"
       inkscape:export-filename="Icons/mall.svg"
       inkscape:export-xdpi="96"
       inkscape:export-ydpi="96" /></g></svg>
