<?xml version="1.0" encoding="UTF-8" standalone="no"?>
<!-- Created with Inkscape (http://www.inkscape.org/) -->

<svg
   width="52.289734"
   height="52.298149"
   viewBox="0 0 13.834992 13.837219"
   version="1.1"
   id="svg719"
   xml:space="preserve"
   inkscape:version="1.2.2 (b0a8486, 2022-12-01)"
   sodipodi:docname="landing-page-001.svg"
   xmlns:inkscape="http://www.inkscape.org/namespaces/inkscape"
   xmlns:sodipodi="http://sodipodi.sourceforge.net/DTD/sodipodi-0.dtd"
   xmlns="http://www.w3.org/2000/svg"
   xmlns:svg="http://www.w3.org/2000/svg"><sodipodi:namedview
     id="namedview721"
     pagecolor="#ffffff"
     bordercolor="#000000"
     borderopacity="0.25"
     inkscape:showpageshadow="2"
     inkscape:pageopacity="0.0"
     inkscape:pagecheckerboard="0"
     inkscape:deskcolor="#171524"
     inkscape:document-units="mm"
     showgrid="false"
     showguides="true"
     inkscape:zoom="0.45254834"
     inkscape:cx="797.70484"
     inkscape:cy="4423.8368"
     inkscape:window-width="2560"
     inkscape:window-height="1056"
     inkscape:window-x="0"
     inkscape:window-y="24"
     inkscape:window-maximized="0"
     inkscape:current-layer="layer1" /><defs
     id="defs716" /><g
     inkscape:label="Camada 1"
     inkscape:groupmode="layer"
     id="layer1"
     transform="translate(-424.61057,-540.38127)"><path
       style="fill:#f8f8f8;fill-opacity:1;stroke-width:1"
       d="m 431.12798,554.14646 c -0.23755,-0.0847 -0.4889,-0.30447 -0.62091,-0.54293 -0.0789,-0.1425 -0.0931,-0.46613 -0.1169,-2.65104 l -0.0271,-2.48872 -2.48873,-0.0271 c -2.7611,-0.03 -2.65275,-0.0155 -2.99172,-0.40152 -0.47321,-0.53897 -0.30863,-1.39916 0.33519,-1.75182 0.14882,-0.0815 0.44941,-0.095 2.65653,-0.11897 l 2.48873,-0.0271 0.0271,-2.48873 c 0.03,-2.7611 0.0155,-2.65275 0.40153,-2.99172 0.41841,-0.36736 1.05085,-0.36736 1.46926,0 0.38606,0.33897 0.37151,0.23062 0.40153,2.99172 l 0.0271,2.48873 2.48872,0.0271 c 2.76111,0.03 2.65276,0.0155 2.99172,0.40153 0.36737,0.4184 0.36737,1.05085 0,1.46926 -0.33896,0.38605 -0.23061,0.37151 -2.99172,0.40152 l -2.48872,0.0271 -0.0271,2.48872 c -0.03,2.76111 -0.0155,2.65276 -0.40153,2.99172 -0.30937,0.27163 -0.72848,0.34645 -1.13298,0.20225 z"
       id="path21150"
       sodipodi:nodetypes="ssscsssscsssscsssscsss" /></g></svg>
