<?xml version="1.0" encoding="UTF-8" standalone="no"?>
<!-- Created with Inkscape (http://www.inkscape.org/) -->

<svg
   width="114.76913"
   height="105.09988"
   viewBox="0 0 30.365998 27.807678"
   version="1.1"
   id="svg719"
   xml:space="preserve"
   inkscape:version="1.2.2 (b0a8486, 2022-12-01)"
   sodipodi:docname="landing-page-001.svg"
   inkscape:export-filename="landing-page-001.pdf"
   inkscape:export-xdpi="96"
   inkscape:export-ydpi="96"
   xmlns:inkscape="http://www.inkscape.org/namespaces/inkscape"
   xmlns:sodipodi="http://sodipodi.sourceforge.net/DTD/sodipodi-0.dtd"
   xmlns="http://www.w3.org/2000/svg"
   xmlns:svg="http://www.w3.org/2000/svg"><sodipodi:namedview
     id="namedview721"
     pagecolor="#ffffff"
     bordercolor="#000000"
     borderopacity="0.25"
     inkscape:showpageshadow="2"
     inkscape:pageopacity="0.0"
     inkscape:pagecheckerboard="0"
     inkscape:deskcolor="#171524"
     inkscape:document-units="mm"
     showgrid="false"
     showguides="true"
     inkscape:zoom="0.45254834"
     inkscape:cx="456.30484"
     inkscape:cy="26.516504"
     inkscape:window-width="2560"
     inkscape:window-height="958"
     inkscape:window-x="0"
     inkscape:window-y="25"
     inkscape:window-maximized="0"
     inkscape:current-layer="layer1" /><defs
     id="defs716" /><g
     inkscape:label="Camada 1"
     inkscape:groupmode="layer"
     id="layer1"
     transform="translate(-395.07737,-731.05815)"><path
       style="display:inline;fill:#f2f2f2;stroke-width:1"
       d="m 396.66368,758.82609 c -0.64674,-0.11115 -1.1344,-0.45903 -1.39885,-0.99749 l -0.16544,-0.33693 -0.0151,-9.22457 c -0.0151,-9.07627 -0.0151,-9.23088 0.10256,-9.6152 0.14965,-0.49345 0.47538,-0.87633 0.93886,-1.10392 l 0.3389,-0.16662 8.79447,-0.0151 8.79451,-0.0151 v -0.525 c 0,-2.7691 1.88194,-5.11674 4.54768,-5.67297 0.60683,-0.1267 1.6876,-0.1267 2.29447,0 1.95506,0.40798 3.60561,1.86729 4.24358,3.75192 0.30961,0.91405 0.30405,0.73824 0.30405,10.04155 0,9.30328 0.003,9.12747 -0.30405,10.04152 -0.52488,1.55054 -1.81163,2.89745 -3.32458,3.48006 -1.07578,0.41422 -0.0396,0.38283 -13.10015,0.3955 -6.47648,0.008 -11.89898,-0.008 -12.05003,-0.0356 z m 24.05104,-1.34125 c 1.63842,-0.36701 2.89136,-1.6015 3.33553,-3.28585 0.14176,-0.53785 0.12896,-1.54296 -0.0277,-2.15244 -0.17142,-0.66766 -0.53968,-1.33333 -1.02437,-1.85229 -1.80602,-1.9339 -4.69521,-1.9339 -6.5012,0 -0.69493,0.74409 -1.07075,1.62737 -1.16838,2.74605 -0.0396,0.43693 -0.0621,0.51064 -0.21893,0.66737 -0.24348,0.24348 -0.56328,0.24467 -0.83353,0.001 l -0.19358,-0.17299 -0.0151,-7.42088 -0.0151,-7.42091 -8.68378,0.0151 c -8.43635,0.0151 -8.68732,0.0197 -8.80831,0.1283 -0.0685,0.0618 -0.15116,0.20903 -0.18368,0.32621 -0.0872,0.31394 -0.0817,17.90053 0.003,18.15104 0.13454,0.38561 -0.77613,0.3583 12.14301,0.36107 10.61234,0.001 11.80548,-0.008 12.19064,-0.0931 z m -20.91416,-2.47889 c -0.39235,-0.1068 -0.61987,-0.30642 -0.81763,-0.71782 -0.0945,-0.19638 -0.11436,-0.37137 -0.11517,-1.01448 -6.8e-4,-0.42745 0.0277,-0.85946 0.0625,-0.96003 0.14326,-0.41119 0.6874,-0.51654 1.00864,-0.19519 0.1734,0.17301 0.1734,0.1738 0.1734,0.91947 v 0.74612 h 5.07204 5.07204 v -2.542 c 0,-1.65963 0.0197,-2.60551 0.0636,-2.72491 0.14378,-0.41224 0.68744,-0.51645 1.01026,-0.19359 l 0.17499,0.17499 -0.0151,2.87496 -0.0151,2.87498 -0.17855,0.25376 c -0.10806,0.15368 -0.29456,0.31395 -0.47295,0.40549 l -0.29454,0.15166 -5.22196,0.0119 c -4.11125,0.008 -5.28193,-0.003 -5.50378,-0.065 z m 5.7921,-2.52598 c -0.0689,-0.0277 -0.18252,-0.12313 -0.25219,-0.2118 -0.11413,-0.14495 -0.1267,-0.23516 -0.1267,-0.89481 v -0.73349 h -2.90971 c -2.48485,0 -2.93514,-0.0119 -3.08377,-0.0903 -0.365,-0.18883 -0.35391,-0.0526 -0.35352,-4.40072 l 6e-4,-3.9627 0.1394,-0.29652 c 0.16392,-0.34879 0.27277,-0.45552 0.63179,-0.6183 0.25059,-0.11356 0.38281,-0.12075 2.33028,-0.12194 1.73101,-0.001 2.09248,0.0119 2.23837,0.0887 0.35352,0.18291 0.35394,0.18527 0.35394,3.04227 0,1.70407 -0.0197,2.66746 -0.0636,2.78719 -0.12049,0.34484 -0.27833,0.39606 -1.2942,0.41867 -1.14763,0.0237 -1.39938,-0.008 -1.6178,-0.22844 -0.32979,-0.32978 -0.17023,-0.87666 0.29416,-1.00558 0.12075,-0.0319 0.49377,-0.0613 0.8286,-0.0613 l 0.60889,-3.2e-4 -0.0151,-1.88348 -0.0151,-1.88344 h -1.57202 -1.57204 v 3.47031 3.47032 l 2.97962,0.0277 2.97964,0.0277 0.16478,0.16426 0.16475,0.16427 0.0197,1.12201 c 0.0199,1.2451 -0.0151,1.40386 -0.34284,1.57372 -0.19281,0.0995 -0.32465,0.10806 -0.51281,0.0319 z m 1.20866,-5.72844 c -0.38124,-0.20983 -0.43147,-0.72161 -0.0982,-1.00221 l 0.18052,-0.15201 h 1.68612 1.68614 v -1.60168 -1.60168 h -2.02153 -2.02149 l -0.1734,-0.1734 c -0.32107,-0.32107 -0.21577,-0.86528 0.19517,-1.00864 0.24426,-0.0851 4.08705,-0.0861 4.39351,-8.7e-4 0.29178,0.0811 0.62691,0.37928 0.76278,0.67814 0.0981,0.21577 0.10806,0.43651 0.10921,2.3873 l 10e-4,2.14945 -0.17302,0.19359 -0.173,0.19361 -2.096,0.0151 c -1.77307,0.0119 -2.12108,-1.3e-4 -2.25842,-0.0755 z m 9.59459,1.82872 c 1.67124,-1.27387 4.17898,-1.43731 6.07481,-0.39588 0.50018,0.27473 0.76309,0.47672 1.29791,0.99697 l 0.43196,0.42025 -0.0197,-6.79234 c -0.0197,-7.47573 0.003,-6.93914 -0.38125,-7.85683 -0.66689,-1.58584 -2.28796,-2.64317 -4.05235,-2.64317 -2.04892,0 -3.6834,1.27182 -4.30742,3.35167 -0.0998,0.33216 -0.10806,0.81178 -0.12631,7.14833 l -0.0197,6.79234 0.432,-0.42025 c 0.23754,-0.23119 0.53883,-0.50167 0.66931,-0.60117 z"
       id="path6581" /></g></svg>
