<?xml version="1.0" encoding="UTF-8" standalone="no"?>
<!-- Created with Inkscape (http://www.inkscape.org/) -->

<svg
   width="141.71143"
   height="117.57101"
   viewBox="0 0 37.494481 31.10733"
   version="1.1"
   id="svg719"
   xml:space="preserve"
   inkscape:version="1.2.2 (b0a8486, 2022-12-01)"
   sodipodi:docname="landing-page-001.svg"
   xmlns:inkscape="http://www.inkscape.org/namespaces/inkscape"
   xmlns:sodipodi="http://sodipodi.sourceforge.net/DTD/sodipodi-0.dtd"
   xmlns="http://www.w3.org/2000/svg"
   xmlns:svg="http://www.w3.org/2000/svg"><sodipodi:namedview
     id="namedview721"
     pagecolor="#ffffff"
     bordercolor="#000000"
     borderopacity="0.25"
     inkscape:showpageshadow="2"
     inkscape:pageopacity="0.0"
     inkscape:pagecheckerboard="0"
     inkscape:deskcolor="#171524"
     inkscape:document-units="mm"
     showgrid="false"
     showguides="true"
     inkscape:zoom="0.45254834"
     inkscape:cx="797.70484"
     inkscape:cy="4423.8368"
     inkscape:window-width="2560"
     inkscape:window-height="1056"
     inkscape:window-x="0"
     inkscape:window-y="24"
     inkscape:window-maximized="0"
     inkscape:current-layer="layer1" /><defs
     id="defs716" /><g
     inkscape:label="Camada 1"
     inkscape:groupmode="layer"
     id="layer1"
     transform="translate(-61.415403,-410.24886)"><path
       style="fill:#f8f8f8;fill-opacity:1;stroke-width:0.999999"
       d="m 61.972899,441.16834 c -0.593668,-0.35585 -0.557286,0.14606 -0.556971,-7.68495 2.77e-4,-6.83286 0.0037,-6.98651 0.150505,-7.22765 0.08262,-0.1355 0.261088,-0.31463 0.396602,-0.39805 0.236905,-0.14584 0.356806,-0.1509 3.119045,-0.1316 2.7362,0.0191 2.882499,0.0272 3.079468,0.17126 0.36245,0.26501 0.511376,0.6818 0.511376,1.43122 0,0.64645 0.0045,0.6641 0.16483,0.62222 0.09065,-0.0237 0.473362,-0.0835 0.850459,-0.13282 l 0.685637,-0.0897 v -6.20723 -6.20722 l 0.164613,-0.30754 c 0.196505,-0.36711 0.698698,-0.8378 1.050849,-0.98495 0.205591,-0.0859 0.929338,-0.10605 3.809285,-0.10605 h 3.555465 v -1.34471 c 0,-1.2455 0.01257,-1.36929 0.170092,-1.6776 0.09355,-0.18309 0.26614,-0.40291 0.383533,-0.48851 0.209618,-0.15284 0.29149,-0.15561 4.586942,-0.15561 4.299308,0 4.377064,0.002 4.582288,0.15586 0.502702,0.37533 0.518269,0.43379 0.543881,2.04174 l 0.02343,1.46883 h 3.571503 3.571504 l 0.392949,0.19582 c 0.216114,0.10769 0.493997,0.3184 0.617506,0.46824 0.476079,0.57757 0.455572,0.1829 0.455572,8.76629 v 7.81589 l 0.351366,0.42958 c 0.815013,0.99642 0.927512,1.84932 0.317281,2.40546 -0.264254,0.24083 -0.688279,0.43478 -1.889707,0.86437 -1.58265,0.56589 -3.961003,1.51784 -6.414208,2.56732 -4.740158,2.02783 -6.5732,2.6591 -8.972404,3.08992 -1.401241,0.25162 -2.711194,0.33479 -4.483792,0.28469 -3.28291,-0.0928 -6.012464,-0.65137 -7.559338,-1.54695 l -0.513487,-0.29728 -0.02769,0.80915 c -0.02582,0.75351 -0.04266,0.82873 -0.244765,1.09374 -0.373647,0.48988 -0.412019,0.49542 -3.426462,0.49463 l -2.705005,-5.8e-4 z m 5.490475,-7.63573 v -6.69029 h -2.456887 -2.456888 v 6.6399 c 0,3.65194 0.02268,6.66258 0.05037,6.69029 0.02769,0.0277 1.13332,0.0504 2.456887,0.0504 h 2.406495 z m -2.867185,5.43276 c -0.124175,-0.15786 -0.15668,-0.30755 -0.15668,-0.7216 0,-0.45387 0.02432,-0.54677 0.185555,-0.70797 0.238103,-0.2381 0.566132,-0.24254 0.784027,-0.0106 0.139323,0.14831 0.164366,0.26348 0.164366,0.75597 0,0.4802 -0.0262,0.60722 -0.151193,0.73219 -0.225095,0.2251 -0.62975,0.20159 -0.826075,-0.048 z m 14.328002,0.65269 c 1.906854,-0.14806 3.44625,-0.46109 5.387555,-1.09554 1.286662,-0.42052 2.365607,-0.85044 5.641624,-2.248 2.523649,-1.07659 5.09442,-2.09774 6.716281,-2.6678 0.450856,-0.15847 0.887642,-0.34311 0.97063,-0.4103 0.14826,-0.12006 0.144862,-0.1302 -0.194933,-0.58222 -0.808397,-1.07542 -1.902363,-1.61992 -3.040982,-1.5136 -0.570129,0.0532 -0.852728,0.16269 -5.35815,2.07514 -1.954179,0.8295 -3.883239,1.63184 -4.286809,1.78299 l -0.733769,0.27481 h -3.394952 c -3.320115,0 -3.399346,-0.004 -3.594144,-0.15668 -0.227078,-0.17863 -0.270047,-0.549 -0.09197,-0.79273 0.102754,-0.14063 0.253192,-0.14832 3.609742,-0.18454 3.407488,-0.0367 3.510728,-0.0422 3.804905,-0.20097 0.166312,-0.0897 0.394132,-0.25984 0.506272,-0.37799 0.746081,-0.78608 0.494042,-2.11186 -0.492246,-2.58931 -0.304401,-0.14736 -0.453731,-0.15798 -2.220289,-0.15798 -2.753457,0 -3.121498,-0.0798 -5.390526,-1.16888 -0.727984,-0.34941 -1.527721,-0.69023 -1.777193,-0.75737 -0.991722,-0.26693 -2.450915,-0.23116 -5.083875,0.12466 l -1.228439,0.16601 v 4.17512 4.17511 l 0.224256,0.18871 c 0.372143,0.31313 1.07209,0.71068 1.679484,0.9539 1.883046,0.75401 5.636086,1.19796 8.347528,0.98746 z m 10.980081,-8.08463 c 1.802439,-0.75453 3.486136,-1.42543 3.741558,-1.49086 0.831928,-0.21314 2.024376,-0.0868 2.941147,0.31148 0.125477,0.0545 0.132296,-0.32059 0.132296,-7.28349 0,-4.03752 -0.02552,-7.33937 -0.05673,-7.33742 -0.03121,0.002 -1.434443,1.96236 -3.118357,4.35648 -1.683915,2.39411 -3.16774,4.46764 -3.297378,4.60785 l -0.235716,0.25492 h -1.635303 -1.635302 v 0.86937 c 0,1.2709 0.223441,1.17174 -2.640392,1.17174 h -2.33801 l -0.15668,-0.19918 c -0.136674,-0.17375 -0.15668,-0.30407 -0.15668,-1.02055 v -0.82138 h -1.616951 c -1.430513,0 -1.634831,-0.0153 -1.771954,-0.13229 -0.08525,-0.0727 -1.556162,-2.12237 -3.268697,-4.5547 -1.712528,-2.43232 -3.142951,-4.45431 -3.178712,-4.4933 -0.03637,-0.0397 -0.07372,2.54488 -0.08483,5.86297 l -0.01983,5.93387 1.474133,-0.029 c 1.387881,-0.0273 1.517969,-0.0177 2.223267,0.16457 0.516817,0.13356 1.18533,0.40454 2.15569,0.87381 1.952847,0.94442 2.138888,0.9855 4.464056,0.9855 1.025168,0 2.064431,0.0371 2.309465,0.0824 0.908741,0.16799 1.686624,0.75847 2.062883,1.5659 0.157488,0.33796 0.206653,0.57411 0.22847,1.09724 0.01931,0.46285 0.05434,0.65581 0.11458,0.63132 0.04775,-0.0194 1.561506,-0.65263 3.363937,-1.40718 z m -4.315003,-7.16691 -0.02051,-1.49304 h -1.474133 -1.474132 l -0.02066,1.39611 c -0.01138,0.76786 -0.0037,1.43973 0.01654,1.49304 0.02852,0.0742 0.382778,0.0969 1.515305,0.0969 h 1.478107 z m -4.140516,-1.45867 c 0,-0.78575 0.01093,-0.84594 0.185555,-1.02056 l 0.185555,-0.18555 h 2.261145 c 2.842681,0 2.659506,-0.0812 2.659506,1.1789 v 0.86555 l 1.411271,-0.0206 1.411263,-0.0206 3.045226,-4.30901 3.045226,-4.309 -11.499339,-0.0192 c -6.324632,-0.0106 -11.514794,-0.004 -11.533699,0.0152 -0.01894,0.0189 1.335325,1.97507 3.00939,4.34704 l 3.043752,4.31269 h 1.387575 1.387574 z m -1.711203,-4.016 c -0.166402,-0.0806 -0.329907,-0.35986 -0.329907,-0.56353 0,-0.0636 0.09944,-0.2151 0.220978,-0.33663 0.211945,-0.21195 0.249143,-0.22097 0.910912,-0.22097 0.786932,0 1.105066,0.11498 1.183571,0.42777 0.06856,0.27331 -0.05127,0.57105 -0.275608,0.68455 -0.226914,0.11482 -1.47771,0.12125 -1.709946,0.009 z m 3.526775,-0.009 c -0.240588,-0.12172 -0.356612,-0.43992 -0.260279,-0.71384 0.115358,-0.32801 0.357188,-0.40611 1.183136,-0.38208 0.63969,0.0186 0.756635,0.0429 0.90086,0.18729 0.238066,0.23828 0.22035,0.60483 -0.04004,0.82883 -0.183811,0.1581 -0.280098,0.1769 -0.90086,0.17591 -0.405717,-5.7e-4 -0.773205,-0.0407 -0.882792,-0.0961 z m 3.394781,-0.12376 c -0.12154,-0.12153 -0.220979,-0.29423 -0.220979,-0.38379 0,-0.0896 0.09944,-0.26227 0.220979,-0.3838 0.211952,-0.21195 0.249143,-0.22097 0.910912,-0.22097 0.786931,0 1.105066,0.11498 1.18357,0.42777 0.06856,0.27331 -0.05127,0.57105 -0.275608,0.68455 -0.110171,0.0558 -0.479043,0.0955 -0.892814,0.0961 -0.679178,10e-4 -0.713209,-0.007 -0.92606,-0.21987 z m 1.404355,-6.12914 v -1.24734 l -3.949926,-0.0195 -3.949924,-0.0196 v 1.28649 1.28649 l 3.949924,-0.0196 3.949926,-0.0195 z"
       id="path17757"
       inkscape:export-filename="Icons/small-business.png"
       inkscape:export-xdpi="96"
       inkscape:export-ydpi="96" /></g></svg>
