<?xml version="1.0" encoding="UTF-8" standalone="no"?>
<!-- Created with Inkscape (http://www.inkscape.org/) -->

<svg
   width="102.59708"
   height="102.59742"
   viewBox="0 0 27.145478 27.145568"
   version="1.1"
   id="svg719"
   xml:space="preserve"
   inkscape:version="1.2.2 (b0a8486, 2022-12-01)"
   sodipodi:docname="landing-page-001.svg"
   inkscape:export-filename="landing-page-001.pdf"
   inkscape:export-xdpi="96"
   inkscape:export-ydpi="96"
   xmlns:inkscape="http://www.inkscape.org/namespaces/inkscape"
   xmlns:sodipodi="http://sodipodi.sourceforge.net/DTD/sodipodi-0.dtd"
   xmlns="http://www.w3.org/2000/svg"
   xmlns:svg="http://www.w3.org/2000/svg"><sodipodi:namedview
     id="namedview721"
     pagecolor="#ffffff"
     bordercolor="#000000"
     borderopacity="0.25"
     inkscape:showpageshadow="2"
     inkscape:pageopacity="0.0"
     inkscape:pagecheckerboard="0"
     inkscape:deskcolor="#171524"
     inkscape:document-units="mm"
     showgrid="false"
     showguides="true"
     inkscape:zoom="0.45254834"
     inkscape:cx="456.30484"
     inkscape:cy="26.516504"
     inkscape:window-width="2560"
     inkscape:window-height="958"
     inkscape:window-x="0"
     inkscape:window-y="25"
     inkscape:window-maximized="0"
     inkscape:current-layer="layer1" /><defs
     id="defs716" /><g
     inkscape:label="Camada 1"
     inkscape:groupmode="layer"
     id="layer1"
     transform="translate(-312.94102,-725.29747)"><path
       style="fill:#ececec;fill-opacity:1;stroke-width:0.999998"
       d="m 327.53527,752.34356 c -0.0945,-0.0577 -0.58383,-0.43615 -1.0873,-0.84112 l -0.91541,-0.7363 -0.50388,-0.0644 c -3.45439,-0.44117 -6.51914,-2.3457 -8.45502,-5.25424 -0.7376,-1.10819 -1.27703,-2.3283 -1.61541,-3.65381 l -0.19783,-0.77498 -0.67405,-0.0604 c -0.73331,-0.0657 -0.87197,-0.1196 -1.04694,-0.40655 -0.13259,-0.21746 -0.1312,-0.44204 0.004,-0.66397 0.0591,-0.0969 0.43625,-0.58622 0.83811,-1.08731 l 0.73066,-0.91107 0.0904,-0.64955 c 0.47036,-3.37899 2.34994,-6.37538 5.20321,-8.29484 0.85892,-0.57782 1.10654,-0.65989 1.32671,-0.43972 0.0858,0.0858 0.11161,0.3753 0.0427,0.47916 -0.0215,0.0323 -0.25904,0.1944 -0.52802,0.36025 -1.80191,1.11107 -3.2641,2.67931 -4.17264,4.47531 -0.37484,0.74096 -0.93398,2.34471 -0.93398,2.67887 0,0.0649 0.18675,-0.12907 0.50683,-0.52633 0.27876,-0.34598 0.57114,-0.67068 0.64974,-0.72158 0.18575,-0.12029 0.52538,-0.11824 0.72634,0.004 0.10286,0.0628 0.25225,0.26896 0.42255,0.58324 0.24209,0.44674 0.34652,0.57605 0.34652,0.42911 0,-0.14053 0.44787,-1.18217 0.69412,-1.61433 1.06196,-1.86378 2.77053,-3.28427 4.75859,-3.95628 0.55667,-0.18817 0.64842,-0.19009 0.85311,-0.0179 0.19827,0.16683 0.23231,0.34365 0.17293,0.89847 -0.025,0.23338 -0.041,0.43024 -0.0356,0.43748 0.0247,0.0331 4.56254,-2.48589 4.56254,-2.53275 0,-0.0516 -4.01646,-3.29242 -4.04554,-3.26433 -0.008,0.008 -0.0404,0.29789 -0.0721,0.64481 -0.0854,0.93695 -0.0845,0.93605 -1.03162,1.13147 -0.29412,0.0607 -0.75869,0.18054 -1.03238,0.26635 -0.42271,0.13253 -0.51779,0.14634 -0.63162,0.0918 -0.18695,-0.0896 -0.28325,-0.30681 -0.21529,-0.48556 0.0714,-0.18792 0.34593,-0.30298 1.30959,-0.54898 l 0.78623,-0.20071 0.0605,-0.67405 c 0.0657,-0.73331 0.11959,-0.87197 0.40654,-1.04694 0.21746,-0.13259 0.44204,-0.1312 0.66397,0.004 0.0969,0.0591 0.58654,0.43704 1.08802,0.83988 l 0.91178,0.73243 0.50316,0.0638 c 2.40346,0.3047 4.76795,1.39388 6.52315,3.00483 1.76577,1.62066 2.96044,3.61021 3.54657,5.90624 l 0.19784,0.77499 0.67405,0.0605 c 0.73331,0.0657 0.87197,0.11959 1.04693,0.40655 0.13259,0.21746 0.13121,0.44203 -0.004,0.66397 -0.0591,0.0969 -0.43673,0.58622 -0.83918,1.0873 l -0.73172,0.91107 -0.0663,0.50388 c -0.35455,2.69498 -1.54577,5.10091 -3.45931,6.98677 -1.55182,1.52938 -3.35248,2.54804 -5.45123,3.0838 l -0.77443,0.19769 -0.0605,0.67405 c -0.0657,0.73331 -0.1196,0.87197 -0.40654,1.04694 -0.21622,0.13183 -0.44184,0.13133 -0.65964,-0.002 z m 0.31152,-1.46518 c 0.0856,-0.93997 0.0813,-0.93525 1.05334,-1.13612 3.75693,-0.77632 6.94243,-3.62341 8.15814,-7.29143 0.2176,-0.65656 0.40576,-1.40204 0.33308,-1.31967 -0.0227,0.0257 -0.26129,0.3212 -0.53027,0.65667 -0.55162,0.688 -0.68429,0.795 -0.98583,0.79512 -0.33758,1.1e-4 -0.50106,-0.13995 -0.79384,-0.68024 -0.24208,-0.44674 -0.34651,-0.57606 -0.34651,-0.42912 0,0.14055 -0.44787,1.18217 -0.69412,1.61433 -1.07063,1.87898 -2.8081,3.31455 -4.81111,3.97514 -0.47855,0.15783 -0.64472,0.15061 -0.84543,-0.0367 -0.15411,-0.14383 -0.18369,-0.34316 -0.12809,-0.86274 0.025,-0.23337 0.0413,-0.42995 0.0363,-0.43684 -0.0242,-0.0331 -4.56317,2.48531 -4.56317,2.53175 0,0.0518 4.01633,3.2929 4.04555,3.26469 0.008,-0.008 0.0404,-0.29789 0.072,-0.6448 z m -3.58983,-1.12648 c -0.0277,-0.0247 -0.32487,-0.26496 -0.66034,-0.53394 -0.68288,-0.54752 -0.79491,-0.68489 -0.79531,-0.97521 -4e-4,-0.34734 0.1152,-0.48534 0.66281,-0.79063 0.27701,-0.15443 0.50362,-0.29272 0.50357,-0.3073 -4e-5,-0.0146 -0.19539,-0.0955 -0.4341,-0.17982 -0.47872,-0.16908 -0.67952,-0.32754 -0.67952,-0.53621 0,-0.13916 0.20913,-0.3978 0.32166,-0.3978 0.0337,0 0.3749,0.10504 0.75822,0.23343 1.14953,0.38502 0.89225,0.43729 2.69756,-0.548 1.36703,-0.74609 1.5916,-0.85229 1.80211,-0.85229 0.48969,0 0.70246,0.33306 0.64591,1.01111 l -0.0355,0.42556 0.28627,-0.11088 c 1.02323,-0.39631 1.8508,-0.94727 2.70313,-1.79959 0.95096,-0.95096 1.53609,-1.88986 1.9293,-3.09574 0.31878,-0.97761 0.3714,-0.7559 -0.60321,-2.54164 -0.74608,-1.36704 -0.85229,-1.59161 -0.85229,-1.80212 0,-0.27327 0.12574,-0.47256 0.38162,-0.60488 0.12747,-0.0659 0.25117,-0.0752 0.60702,-0.0456 l 0.44694,0.0372 -0.11033,-0.28488 c -0.39567,-1.02166 -0.94713,-1.84981 -1.79905,-2.70172 -0.95951,-0.95952 -1.87454,-1.53104 -3.08138,-1.9246 -0.99422,-0.32424 -0.76839,-0.37712 -2.556,0.59851 -1.36704,0.74608 -1.59161,0.85229 -1.80211,0.85229 -0.27219,0 -0.47252,-0.12565 -0.60318,-0.37831 -0.0639,-0.12354 -0.0733,-0.25234 -0.0445,-0.60744 l 0.0366,-0.45066 -0.28593,0.11185 c -0.53781,0.21036 -1.05146,0.47821 -1.54385,0.80504 -0.64536,0.42838 -1.71694,1.4954 -2.12939,2.12035 -0.54191,0.82111 -0.99933,1.86735 -1.14899,2.62806 l -0.0628,0.31905 0.85422,1.5614 c 0.74991,1.37077 0.8542,1.59088 0.8542,1.80291 0,0.49108 -0.34008,0.70866 -1.01555,0.64973 l -0.4205,-0.0367 0.11057,0.28548 c 0.49975,1.29036 1.46299,2.57181 2.58675,3.44132 0.24076,0.1863 0.28011,0.42591 0.0996,0.60644 -0.21506,0.21506 -0.38404,0.1806 -0.80688,-0.16454 -1.25091,-1.02105 -2.22225,-2.41806 -2.73405,-3.93214 -0.18817,-0.55668 -0.19009,-0.64843 -0.0178,-0.85311 0.16683,-0.19828 0.34364,-0.23231 0.89847,-0.17293 0.23338,0.025 0.42993,0.0413 0.4368,0.0363 0.0328,-0.0239 -2.48621,-4.56322 -2.53225,-4.56322 -0.0475,0 -3.29324,4.01525 -3.26753,4.04216 0.006,0.006 0.29602,0.0388 0.64481,0.0725 0.94612,0.0915 0.93925,0.0851 1.13903,1.05665 0.82823,4.02776 3.9841,7.32016 8.03445,8.38206 0.67099,0.17592 0.64683,0.17124 0.58078,0.11241 z m -1.71724,-7.20632 c -0.0708,-0.0138 -0.18539,-0.0621 -0.25465,-0.10754 -0.28434,-0.18631 -0.27965,-0.12624 -0.27943,-3.578 2e-4,-3.0733 0.004,-3.20486 0.10323,-3.36725 0.19711,-0.32328 -0.0159,-0.30836 4.40492,-0.30836 3.89767,0 4.06336,0.004 4.20608,0.10069 0.25052,0.1698 0.30226,0.33824 0.30226,0.98398 0,0.67323 -0.0616,0.79823 -0.39394,0.79823 -0.29473,0 -0.40165,-0.18545 -0.40165,-0.69667 v -0.41716 h -1.24642 -1.24643 v 2.91717 2.91716 h 1.24643 1.24642 v -1.66359 c 0,-1.60269 0.004,-1.6687 0.10993,-1.80334 0.13775,-0.1751 0.42166,-0.1916 0.57959,-0.0337 0.10198,0.10199 0.10607,0.1768 0.10607,1.93858 0,1.99477 -0.005,2.02865 -0.30226,2.23041 -0.1424,0.0965 -0.3127,0.10097 -4.10001,0.10753 -2.17328,0.004 -4.00935,-0.005 -4.08014,-0.0182 z m 4.39838,-3.67734 v -2.91959 l -0.35802,0.0157 -0.35801,0.0157 -0.015,0.66189 c -0.0143,0.6344 -0.0208,0.66801 -0.15578,0.80885 l -0.14079,0.14696 h -1.04364 -1.04363 l -0.13336,-0.13335 c -0.1666,-0.16661 -0.19934,-0.32874 -0.19934,-0.98711 v -0.52376 h -0.34476 -0.34476 v 2.91716 2.91717 h 2.06854 2.06854 z m -3.18236,1.91185 c -0.19226,-0.19226 -0.13882,-0.38673 0.20732,-0.75441 l 0.31341,-0.3329 -0.31341,-0.32691 c -0.34772,-0.3627 -0.40284,-0.56488 -0.20732,-0.7604 0.0986,-0.0986 0.17679,-0.10608 1.10997,-0.10608 h 1.0039 l 0.10993,0.13975 c 0.13868,0.1763 0.13868,0.28675 0,0.46305 -0.10224,0.12998 -0.13933,0.13975 -0.53039,0.13975 -0.23126,0 -0.42047,0.0202 -0.42047,0.0448 0,0.0247 0.0477,0.088 0.10608,0.14083 0.13692,0.1239 0.13602,0.36588 -0.002,0.5598 l -0.10814,0.15187 0.43413,0.0155 c 0.39983,0.0142 0.44243,0.0266 0.53936,0.15667 0.0717,0.0962 0.0946,0.18382 0.0717,0.27475 -0.0725,0.28899 -0.11689,0.30004 -1.204,0.30004 -0.93324,0 -1.01143,-0.007 -1.11004,-0.10607 z m 1.67074,-4.37575 v -0.42432 h -0.55692 -0.55691 l -0.0159,0.36601 c -0.009,0.20131 -0.003,0.39906 0.0123,0.43945 0.022,0.0573 0.14734,0.0701 0.57277,0.0583 l 0.54461,-0.0151 z m 3.26577,4.34208 c -0.0605,-0.0769 -0.10993,-0.18105 -0.10993,-0.23153 0,-0.0504 0.0495,-0.15466 0.10993,-0.23153 0.22001,-0.27969 0.68566,-0.11565 0.68566,0.24153 0,0.3456 -0.4689,0.49709 -0.68566,0.22153 z m 8.87549,-1.10673 c 0.88694,-1.1085 1.6063,-2.022 1.59857,-2.03001 -0.008,-0.008 -0.29789,-0.0404 -0.64481,-0.072 -0.93997,-0.0856 -0.93525,-0.0813 -1.13612,-1.05334 -0.77673,-3.7589 -3.60827,-6.92738 -7.29144,-8.15907 -0.6472,-0.21643 -1.40455,-0.40705 -1.31966,-0.33215 0.0257,0.0227 0.3212,0.2613 0.65667,0.53027 0.68799,0.55162 0.795,0.68429 0.79512,0.98584 1e-4,0.33758 -0.13996,0.50105 -0.68025,0.79383 -0.26737,0.14489 -0.48608,0.27617 -0.486,0.29172 5e-5,0.0155 0.19698,0.0976 0.43758,0.18232 2.36756,0.8337 4.41648,2.94782 5.20927,5.37506 0.16153,0.49452 0.14937,0.67388 -0.0589,0.86875 -0.12286,0.11495 -0.17493,0.12496 -0.59394,0.11411 -0.25261,-0.006 -0.51532,-0.0255 -0.58381,-0.0421 -0.0685,-0.0167 -0.11623,-0.01 -0.10608,0.0147 0.11131,0.27075 2.51234,4.57383 2.54586,4.56266 0.0249,-0.008 0.77099,-0.92205 1.65793,-2.03055 z"
       id="path6676" /></g></svg>
