<?xml version="1.0" encoding="UTF-8"?>
<!DOCTYPE svg PUBLIC "-//W3C//DTD SVG 1.1//EN" "http://www.w3.org/Graphics/SVG/1.1/DTD/svg11.dtd">
<!-- Creator: CorelDRAW 2018 (64 Bit) -->
<svg xmlns="http://www.w3.org/2000/svg" xml:space="preserve" width="24.6704mm" height="24.5438mm" version="1.1" style="shape-rendering:geometricPrecision; text-rendering:geometricPrecision; image-rendering:optimizeQuality; fill-rule:evenodd; clip-rule:evenodd"
viewBox="0 0 6.3228 6.2903"
 xmlns:xlink="http://www.w3.org/1999/xlink">
 <defs>
  <style type="text/css">
   <![CDATA[
    .fil0 {fill:#E6E7E8}
   ]]>
  </style>
 </defs>
 <g id="Camada_x0020_1">
  <metadata id="CorelCorpID_0Corel-Layer"/>
  <path class="fil0" d="M2.7821 6.2903c0,-0.3767 0.0477,-2.1584 -0.0319,-2.3736l-0.5007 0.004 0.0015 -0.8901 0.5252 -0c0.0334,-0.6279 -0.1089,-1.1174 0.3075,-1.4859 0.3863,-0.3419 1.054,-0.2455 1.6232,-0.2509l-0.0001 0.922c-0.8009,0.0013 -0.9069,-0.1052 -0.8224,0.8004l0.8165 0.0096 -0.0921 0.8922 -0.732 0.0066 -0.0002 2.3055c0.7558,-0.0843 1.4968,-0.7541 1.8043,-1.149 1.5535,-1.9954 0.1411,-5.2134 -2.6741,-5.0769 -2.5625,0.1242 -3.997,3.137 -2.214,5.2433 0.361,0.4264 1.121,0.9921 1.9892,1.0429z"/>
 </g>
</svg>
