<?xml version="1.0" encoding="UTF-8"?>
<!DOCTYPE svg PUBLIC "-//W3C//DTD SVG 1.1//EN" "http://www.w3.org/Graphics/SVG/1.1/DTD/svg11.dtd">
<!-- Creator: CorelDRAW 2018 (64 Bit) -->
<svg xmlns="http://www.w3.org/2000/svg" xml:space="preserve" width="24.6896mm" height="24.6966mm" version="1.1" style="shape-rendering:geometricPrecision; text-rendering:geometricPrecision; image-rendering:optimizeQuality; fill-rule:evenodd; clip-rule:evenodd"
viewBox="0 0 28.4734 28.4815"
 xmlns:xlink="http://www.w3.org/1999/xlink">
 <defs>
  <style type="text/css">
   <![CDATA[
    .fil0 {fill:#E6E7E8}
   ]]>
  </style>
 </defs>
 <g id="Camada_x0020_1">
  <metadata id="CorelCorpID_0Corel-Layer"/>
  <g id="_2690781994864">
   <path class="fil0" d="M4.7834 19.6459c-0.2888,-2.4112 -0.0242,-6.7118 -0.0278,-9.3271 -0.0022,-1.5417 -0.1212,-2.6847 0.6812,-3.8281 0.5925,-0.8443 1.5938,-1.6745 2.9441,-1.8499 2.3546,-0.3062 6.7532,-0.037 9.329,-0.0416 7.3337,-0.0131 5.7042,4.4192 5.724,13.1115 0.0055,2.4138 -0.434,5.1403 -3.6905,5.5276 -2.4388,0.2902 -6.6214,0.0344 -9.2488,0.0382 -1.5847,0.0022 -2.7714,0.1071 -3.9378,-0.7517 -0.7847,-0.5778 -1.6267,-1.6527 -1.7735,-2.8788zm6.9916 -19.3958c-7.0361,1.3113 -13.0777,7.7653 -11.5311,16.6037 1.2057,6.8906 8.0316,12.9405 16.5444,11.3798 6.8605,-1.2577 12.9721,-7.9043 11.4502,-16.4778 -1.2258,-6.9056 -7.9692,-13.0885 -16.4635,-11.5056z"/>
   <path class="fil0" d="M12.6598 9.4073c2.9614,-0.9544 5.4607,0.9624 6.0912,3.2291 0.8196,2.9468 -1.0874,5.2474 -3.1592,5.9398 -5.9796,1.9982 -9.13,-7.1713 -2.9319,-9.169zm5.8764 -1.2822c1.491,-0.8343 2.5095,1.4733 1.1909,2.1313 -1.5892,0.793 -2.5883,-1.3495 -1.1909,-2.1313zm-9.9992 -1.5872c-2.4425,0.5148 -1.8972,2.9989 -1.8971,5.5408 0,1.6555 -0.2093,6.1704 0.0573,7.4902 0.4676,2.3148 3.1659,1.8223 5.5574,1.8223 1.5929,0 6.2605,0.2016 7.4875,-0.0659 2.3193,-0.5057 1.8223,-3.1399 1.8223,-5.551 -0.0001,-9.4238 1.0462,-9.3008 -5.6142,-9.3008 -1.6239,0 -6.1562,-0.2007 -7.4132,0.0644z"/>
   <path class="fil0" d="M13.4699 11.121c-3.8417,0.833 -2.5307,6.7198 1.4027,5.7169 3.6276,-0.9248 2.3563,-6.5319 -1.4027,-5.7169z"/>
  </g>
 </g>
</svg>
