<?xml version="1.0" encoding="UTF-8"?>
<!DOCTYPE svg PUBLIC "-//W3C//DTD SVG 1.1//EN" "http://www.w3.org/Graphics/SVG/1.1/DTD/svg11.dtd">
<!-- Creator: CorelDRAW 2018 (64 Bit) -->
<svg xmlns="http://www.w3.org/2000/svg" xml:space="preserve" width="179.966mm" height="55.8468mm" version="1.1" style="shape-rendering:geometricPrecision; text-rendering:geometricPrecision; image-rendering:optimizeQuality; fill-rule:evenodd; clip-rule:evenodd"
viewBox="0 0 167.8159 52.0764"
 xmlns:xlink="http://www.w3.org/1999/xlink">
 <defs>
  <style type="text/css">
   <![CDATA[
    .fil2 {fill:#FEFEFE}
    .fil3 {fill:black}
    .fil1 {fill:#132D43}
    .fil0 {fill:black;fill-rule:nonzero}
   ]]>
  </style>
 </defs>
 <g id="Camada_x0020_1">
  <metadata id="CorelCorpID_0Corel-Layer"/>
  <path class="fil0" d="M67.0498 45.1401l0 3.0154c0,0.249 0.0531,0.4248 0.1587,0.5275 0.1059,0.1026 0.2894,0.154 0.5508,0.154l0.6256 0 0 0.7189 -0.7656 0c-0.473,0 -0.8279,-0.109 -1.0642,-0.3268 -0.2366,-0.2178 -0.3549,-0.5756 -0.3549,-1.0736l0 -3.0154 -0.6627 0 0 -0.7003 0.6627 0 0 -1.2882 0.8496 0 0 1.2882 1.3351 0 0 0.7003 -1.3351 0zm7.0298 1.6617c0,0.1619 -0.0092,0.333 -0.0281,0.5134l-4.089 0c0.0311,0.5042 0.2037,0.8979 0.5182,1.1811 0.3142,0.2831 0.6955,0.4247 1.1435,0.4247 0.3673,0 0.6737,-0.0855 0.9195,-0.2569 0.2459,-0.1711 0.4187,-0.3997 0.5183,-0.686l0.915 0c-0.1371,0.4916 -0.4109,0.8915 -0.8217,1.1997 -0.4109,0.308 -0.9212,0.462 -1.5311,0.462 -0.4854,0 -0.9195,-0.109 -1.3022,-0.3268 -0.3828,-0.2178 -0.6832,-0.5275 -0.901,-0.9289 -0.2178,-0.4015 -0.3268,-0.8667 -0.3268,-1.3958 0,-0.5289 0.1059,-0.9925 0.3175,-1.3908 0.2116,-0.3985 0.5087,-0.7049 0.8915,-0.9195 0.3828,-0.2149 0.8231,-0.3223 1.3211,-0.3223 0.4856,0 0.915,0.1058 1.2883,0.3175 0.3735,0.2116 0.6614,0.5025 0.8636,0.8729 0.2023,0.3703 0.3034,0.7888 0.3034,1.2556zm-0.8776 -0.1774c0,-0.3237 -0.0714,-0.6022 -0.2148,-0.8355 -0.143,-0.2335 -0.3376,-0.4109 -0.5835,-0.5322 -0.2459,-0.1214 -0.5182,-0.1821 -0.8169,-0.1821 -0.4294,0 -0.795,0.1371 -1.0969,0.4109 -0.3018,0.274 -0.4746,0.6534 -0.5182,1.1389l3.2301 0zm1.6802 0.3639c0,-0.5289 0.1059,-0.991 0.3175,-1.3862 0.2117,-0.3952 0.5056,-0.7018 0.8822,-0.9196 0.3765,-0.2177 0.8076,-0.3267 1.293,-0.3267 0.6286,0 1.1469,0.1526 1.5544,0.4575 0.4078,0.3049 0.677,0.7282 0.8076,1.2697l-0.915 0c-0.0872,-0.3112 -0.2566,-0.557 -0.5088,-0.7374 -0.2521,-0.1804 -0.5648,-0.2709 -0.9383,-0.2709 -0.4854,0 -0.8775,0.1665 -1.1763,0.4996 -0.2988,0.333 -0.4481,0.8043 -0.4481,1.4141 0,0.6163 0.1493,1.0924 0.4481,1.4285 0.2989,0.3361 0.691,0.5042 1.1763,0.5042 0.3735,0 0.6845,-0.0872 0.9336,-0.2614 0.249,-0.1743 0.4201,-0.4233 0.5134,-0.747l0.915 0c-0.1369,0.5229 -0.4109,0.9414 -0.8214,1.2557 -0.4109,0.3144 -0.9243,0.4716 -1.5406,0.4716 -0.4854,0 -0.9164,-0.109 -1.293,-0.3268 -0.3766,-0.2178 -0.6706,-0.5258 -0.8822,-0.9243 -0.2116,-0.3983 -0.3175,-0.8651 -0.3175,-1.4004zm8.4772 -2.6419c0.6222,0 1.1264,0.1883 1.5122,0.5649 0.3859,0.3765 0.5789,0.9195 0.5789,1.6291l0 3.0155 -0.8403 0 0 -2.8941c0,-0.5104 -0.1276,-0.901 -0.3828,-1.1716 -0.2551,-0.2709 -0.6036,-0.4061 -1.0454,-0.4061 -0.4482,0 -0.8046,0.14 -1.069,0.4201 -0.2645,0.2799 -0.3968,0.6877 -0.3968,1.2229l0 2.8288 -0.8496 0 0 -5.1161 0.8496 0 0 0.7284c0.168,-0.2616 0.3968,-0.4637 0.6862,-0.607 0.2893,-0.1431 0.6082,-0.2148 0.9569,-0.2148zm5.7135 5.2935c-0.4794,0 -0.9136,-0.109 -1.3025,-0.3268 -0.389,-0.2178 -0.694,-0.5275 -0.9149,-0.9289 -0.2209,-0.4015 -0.3315,-0.8667 -0.3315,-1.3958 0,-0.5227 0.1138,-0.9847 0.3408,-1.3862 0.2271,-0.4013 0.5367,-0.7094 0.9289,-0.9241 0.3922,-0.2149 0.8309,-0.3223 1.3163,-0.3223 0.4855,0 0.9243,0.1073 1.3164,0.3223 0.3922,0.2147 0.7017,0.5211 0.9289,0.9195 0.2272,0.3983 0.3407,0.8619 0.3407,1.3908 0,0.5292 -0.1167,0.9943 -0.35,1.3958 -0.2335,0.4013 -0.5494,0.711 -0.9476,0.9289 -0.3985,0.2178 -0.8403,0.3268 -1.3256,0.3268zm0 -0.747c0.3049,0 0.591,-0.0714 0.8588,-0.2147 0.2675,-0.143 0.4839,-0.3578 0.6488,-0.6442 0.1648,-0.2864 0.2474,-0.6348 0.2474,-1.0457 0,-0.4106 -0.0809,-0.759 -0.2428,-1.0454 -0.1619,-0.2864 -0.3735,-0.4994 -0.6348,-0.6396 -0.2614,-0.14 -0.5446,-0.21 -0.8495,-0.21 -0.3112,0 -0.5959,0.07 -0.8542,0.21 -0.2585,0.1402 -0.4653,0.3532 -0.6209,0.6396 -0.1555,0.2864 -0.2333,0.6348 -0.2333,1.0454 0,0.4171 0.0762,0.7688 0.2287,1.055 0.1524,0.2864 0.3563,0.4996 0.6115,0.6396 0.2551,0.14 0.5351,0.2099 0.8403,0.2099zm4.5931 -6.2455l0 6.9085 -0.8495 0 0 -6.9085 0.8495 0zm3.6784 6.9925c-0.4794,0 -0.9136,-0.109 -1.3025,-0.3268 -0.3889,-0.2178 -0.6939,-0.5275 -0.9148,-0.9289 -0.2209,-0.4015 -0.3316,-0.8667 -0.3316,-1.3958 0,-0.5227 0.1138,-0.9847 0.3408,-1.3862 0.2272,-0.4013 0.5368,-0.7094 0.9289,-0.9241 0.3923,-0.2149 0.8309,-0.3223 1.3163,-0.3223 0.4856,0 0.9243,0.1073 1.3164,0.3223 0.3922,0.2147 0.7017,0.5211 0.929,0.9195 0.2271,0.3983 0.3406,0.8619 0.3406,1.3908 0,0.5292 -0.1167,0.9943 -0.35,1.3958 -0.2335,0.4013 -0.5493,0.711 -0.9476,0.9289 -0.3985,0.2178 -0.8403,0.3268 -1.3256,0.3268zm0 -0.747c0.3049,0 0.5911,-0.0714 0.8588,-0.2147 0.2675,-0.143 0.484,-0.3578 0.6489,-0.6442 0.1647,-0.2864 0.2473,-0.6348 0.2473,-1.0457 0,-0.4106 -0.0809,-0.759 -0.2428,-1.0454 -0.1618,-0.2864 -0.3735,-0.4994 -0.6348,-0.6396 -0.2614,-0.14 -0.5446,-0.21 -0.8495,-0.21 -0.3112,0 -0.5959,0.07 -0.8541,0.21 -0.2585,0.1402 -0.4654,0.3532 -0.621,0.6396 -0.1554,0.2864 -0.2333,0.6348 -0.2333,1.0454 0,0.4171 0.0762,0.7688 0.2287,1.055 0.1524,0.2864 0.3563,0.4996 0.6115,0.6396 0.2551,0.14 0.5352,0.2099 0.8403,0.2099zm5.8535 -4.5371c0.4418,0 0.8294,0.0966 1.1623,0.2894 0.3328,0.193 0.5803,0.4358 0.7422,0.7281l0 -0.9335 0.8588 0 0 5.2282c0,0.4668 -0.0997,0.8821 -0.2987,1.2464 -0.1993,0.3639 -0.484,0.6486 -0.8543,0.8541 -0.3704,0.2054 -0.8012,0.308 -1.293,0.308 -0.6722,0 -1.2323,-0.1585 -1.6803,-0.476 -0.4482,-0.3173 -0.7126,-0.7499 -0.7935,-1.2976l0.8403 0c0.0932,0.3111 0.2861,0.5615 0.5786,0.7515 0.2926,0.1897 0.6442,0.2847 1.055,0.2847 0.4668,0 0.8481,-0.1462 1.1437,-0.4387 0.2957,-0.2925 0.4435,-0.7034 0.4435,-1.2323l0 -1.0738c-0.168,0.2987 -0.417,0.5476 -0.7469,0.7469 -0.3299,0.1992 -0.7158,0.2988 -1.1576,0.2988 -0.4544,0 -0.8667,-0.1122 -1.237,-0.3362 -0.3704,-0.224 -0.6613,-0.5384 -0.8729,-0.9428 -0.2116,-0.4046 -0.3175,-0.8653 -0.3175,-1.3818 0,-0.5228 0.1059,-0.9817 0.3175,-1.377 0.2116,-0.3952 0.5025,-0.7018 0.8729,-0.9196 0.3704,-0.2177 0.7826,-0.3267 1.237,-0.3267zm1.9045 2.6326c0,-0.3859 -0.0779,-0.7219 -0.2335,-1.008 -0.1556,-0.2864 -0.3656,-0.5059 -0.6301,-0.6582 -0.2646,-0.1526 -0.5556,-0.2287 -0.8729,-0.2287 -0.3175,0 -0.607,0.0748 -0.8683,0.224 -0.2614,0.1495 -0.4699,0.3673 -0.6255,0.6537 -0.1554,0.2861 -0.2333,0.6222 -0.2333,1.0081 0,0.3922 0.0779,0.7328 0.2333,1.0223 0.1556,0.2894 0.3641,0.5104 0.6255,0.6627 0.2614,0.1526 0.5508,0.2287 0.8683,0.2287 0.3173,0 0.6083,-0.0762 0.8729,-0.2287 0.2645,-0.1524 0.4744,-0.3733 0.6301,-0.6627 0.1556,-0.2894 0.2335,-0.6269 0.2335,-1.0131zm2.7353 -3.3793c-0.1619,0 -0.2988,-0.0559 -0.4107,-0.168 -0.1121,-0.1122 -0.168,-0.2491 -0.168,-0.4109 0,-0.1619 0.0559,-0.2988 0.168,-0.4107 0.1119,-0.1121 0.2488,-0.168 0.4107,-0.168 0.1556,0 0.288,0.0559 0.3968,0.168 0.109,0.1119 0.1634,0.2488 0.1634,0.4107 0,0.1618 -0.0544,0.2987 -0.1634,0.4109 -0.1087,0.1121 -0.2411,0.168 -0.3968,0.168zm0.4109 0.8308l0 5.1161 -0.8496 0 0 -5.1161 0.8496 0zm1.1295 2.5393c0,-0.5228 0.1058,-0.9817 0.3175,-1.377 0.2116,-0.3952 0.5025,-0.7018 0.8728,-0.9196 0.3704,-0.2177 0.7827,-0.3267 1.2371,-0.3267 0.448,0 0.8369,0.0966 1.1668,0.2894 0.3299,0.193 0.5758,0.4358 0.7377,0.7281l0 -0.9335 0.8588 0 0 5.1161 -0.8588 0 0 -0.9522c-0.1681,0.2987 -0.4187,0.5461 -0.7517,0.7422 -0.3331,0.1959 -0.7203,0.294 -1.1623,0.294 -0.4542,0 -0.8651,-0.1122 -1.2323,-0.3362 -0.3671,-0.224 -0.6566,-0.5384 -0.8681,-0.9428 -0.2117,-0.4046 -0.3175,-0.8653 -0.3175,-1.3818zm4.332 0.0092c0,-0.3859 -0.0779,-0.7219 -0.2335,-1.008 -0.1557,-0.2864 -0.3656,-0.5059 -0.6301,-0.6582 -0.2647,-0.1526 -0.5556,-0.2287 -0.8729,-0.2287 -0.3175,0 -0.607,0.0748 -0.8683,0.224 -0.2614,0.1495 -0.4699,0.3673 -0.6256,0.6537 -0.1554,0.2861 -0.2332,0.6222 -0.2332,1.0081 0,0.3922 0.0778,0.7328 0.2332,1.0223 0.1557,0.2894 0.3642,0.5104 0.6256,0.6627 0.2614,0.1526 0.5508,0.2287 0.8683,0.2287 0.3173,0 0.6082,-0.0762 0.8729,-0.2287 0.2645,-0.1524 0.4744,-0.3733 0.6301,-0.6627 0.1556,-0.2894 0.2335,-0.6269 0.2335,-1.0131zm9.4571 -0.1866c0,0.1619 -0.0093,0.333 -0.0281,0.5134l-4.089 0c0.0311,0.5042 0.2037,0.8979 0.5182,1.1811 0.3142,0.2831 0.6955,0.4247 1.1435,0.4247 0.3673,0 0.6736,-0.0855 0.9195,-0.2569 0.2459,-0.1711 0.4187,-0.3997 0.5182,-0.686l0.915 0c-0.1371,0.4916 -0.4108,0.8915 -0.8216,1.1997 -0.4109,0.308 -0.9212,0.462 -1.5311,0.462 -0.4854,0 -0.9195,-0.109 -1.3023,-0.3268 -0.3828,-0.2178 -0.6831,-0.5275 -0.901,-0.9289 -0.2178,-0.4015 -0.3267,-0.8667 -0.3267,-1.3958 0,-0.5289 0.1058,-0.9925 0.3175,-1.3908 0.2116,-0.3985 0.5087,-0.7049 0.8915,-0.9195 0.3827,-0.2149 0.8231,-0.3223 1.3211,-0.3223 0.4855,0 0.915,0.1058 1.2882,0.3175 0.3735,0.2116 0.6615,0.5025 0.8636,0.8729 0.2023,0.3703 0.3035,0.7888 0.3035,1.2556zm-0.8777 -0.1774c0,-0.3237 -0.0714,-0.6022 -0.2147,-0.8355 -0.1431,-0.2335 -0.3376,-0.4109 -0.5835,-0.5322 -0.2459,-0.1214 -0.5182,-0.1821 -0.817,-0.1821 -0.4294,0 -0.795,0.1371 -1.0969,0.4109 -0.3018,0.274 -0.4746,0.6534 -0.5182,1.1389l3.2301 0zm6.3018 3.0155c-0.3923,0 -0.7438,-0.067 -1.055,-0.2007 -0.3113,-0.1338 -0.557,-0.3207 -0.7376,-0.5601 -0.1804,-0.2396 -0.2799,-0.5151 -0.2988,-0.8262l0.8777 0c0.025,0.2551 0.1447,0.4636 0.3594,0.6253 0.2148,0.1619 0.4964,0.2428 0.8448,0.2428 0.3237,0 0.5789,-0.0717 0.7655,-0.2148 0.1869,-0.143 0.2802,-0.3238 0.2802,-0.5415 0,-0.224 -0.0995,-0.3904 -0.2988,-0.4994 -0.1992,-0.109 -0.5073,-0.2163 -0.9243,-0.3221 -0.3796,-0.0995 -0.6893,-0.2007 -0.9289,-0.3034 -0.2396,-0.1027 -0.4451,-0.2552 -0.6162,-0.4575 -0.1712,-0.2022 -0.2566,-0.4683 -0.2566,-0.7982 0,-0.2614 0.0778,-0.501 0.2333,-0.7189 0.1556,-0.2178 0.3765,-0.3906 0.6629,-0.5182 0.2863,-0.1276 0.6129,-0.1913 0.9802,-0.1913 0.5663,0 1.0238,0.1432 1.3722,0.4296 0.3487,0.2862 0.5353,0.6784 0.5603,1.1761l-0.8496 0c-0.0187,-0.2675 -0.1262,-0.4823 -0.3223,-0.6442 -0.1959,-0.1618 -0.459,-0.2427 -0.7888,-0.2427 -0.305,0 -0.5477,0.0655 -0.7282,0.1961 -0.1804,0.1307 -0.2707,0.3018 -0.2707,0.5134 0,0.168 0.0546,0.3066 0.1634,0.4154 0.1089,0.109 0.2458,0.1961 0.4108,0.2616 0.165,0.0653 0.3937,0.1383 0.686,0.2192 0.3673,0.0997 0.6661,0.1976 0.8965,0.2942 0.2301,0.0964 0.4277,0.2411 0.5927,0.434 0.165,0.193 0.2504,0.4451 0.2568,0.7562 0,0.2801 -0.0779,0.5322 -0.2335,0.7562 -0.1556,0.224 -0.375,0.3999 -0.6581,0.5274 -0.2833,0.1276 -0.6084,0.1914 -0.9755,0.1914zm3.5007 -6.0309c-0.1618,0 -0.2987,-0.0559 -0.4106,-0.168 -0.1121,-0.1122 -0.168,-0.2491 -0.168,-0.4109 0,-0.1619 0.0559,-0.2988 0.168,-0.4107 0.1119,-0.1121 0.2488,-0.168 0.4106,-0.168 0.1557,0 0.288,0.0559 0.3969,0.168 0.109,0.1119 0.1633,0.2488 0.1633,0.4107 0,0.1618 -0.0543,0.2987 -0.1633,0.4109 -0.1088,0.1121 -0.2411,0.168 -0.3969,0.168zm0.4109 0.8308l0 5.1161 -0.8495 0 0 -5.1161 0.8495 0zm3.2582 5.2001c-0.3922,0 -0.7438,-0.067 -1.0549,-0.2007 -0.3114,-0.1338 -0.5571,-0.3207 -0.7377,-0.5601 -0.1804,-0.2396 -0.2799,-0.5151 -0.2987,-0.8262l0.8776 0c0.025,0.2551 0.1447,0.4636 0.3595,0.6253 0.2147,0.1619 0.4963,0.2428 0.8447,0.2428 0.3238,0 0.5789,-0.0717 0.7656,-0.2148 0.1869,-0.143 0.2801,-0.3238 0.2801,-0.5415 0,-0.224 -0.0995,-0.3904 -0.2987,-0.4994 -0.1993,-0.109 -0.5073,-0.2163 -0.9243,-0.3221 -0.3797,-0.0995 -0.6894,-0.2007 -0.9289,-0.3034 -0.2397,-0.1027 -0.4451,-0.2552 -0.6163,-0.4575 -0.1711,-0.2022 -0.2566,-0.4683 -0.2566,-0.7982 0,-0.2614 0.0779,-0.501 0.2333,-0.7189 0.1556,-0.2178 0.3765,-0.3906 0.6629,-0.5182 0.2864,-0.1276 0.6129,-0.1913 0.9802,-0.1913 0.5663,0 1.0238,0.1432 1.3722,0.4296 0.3488,0.2862 0.5353,0.6784 0.5603,1.1761l-0.8495 0c-0.0188,-0.2675 -0.1262,-0.4823 -0.3223,-0.6442 -0.1959,-0.1618 -0.459,-0.2427 -0.7889,-0.2427 -0.3049,0 -0.5477,0.0655 -0.7282,0.1961 -0.1804,0.1307 -0.2706,0.3018 -0.2706,0.5134 0,0.168 0.0545,0.3066 0.1633,0.4154 0.109,0.109 0.2459,0.1961 0.4109,0.2616 0.165,0.0653 0.3937,0.1383 0.686,0.2192 0.3673,0.0997 0.666,0.1976 0.8964,0.2942 0.2302,0.0964 0.4277,0.2411 0.5927,0.434 0.165,0.193 0.2505,0.4451 0.2569,0.7562 0,0.2801 -0.0779,0.5322 -0.2335,0.7562 -0.1557,0.224 -0.375,0.3999 -0.6582,0.5274 -0.2832,0.1276 -0.6084,0.1914 -0.9755,0.1914zm4.0983 -4.4998l0 3.0154c0,0.249 0.0531,0.4248 0.1588,0.5275 0.1058,0.1026 0.2894,0.154 0.5508,0.154l0.6255 0 0 0.7189 -0.7656 0c-0.473,0 -0.8279,-0.109 -1.0642,-0.3268 -0.2366,-0.2178 -0.3548,-0.5756 -0.3548,-1.0736l0 -3.0154 -0.6627 0 0 -0.7003 0.6627 0 0 -1.2882 0.8495 0 0 1.2882 1.3351 0 0 0.7003 -1.3351 0zm7.0298 1.6617c0,0.1619 -0.0092,0.333 -0.0281,0.5134l-4.089 0c0.0311,0.5042 0.2037,0.8979 0.5182,1.1811 0.3142,0.2831 0.6955,0.4247 1.1436,0.4247 0.3672,0 0.6736,-0.0855 0.9195,-0.2569 0.2458,-0.1711 0.4187,-0.3997 0.5182,-0.686l0.915 0c-0.1371,0.4916 -0.4109,0.8915 -0.8217,1.1997 -0.4108,0.308 -0.9211,0.462 -1.531,0.462 -0.4855,0 -0.9196,-0.109 -1.3023,-0.3268 -0.3828,-0.2178 -0.6831,-0.5275 -0.901,-0.9289 -0.2178,-0.4015 -0.3268,-0.8667 -0.3268,-1.3958 0,-0.5289 0.1059,-0.9925 0.3175,-1.3908 0.2117,-0.3985 0.5087,-0.7049 0.8915,-0.9195 0.3828,-0.2149 0.8231,-0.3223 1.3211,-0.3223 0.4855,0 0.915,0.1058 1.2882,0.3175 0.3735,0.2116 0.6614,0.5025 0.8636,0.8729 0.2023,0.3703 0.3034,0.7888 0.3034,1.2556zm-0.8776 -0.1774c0,-0.3237 -0.0714,-0.6022 -0.2148,-0.8355 -0.143,-0.2335 -0.3376,-0.4109 -0.5834,-0.5322 -0.2459,-0.1214 -0.5183,-0.1821 -0.817,-0.1821 -0.4294,0 -0.795,0.1371 -1.0969,0.4109 -0.3018,0.274 -0.4746,0.6534 -0.5182,1.1389l3.2301 0zm8.15 -2.278c0.3983,0 0.7532,0.0826 1.0642,0.2476 0.3112,0.1647 0.5571,0.4123 0.7375,0.7422 0.1806,0.3297 0.2708,0.7313 0.2708,1.2042l0 3.0155 -0.8403 0 0 -2.8941c0,-0.5104 -0.1261,-0.901 -0.3779,-1.1716 -0.2521,-0.2709 -0.593,-0.4061 -1.0224,-0.4061 -0.4418,0 -0.7936,0.1414 -1.0549,0.4247 -0.2614,0.2832 -0.3921,0.6924 -0.3921,1.2277l0 2.8194 -0.8403 0 0 -2.8941c0,-0.5104 -0.1259,-0.901 -0.3779,-1.1716 -0.2521,-0.2709 -0.593,-0.4061 -1.0224,-0.4061 -0.4418,0 -0.7936,0.1414 -1.055,0.4247 -0.2614,0.2832 -0.392,0.6924 -0.392,1.2277l0 2.8194 -0.8496 0 0 -5.1161 0.8496 0 0 0.7376c0.168,-0.2675 0.3937,-0.473 0.6767,-0.6162 0.2833,-0.1431 0.596,-0.2148 0.9384,-0.2148 0.4294,0 0.8091,0.0966 1.139,0.2894 0.3299,0.193 0.5755,0.4761 0.7374,0.8496 0.1432,-0.3609 0.3796,-0.6411 0.7095,-0.8403 0.3299,-0.1991 0.697,-0.2988 1.1016,-0.2988zm3.1461 2.6327c0,-0.5228 0.1059,-0.9817 0.3175,-1.377 0.2117,-0.3952 0.5025,-0.7018 0.8729,-0.9196 0.3704,-0.2177 0.7826,-0.3267 1.237,-0.3267 0.448,0 0.837,0.0966 1.1669,0.2894 0.3299,0.193 0.5757,0.4358 0.7376,0.7281l0 -0.9335 0.8588 0 0 5.1161 -0.8588 0 0 -0.9522c-0.168,0.2987 -0.4187,0.5461 -0.7517,0.7422 -0.333,0.1959 -0.7203,0.294 -1.1623,0.294 -0.4541,0 -0.865,-0.1122 -1.2323,-0.3362 -0.367,-0.224 -0.6565,-0.5384 -0.8681,-0.9428 -0.2116,-0.4046 -0.3175,-0.8653 -0.3175,-1.3818zm4.332 0.0092c0,-0.3859 -0.0779,-0.7219 -0.2335,-1.008 -0.1556,-0.2864 -0.3656,-0.5059 -0.6301,-0.6582 -0.2646,-0.1526 -0.5556,-0.2287 -0.8729,-0.2287 -0.3175,0 -0.607,0.0748 -0.8683,0.224 -0.2614,0.1495 -0.4699,0.3673 -0.6255,0.6537 -0.1554,0.2861 -0.2333,0.6222 -0.2333,1.0081 0,0.3922 0.0779,0.7328 0.2333,1.0223 0.1556,0.2894 0.3641,0.5104 0.6255,0.6627 0.2614,0.1526 0.5508,0.2287 0.8683,0.2287 0.3173,0 0.6083,-0.0762 0.8729,-0.2287 0.2645,-0.1524 0.4744,-0.3733 0.6301,-0.6627 0.1556,-0.2894 0.2335,-0.6269 0.2335,-1.0131zm4.1078 2.6515c-0.3923,0 -0.7438,-0.067 -1.055,-0.2007 -0.3113,-0.1338 -0.557,-0.3207 -0.7376,-0.5601 -0.1804,-0.2396 -0.2799,-0.5151 -0.2988,-0.8262l0.8777 0c0.025,0.2551 0.1447,0.4636 0.3594,0.6253 0.2148,0.1619 0.4964,0.2428 0.8448,0.2428 0.3237,0 0.5789,-0.0717 0.7655,-0.2148 0.1869,-0.143 0.2802,-0.3238 0.2802,-0.5415 0,-0.224 -0.0995,-0.3904 -0.2988,-0.4994 -0.1992,-0.109 -0.5073,-0.2163 -0.9243,-0.3221 -0.3796,-0.0995 -0.6893,-0.2007 -0.9289,-0.3034 -0.2396,-0.1027 -0.4451,-0.2552 -0.6162,-0.4575 -0.1712,-0.2022 -0.2566,-0.4683 -0.2566,-0.7982 0,-0.2614 0.0778,-0.501 0.2332,-0.7189 0.1557,-0.2178 0.3766,-0.3906 0.663,-0.5182 0.2863,-0.1276 0.6129,-0.1913 0.9802,-0.1913 0.5663,0 1.0238,0.1432 1.3722,0.4296 0.3487,0.2862 0.5353,0.6784 0.5603,1.1761l-0.8496 0c-0.0187,-0.2675 -0.1262,-0.4823 -0.3223,-0.6442 -0.1959,-0.1618 -0.459,-0.2427 -0.7889,-0.2427 -0.3049,0 -0.5476,0.0655 -0.7281,0.1961 -0.1804,0.1307 -0.2707,0.3018 -0.2707,0.5134 0,0.168 0.0546,0.3066 0.1634,0.4154 0.1089,0.109 0.2458,0.1961 0.4108,0.2616 0.165,0.0653 0.3937,0.1383 0.686,0.2192 0.3673,0.0997 0.6661,0.1976 0.8965,0.2942 0.2301,0.0964 0.4277,0.2411 0.5927,0.434 0.165,0.193 0.2504,0.4451 0.2568,0.7562 0,0.2801 -0.0779,0.5322 -0.2335,0.7562 -0.1556,0.224 -0.375,0.3999 -0.6581,0.5274 -0.2833,0.1276 -0.6084,0.1914 -0.9755,0.1914z"/>
  <path class="fil1" d="M47.8687 9.9897c4.7603,8.6413 4.7603,22.8182 0,31.4594 -0.6376,1.3851 -1.5555,2.6265 -2.6957,3.7239 -1.097,1.1401 -2.3384,2.0579 -3.7239,2.6954 -8.6413,4.7605 -22.8179,4.7605 -31.4591,0 -1.3855,-0.6374 -2.6269,-1.5553 -3.7241,-2.6954 -1.1402,-1.0974 -2.0581,-2.3388 -2.6956,-3.7239 -4.7603,-8.6413 -4.7603,-22.8182 0,-31.4594 0.6375,-1.3853 1.5554,-2.6267 2.6956,-3.724 1.0972,-1.1402 2.3386,-2.0579 3.7241,-2.6954 8.6413,-4.7603 22.8179,-4.7603 31.4591,0 1.3855,0.6375 2.6269,1.5553 3.7239,2.6954 1.1402,1.0973 2.0581,2.3387 2.6957,3.724zm-39.2055 8.6897c0.1547,-0.3746 0.5841,-0.553 0.9587,-0.3984 0.3749,0.1547 0.5532,0.584 0.3986,0.9587l-0.0783 0.193 -0.0757 0.194 -0.0737 0.195 -0.0711 0.1952 -0.0685 0.1961 -0.0664 0.1973 -0.0637 0.1978 -0.0615 0.1985 -0.0586 0.1988 -0.0565 0.1997 -0.0539 0.2007 -0.0516 0.201 -0.0488 0.2015 -0.0466 0.2023 -0.0442 0.2028 -0.0415 0.2031 -0.0393 0.204 -0.0366 0.2037 -0.0341 0.2047 -0.0316 0.205 -0.0289 0.2057 -0.0269 0.2057 -0.0238 0.2057 -0.0216 0.2072 -0.0191 0.2065 -0.0163 0.2072 -0.0144 0.2074 -0.0113 0.2075 -0.009 0.2079 -0.0063 0.2082 -0.004 0.2081 -0.0012 0.2083 0.0224 0.8747 0.0654 0.8628 0.108 0.85 0.1495 0.8363 0.1896 0.8215 0.2287 0.8056 0.267 0.7889 0.3038 0.7711 0.3402 0.7521 0.375 0.7323 0.4089 0.7109 0.4418 0.6894 0.4737 0.6656 0.5044 0.6418 0.5338 0.6162 0.5625 0.5901 0.59 0.5627 0.6164 0.5338 0.6415 0.5045 0.666 0.4732 0.6892 0.4419 0.7112 0.4089 0.732 0.375 0.7523 0.3402 0.7709 0.3039 0.7891 0.2669 0.8054 0.2287 0.8215 0.1895 0.8363 0.1496 0.85 0.108 0.8627 0.0654 0.8748 0.0223 0.1389 -0.0005 0.1394 -0.002 0.139 -0.0027 0.1391 -0.0038 0.1384 -0.0051 0.1391 -0.0065 0.1388 -0.0072 0.1385 -0.0085 0.1388 -0.0098 0.1388 -0.0106 0.138 -0.012 0.1379 -0.013 0.1385 -0.0143 0.1382 -0.0153 0.1376 -0.0163 0.1374 -0.0174 0.1378 -0.019 0.138 -0.0198 0.137 -0.0208 0.1369 -0.022 0.1371 -0.0234 0.1369 -0.0243 0.1366 -0.0255 0.1361 -0.0264 0.1362 -0.0276 0.1362 -0.0286 0.1352 -0.0298 0.1355 -0.0311 0.1356 -0.0323 0.1346 -0.0331 0.1349 -0.0345 0.1347 -0.0354c0.3916,-0.1049 0.7942,0.1277 0.899,0.5192 0.105,0.3916 -0.1276,0.7943 -0.5192,0.8991l-0.1459 0.0384 -0.1464 0.0374 -0.1469 0.0363 -0.1469 0.0348 -0.147 0.0336 -0.1481 0.0326 -0.1473 0.0311 -0.1479 0.0301 -0.1485 0.0289 -0.1482 0.0274 -0.1485 0.0265 -0.1487 0.025 -0.1492 0.0241 -0.1492 0.0228 -0.1489 0.0214 -0.1492 0.0203 -0.1499 0.0191 -0.1502 0.0179 -0.1496 0.0165 -0.1499 0.0155 -0.1508 0.0143 -0.1503 0.0129 -0.1504 0.0115 -0.1502 0.0106 -0.1509 0.0093 -0.1506 0.008 -0.1506 0.0068 -0.1512 0.0055 -0.1514 0.0043 -0.1507 0.0032 -0.1509 0.0019 -0.1514 0.0007 -0.9486 -0.024 -0.9371 -0.0712 -0.9234 -0.1174 -0.9085 -0.1624 -0.8929 -0.2059 -0.8761 -0.2486 -0.8576 -0.2905 -0.8381 -0.3304 -0.8175 -0.3695 -0.7957 -0.4076 -0.7728 -0.4446 -0.7486 -0.4798 -0.7233 -0.5142 -0.6972 -0.5477 -0.6693 -0.5801 -0.6406 -0.6105 -0.6109 -0.6409 -0.5796 -0.6694 -0.5478 -0.6968 -0.5144 -0.7234 -0.4799 -0.7488 -0.4445 -0.7726 -0.4076 -0.7959 -0.3695 -0.8173 -0.3304 -0.8383 -0.2905 -0.8574 -0.2486 -0.8763 -0.206 -0.8929 -0.1623 -0.9085 -0.1174 -0.9235 -0.0712 -0.9371 -0.024 -0.9486 0.0013 -0.2264 0.0044 -0.2263 0.0068 -0.2258 0.0096 -0.2258 0.0127 -0.2258 0.015 -0.2252 0.0179 -0.2253 0.021 -0.2247 0.0233 -0.2242 0.0261 -0.2239 0.0289 -0.2237 0.0316 -0.2233 0.0345 -0.2228 0.0369 -0.2222 0.0399 -0.2219 0.0426 -0.2215 0.045 -0.2207 0.0479 -0.2202 0.0504 -0.2192 0.0532 -0.2192 0.0562 -0.2187 0.0585 -0.2173 0.061 -0.2171 0.0641 -0.2166 0.0668 -0.2158 0.0692 -0.2146 0.072 -0.214 0.0742 -0.2134 0.0777 -0.2129 0.0795 -0.2108 0.0823 -0.2107 0.0852 -0.21zm21.5141 4.7173l-0.0737 0.3838 -0.0877 0.3805 -0.102 0.3766 -0.1163 0.3722 -0.1305 0.3674 -0.1453 0.3623 -0.1598 0.3564 -0.1747 0.3495c-0.0086,0.0165 -0.0179,0.0326 -0.0276,0.0483l-0.1239 0.2161 -0.1753 0.2709 -0.197 0.2814 -0.2167 0.2934 -0.234 0.3059 -0.2485 0.3192 -0.2607 0.3322 -0.27 0.3444 -0.2763 0.3562 -0.2798 0.367 -0.2801 0.3773 -0.2782 0.3861 -0.2722 0.3941 -0.2633 0.4012 -0.2524 0.4068 -0.2373 0.4113 -0.2198 0.414 -0.1996 0.4164 -0.1763 0.4164 -0.1509 0.4153 -0.1224 0.4129 -0.0925 0.4085 -0.06 0.4037 -0.0263 0.3977 0.0097 0.3921 0.0467 0.3868 0.0863 0.3825 0.1291 0.3803 0.1749 0.3791 0.2261 0.3795 0.282 0.3809 0.3429 0.3821c0.2839,0.2892 0.2798,0.7542 -0.0095,1.038 -0.1526,0.1498 -0.354,0.2194 -0.5519,0.2094l-0.0062 -0.0005c-0.0093,-0.0005 -0.0188,-0.0013 -0.0282,-0.0021l-0.1623 -0.0128 -0.1965 -0.026 -0.1961 -0.0351 -0.1965 -0.0439 -0.1965 -0.0518 -0.196 -0.0596 -0.196 -0.0664 -0.1958 -0.0732 -0.1953 -0.079 -0.1948 -0.0847 -0.1941 -0.09 -0.1933 -0.095 -0.192 -0.0995 -0.191 -0.1033 -0.1899 -0.1078 -0.1878 -0.1112 -0.186 -0.1141 -0.1833 -0.1171 -0.1806 -0.1193 -0.1784 -0.1214 -0.1748 -0.1235 -0.1719 -0.1244 -0.168 -0.1262 -0.164 -0.1267 -0.1597 -0.1273 -0.1554 -0.1271 -0.1509 -0.1277 -0.1449 -0.1265 -0.1401 -0.126 -0.1348 -0.1254 -0.1286 -0.1241 -0.1224 -0.1226c-0.0008,-0.0008 -0.0017,-0.0017 -0.0024,-0.0025l-0.0742 -0.076 -0.0711 -0.0724 -0.0654 -0.0673 -0.0607 -0.0625 -0.0561 -0.0582 -0.0522 -0.0544 -0.0479 -0.0506 -0.0447 -0.0477 -0.0428 -0.0463 -0.0401 -0.0444 -0.0378 -0.0424 -0.0356 -0.0414 -0.0342 -0.0407 -0.0335 -0.0416 -0.0318 -0.0405 -0.0302 -0.0404 -0.0298 -0.0413 -0.0274 -0.0397 -0.0263 -0.0388 -0.0261 -0.0399 -0.0248 -0.0386 -0.0251 -0.0397 -0.0256 -0.0416 -0.0258 -0.0416 -0.0269 -0.0435 -0.0289 -0.0471 -0.0311 -0.0504 -0.0327 -0.0527 -0.0361 -0.0574 -0.0407 -0.0641 -0.0432 -0.0678 -0.0479 -0.0739 -0.0152 -0.0242 -0.1511 -0.2427 -0.1547 -0.2709 -0.143 -0.274 -0.1316 -0.2775 -0.1203 -0.2801 -0.1088 -0.2826 -0.0974 -0.2847 -0.0864 -0.2871 -0.0753 -0.2892 -0.0637 -0.29 -0.0529 -0.2909 -0.0421 -0.2923 -0.0308 -0.2922 -0.0204 -0.2932 -0.0095 -0.2928 0.001 -0.2924 0.0117 -0.2925 0.0218 -0.2909 0.0325 -0.2903 0.0428 -0.2894 0.0531 -0.2873 0.0627 -0.2853 0.0729 -0.2836 0.083 -0.2813 0.0925 -0.2785 0.1025 -0.2755 0.1118 -0.2728 0.1214 -0.2694 0.1309 -0.2659 0.1404 -0.262 0.1494 -0.2576 0.1587 -0.2537 0.0144 -0.0213 0.2101 -0.3116 0.2338 -0.3224 0.2413 -0.3123 0.2479 -0.3036 0.2536 -0.2951 0.2582 -0.2871 0.2617 -0.2807 0.2638 -0.2742 0.2657 -0.2692 0.2664 -0.2644 0.2657 -0.2604 0.2644 -0.2572 0.2618 -0.2546 0.259 -0.2529 0.2547 -0.2511 0.2493 -0.2507 0.2436 -0.2508 0.2369 -0.2512 0.2291 -0.2526 0.2207 -0.2538 0.2111 -0.2562 0.2013 -0.259 0.1906 -0.2625 0.179 -0.2659 0.1667 -0.2706 0.1545 -0.276 0.1411 -0.2818 0.1275 -0.2887 0.1133 -0.2963 0.0985 -0.3051 0.0832 -0.3151 0.0673 -0.3261 0.0231 -0.1443 0.0184 -0.1406 0.0136 -0.1372 0.0093 -0.134 0.0048 -0.1309 0.0006 -0.1292 -0.003 -0.1266 -0.0068 -0.1246 -0.0107 -0.1224 -0.0134 -0.1205 -0.0172 -0.1187 -0.0203 -0.1181 -0.0231 -0.1163 -0.0262 -0.116 -0.0286 -0.115 -0.0311 -0.1138 -0.0339 -0.1131 -0.0363 -0.1131 -0.0386 -0.113 -0.0407 -0.1129 -0.0422 -0.1123 -0.0443 -0.1122 -0.0463 -0.1131 -0.0472 -0.1129 -0.0488 -0.113 -0.0499 -0.1134 -0.0511 -0.114 -0.0518 -0.1149 -0.0522 -0.1155 -0.0529 -0.1159 -0.0531 -0.1178 -0.053 -0.1178c-0.1647,-0.3705 0.0021,-0.8046 0.3723,-0.9694 0.1466,-0.0653 0.3032,-0.0785 0.4492,-0.0477 0.0182,0.0038 0.0359,0.0083 0.0536,0.0133l0.08 0.0198 0.1286 0.0411 0.1246 0.048 0.1201 0.0537 0.1175 0.0586 0.1156 0.0641 0.1123 0.0676 0.1112 0.0713 0.1098 0.0753 0.1084 0.0787 0.1059 0.0808 0.1048 0.0834 0.104 0.086 0.1025 0.088 0.1012 0.0895 0.0991 0.0906 0.0978 0.0919 0.0965 0.0932 0.0938 0.0929 0.0925 0.0936 0.0904 0.093 0.0881 0.0931 0.0857 0.0919 0.0829 0.0907 0.0803 0.0893 0.0776 0.0873 0.0745 0.0857 0.0717 0.0838 0.0681 0.0806 0.0643 0.0773 0.0613 0.0749 0.0572 0.0707c0.0063,0.0078 0.0125,0.0159 0.0185,0.024l0.2225 0.2894 0.2286 0.3221 0.2158 0.3301 0.2031 0.3378 0.1903 0.3448 0.1782 0.3521 0.1651 0.3576 0.1524 0.3634 0.1394 0.3688 0.1266 0.373 0.1138 0.3771 0.1012 0.3812 0.0875 0.3841 0.0751 0.3861 0.0619 0.3888 0.0486 0.3907 0.0352 0.3915 0.0221 0.3923 0.0087 0.3927 -0.005 0.3922 -0.0181 0.3915 -0.0318 0.3905 -0.0459 0.3885 -0.0598 0.3862zm-9.6956 12.0102l0.1097 0.1059 0.1157 0.1078 0.1226 0.1101 0.1285 0.1122 0.1331 0.1127 0.1386 0.1135 0.143 0.1139 0.1472 0.1137 0.1508 0.1129 0.1543 0.112 0.157 0.1108 0.1599 0.109 0.1621 0.107 0.1635 0.1042 0.1646 0.1015 0.1655 0.0978 0.1662 0.0942 0.1663 0.0902 0.097 0.0501 -0.0724 -0.1566 -0.179 -0.5269 -0.1201 -0.5307 -0.0647 -0.5314 -0.0129 -0.5287 0.0341 -0.5237 0.0768 -0.5175 0.1148 -0.5098 0.1487 -0.5012 0.1788 -0.4929 0.2048 -0.4833 0.2269 -0.4738 0.2463 -0.464 0.2621 -0.4538 0.2742 -0.4428 0.2836 -0.4317 0.29 -0.4197 0.2924 -0.4066 0.2925 -0.3937 0.2892 -0.3791 0.2823 -0.3638 0.2727 -0.3481 0.2594 -0.3306 0.2428 -0.3117 0.2228 -0.2915 0.199 -0.269 0.1714 -0.2442 0.1397 -0.2159 0.1045 -0.1816 0.1473 -0.2949 0.1353 -0.3015 0.1233 -0.3074 0.1113 -0.3132 0.0993 -0.3181 0.0875 -0.3229 0.0753 -0.3267 0.0634 -0.3306 0.0514 -0.3339 0.0396 -0.3363 0.0276 -0.3389 0.0161 -0.3405 0.0042 -0.342 -0.0076 -0.3422 -0.0191 -0.3424 -0.0312 -0.3422 -0.0422 -0.3412 -0.0541 -0.3397 -0.0654 -0.3384 -0.0769 -0.3357 -0.0879 -0.3324 -0.0993 -0.3293 -0.1105 -0.3251 -0.1213 -0.3209 -0.1326 -0.3159 -0.143 -0.3102 -0.1537 -0.3042 -0.1649 -0.2981 -0.175 -0.2913 -0.1852 -0.2833 -0.196 -0.2758 -0.2058 -0.2678 -0.0505 -0.0626 -0.0539 -0.066 -0.0582 -0.0696 -0.0609 -0.0727 -0.0641 -0.0743 -0.067 -0.077 -0.07 -0.0791 -0.0721 -0.0804 -0.0085 -0.0091 0.0125 0.0549 0.0305 0.1542 0.0269 0.1564 0.0228 0.1598 0.0186 0.1629 0.0138 0.1653 0.0093 0.168 0.0043 0.1712 -0.001 0.1739 -0.0064 0.177 -0.0121 0.1803 -0.0182 0.1823 -0.0242 0.1852 -0.0272 0.1675c-0.001,0.0067 -0.0021,0.0135 -0.0034,0.0203l-0.0834 0.4051 -0.1034 0.3927 -0.1228 0.3798 -0.1402 0.3673 -0.157 0.3556 -0.1722 0.3437 -0.1858 0.3322 -0.1987 0.3223 -0.2099 0.3121 -0.22 0.303 -0.2289 0.2947 -0.2367 0.2871 -0.2435 0.2803 -0.249 0.2745 -0.2537 0.2693 -0.2577 0.2654 -0.2604 0.2617 -0.2622 0.2587 -0.2625 0.2567 -0.2634 0.2557 -0.2621 0.2549 -0.2604 0.2553 -0.2576 0.2556 -0.2537 0.2572 -0.2499 0.2593 -0.2443 0.262 -0.2383 0.2652 -0.2316 0.2688 -0.2236 0.2739 -0.2152 0.2788 -0.206 0.2841 -0.1965 0.2909 -0.1322 0.2117 -0.1248 0.2152 -0.1168 0.2181 -0.1089 0.2209 -0.1008 0.2236 -0.0929 0.2264 -0.0847 0.2286 -0.0768 0.2305 -0.0685 0.2327 -0.0601 0.2335 -0.0519 0.2359 -0.0435 0.2366 -0.035 0.2376 -0.0267 0.2383 -0.0181 0.2396 -0.0098 0.2391 -0.0006 0.2396 0.0074 0.2396 0.0168 0.239 0.0253 0.2391 0.0343 0.2383 0.0431 0.2377 0.0522 0.2363 0.0611 0.2354 0.0703 0.234 0.0797 0.2327 0.0891 0.2309 0.0983 0.2291 0.1076 0.2271 0.1177 0.2247 0.1269 0.2226 0.1367 0.2198 0.0518 0.0797 0.0471 0.0741 0.0424 0.067 0.0399 0.0632 0.0361 0.0582 0.0325 0.0524 0.0293 0.0474 0.0273 0.0443 0.0242 0.0396 0.0214 0.034 0.0198 0.0316 0.0181 0.0283 0.016 0.0246 0.0155 0.0226 0.0143 0.0207 0.0136 0.0186 0.0142 0.019 0.0153 0.0198 0.017 0.0208 0.0198 0.0236 0.0231 0.0269 0.0258 0.0293 0.0293 0.0325 0.0333 0.0359 0.0386 0.0411 0.0434 0.0455 0.0473 0.0496 0.0529 0.0546 0.0583 0.0602 0.0637 0.0652 0.0698 0.0717 0.0758 0.0778 0.1027 0.1023zm-7.8804 -25.2489l0.1464 -0.0248 0.1478 -0.0178 0.1477 -0.0104 0.1477 -0.0035 0.1479 0.0035 0.1476 0.0104 0.1477 0.0178 0.1464 0.0248 0.1453 0.0318 0.1441 0.0388 0.1424 0.0459 0.1411 0.0532 0.1384 0.0601 0.1362 0.0673 0.1334 0.0746 0.1296 0.081 0.1274 0.0887 0.1235 0.0958 0.119 0.102 0.1148 0.1091 0.1091 0.115 0.1022 0.119 0.0953 0.1231 0.0885 0.1271 0.0815 0.1303 0.0744 0.1335 0.067 0.1356 0.0602 0.1385 0.0533 0.1412 0.0458 0.1426 0.0391 0.1441 0.0316 0.1453 0.0248 0.1464 0.0178 0.1477 0.0104 0.1476 0.0035 0.1479 -0.0035 0.1479 -0.0104 0.1473 -0.0178 0.148 -0.0248 0.1464 -0.0318 0.1452 -0.0389 0.1441 -0.0458 0.1424 -0.0532 0.1411 -0.0601 0.1384 -0.0673 0.1363 -0.0746 0.1333 -0.0811 0.1296 -0.0885 0.1275 -0.0959 0.1235 -0.102 0.1189 -0.1091 0.1147 -0.1146 0.1091 -0.119 0.102 -0.1235 0.0958 -0.1274 0.0885 -0.1296 0.0812 -0.1334 0.0745 -0.1362 0.0674 -0.1384 0.0601 -0.1411 0.0532 -0.1424 0.0457 -0.1441 0.039 -0.1453 0.0318 -0.1464 0.0247 -0.1477 0.0177 -0.1476 0.0106 -0.1479 0.0035 -0.1477 -0.0035 -0.1477 -0.0106 -0.1478 -0.0177 -0.1464 -0.0247 -0.1452 -0.0318 -0.1441 -0.039 -0.1424 -0.0457 -0.1411 -0.0532 -0.1385 -0.0601 -0.1362 -0.0674 -0.1334 -0.0745 -0.1295 -0.0812 -0.1275 -0.0885 -0.1235 -0.0958 -0.1189 -0.102 -0.1147 -0.109 -0.1091 -0.1148 -0.102 -0.1189 -0.0958 -0.1235 -0.0885 -0.1275 -0.081 -0.1291 -0.0745 -0.1334 -0.0678 -0.1368 -0.0601 -0.139 -0.053 -0.1404 -0.0457 -0.1417 -0.0392 -0.1447 -0.0317 -0.1452 -0.0248 -0.1464 -0.0178 -0.148 -0.0105 -0.1473 -0.0035 -0.1479 0.0035 -0.1479 0.0105 -0.1476 0.0178 -0.1477 0.0248 -0.1464 0.0316 -0.1453 0.0393 -0.1447 0.0457 -0.1419 0.053 -0.1409 0.0603 -0.1388 0.0674 -0.1362 0.0745 -0.1333 0.0813 -0.1299 0.0886 -0.1271 0.0955 -0.1231 0.1019 -0.119 0.1093 -0.115 0.1147 -0.1091 0.1189 -0.102 0.1235 -0.0958 0.1275 -0.0887 0.1295 -0.081 0.1334 -0.0746 0.1362 -0.0673 0.1385 -0.0601 0.1411 -0.0532 0.1424 -0.0459 0.1441 -0.0388 0.1452 -0.0318zm-0.4954 1.8283l-0.0614 0.0581 -0.0577 0.0609 -0.0543 0.063 -0.0502 0.0649 -0.0462 0.066 -0.0425 0.0684 -0.039 0.0698 -0.0351 0.0711 -0.0313 0.0718 -0.0276 0.0736 -0.0242 0.0752 -0.0203 0.0754 -0.0168 0.0765 -0.0131 0.077 -0.0091 0.0768 -0.0055 0.0782 -0.0019 0.078 0.0019 0.078 0.0055 0.078 0.0091 0.077 0.0131 0.077 0.0166 0.0766 0.0205 0.0751 0.0242 0.0753 0.0276 0.0739 0.0315 0.0719 0.0346 0.0705 0.0391 0.0694 0.0429 0.069 0.0461 0.0662 0.05 0.0644 0.054 0.0628 0.0581 0.0613 0.0614 0.058 0.0628 0.0541 0.0643 0.05 0.0663 0.0461 0.0685 0.0427 0.0694 0.0386 0.071 0.0352 0.0725 0.0316 0.0732 0.0276 0.0749 0.024 0.0755 0.0206 0.0766 0.0164 0.077 0.0133 0.0768 0.009 0.0782 0.0056 0.078 0.0019 0.078 -0.0019 0.0781 -0.0056 0.0769 -0.009 0.077 -0.0133 0.0765 -0.0164 0.0757 -0.0206 0.0747 -0.024 0.0732 -0.0276 0.0725 -0.0316 0.0711 -0.0352 0.0694 -0.0386 0.0685 -0.0427 0.0662 -0.0461 0.0643 -0.05 0.0629 -0.0541 0.0612 -0.058 0.0581 -0.0613 0.0541 -0.0628 0.0499 -0.0644 0.0461 -0.0662 0.0428 -0.0685 0.0386 -0.0694 0.0351 -0.071 0.0316 -0.0725 0.0276 -0.0732 0.024 -0.0747 0.0206 -0.0757 0.0165 -0.0766 0.0133 -0.077 0.009 -0.077 0.0057 -0.078 0.0018 -0.078 -0.0018 -0.078 -0.0057 -0.0782 -0.009 -0.0768 -0.0133 -0.077 -0.0166 -0.0765 -0.0205 -0.0761 -0.024 -0.0745 -0.0274 -0.073 -0.0316 -0.0724 -0.0352 -0.0716 -0.0388 -0.0695 -0.0424 -0.0681 -0.0459 -0.066 -0.0504 -0.0649 -0.0541 -0.063 -0.0579 -0.0609 -0.0612 -0.0581 -0.0629 -0.0541 -0.0643 -0.0499 -0.0662 -0.0461 -0.0685 -0.0428 -0.0694 -0.0385 -0.0711 -0.0352 -0.0725 -0.0316 -0.0732 -0.0276 -0.0747 -0.024 -0.0757 -0.0206 -0.0765 -0.0167 -0.077 -0.0131 -0.0769 -0.0091 -0.0781 -0.0055 -0.078 -0.0018 -0.078 0.0018 -0.0782 0.0055 -0.0768 0.0091 -0.077 0.0131 -0.0766 0.0167 -0.0755 0.0206 -0.0749 0.024 -0.0732 0.0276 -0.0725 0.0316 -0.071 0.0352 -0.0694 0.0385 -0.0685 0.0428 -0.0663 0.0461 -0.0643 0.0499 -0.0628 0.0541zm21.5409 19.6557c-0.0028,0.0053 -0.0058,0.0106 -0.0088,0.0159l0.0088 -0.0159zm-4.7114 -0.799l-0.2438 0.3017 -0.2345 0.2994 -0.2244 0.2981 -0.2121 0.2975 -0.1982 0.2985 -0.1837 0.2997 -0.167 0.3028 -0.1499 0.3063 -0.1311 0.3116 -0.1116 0.3183 -0.0916 0.3268 -0.0702 0.3377 -0.0472 0.3512 -0.0112 0.1494 -0.0035 0.1464 0.004 0.1439 0.0111 0.1415 0.018 0.1384 0.0244 0.1347 0.0312 0.1319 0.0373 0.1285 0.0437 0.1244 0.0494 0.1209 0.0558 0.1175 0.0607 0.1129 0.0662 0.1084 0.0719 0.1045 0.0768 0.0998 0.0822 0.0959 0.0863 0.0905 0.0915 0.0854 0.096 0.0807 0.1001 0.0751 0.1045 0.0695 0.1098 0.0644 0.1137 0.0588 0.1176 0.0524 0.1216 0.0464 0.1103 0.0352 -0.0048 -0.0579 -0.0062 -0.1444 -0.0006 -0.1426 0.0057 -0.1414 0.0119 -0.1402 0.0184 -0.1391 0.0247 -0.1369 0.0308 -0.1346 0.0371 -0.1336 0.0424 -0.1311 0.0479 -0.1296 0.0524 -0.1274 0.0573 -0.1268 0.0618 -0.1266 0.0655 -0.125 0.0695 -0.1266 0.0742 -0.1286 0.0774 -0.1292 0.0813 -0.1322 0.0857 -0.1361 0.0898 -0.1399 0.094 -0.1447 0.098 -0.1499 0.1027 -0.1559 0.107 -0.1628 0.1116 -0.1699 0.0734 -0.1096 0.0751 -0.1077 0.0767 -0.1059 0.0775 -0.104 0.0789 -0.1027 0.0802 -0.1014 0.0805 -0.0994 0.0812 -0.0986 0.0815 -0.0976 0.0817 -0.0961 0.0821 -0.0959 0.0822 -0.0949 0.0815 -0.0942 0.0816 -0.0935 0.0813 -0.0936 0.0807 -0.0932 0.0792 -0.0919 0.0786 -0.0925 0.0783 -0.093 0.0767 -0.0924 0.0757 -0.0923 0.0742 -0.093 0.0726 -0.0925 0.0709 -0.0932 0.0694 -0.0932 0.0672 -0.0938 0.066 -0.095 0.0638 -0.095 0.0612 -0.0953 0.0592 -0.0967 0.0571 -0.097 0.0545 -0.0983 0.056 -0.1052 0.0544 -0.1074 0.0536 -0.1098 0.0518 -0.1112 0.0504 -0.1135 0.0491 -0.116 0.0471 -0.1166 0.0454 -0.1193 0.044 -0.1211 0.042 -0.123 0.0399 -0.1237 0.0378 -0.1258 0.0359 -0.1276 0.0338 -0.1288 0.0312 -0.1306 0.0291 -0.1314 0.0265 -0.1333 0.0244 -0.1347 0.0216 -0.1354 0.019 -0.1373 0.0164 -0.1385 0.0135 -0.1388 0.0108 -0.1402 0.0075 -0.1417 0.0049 -0.143 0.0019 -0.1437 -0.0011 -0.1441 -0.0048 -0.1453 -0.0078 -0.1469 -0.0112 -0.147 -0.0146 -0.1482 -0.0179 -0.1489 -0.0157 -0.1059 -0.0195 -0.1085 -0.0232 -0.1119 -0.0269 -0.1147 -0.0302 -0.1157 -0.0338 -0.1181 -0.0369 -0.119 -0.0399 -0.1193 -0.0431 -0.1199 -0.0461 -0.1208 -0.0482 -0.1195 -0.0506 -0.1183 -0.0535 -0.1178 -0.0554 -0.1161 -0.0577 -0.1152 -0.0591 -0.1121 -0.0571 -0.1027 -0.0966 0.4171 -0.1404 0.4802 -0.1627 0.4604 -0.1825 0.4417 -0.2 0.4233 -0.2154 0.4068 -0.2284 0.391 -0.2393 0.3762 -0.2474 0.3628 -0.2542 0.3507 -0.2585 0.34 -0.2607 0.3303 -0.2612 0.3222 -0.2595 0.3156 -0.2561 0.3094 -0.2506 0.3053zm5.3717 -5.4717l0.0501 0.1499 0.0464 0.1499 0.043 0.1502 0.0393 0.1506 0.0351 0.15 0.0312 0.1499 0.0269 0.1502 0.0223 0.1492c0.0008,0.0065 0.0017,0.0131 0.0023,0.0197l0.0198 0.1626 0.018 0.1809 0.0136 0.1804 0.0095 0.1786 0.0055 0.178 0.0016 0.1772 -0.0023 0.175 -0.0056 0.1738 -0.0099 0.1723 -0.0128 0.1712 -0.0166 0.1699 -0.0199 0.168 -0.0231 0.1662 -0.0262 0.1651 -0.0293 0.1626 -0.0324 0.1611 -0.0352 0.1601 -0.038 0.1572 -0.0407 0.1562 -0.0433 0.1536 -0.0455 0.1517 -0.0485 0.1502 -0.0505 0.1477 -0.0526 0.1456 -0.0548 0.1432 -0.0571 0.1417 -0.0591 0.1391 -0.0607 0.1371 -0.0628 0.1347 -0.0642 0.132 -0.066 0.1302c-0.0225,0.0423 -1.0155,1.7819 -0.0764,0.1435l-0.0622 0.1116 -0.0731 0.1247 -0.075 0.1218 -0.077 0.1202 -0.0784 0.1168 -0.0794 0.1144 -0.0808 0.1126 -0.0818 0.1103 -0.0827 0.1083 -0.0836 0.1067 -0.0834 0.104 -0.0838 0.1029 -0.0841 0.1013 -0.0837 0.0991 -0.0835 0.0984 -0.084 0.0976 -0.0829 0.0952 -0.0817 0.0941 -0.0811 0.0935 -0.0804 0.0925 -0.0789 0.0912 -0.0779 0.0908 -0.0764 0.09 -0.0745 0.089 -0.0732 0.0891 -0.0711 0.088 -0.069 0.0873 -0.0669 0.0869 -0.0647 0.0866 -0.0628 0.0865 -0.0597 0.0862 -0.0578 0.0857 -0.1125 0.1715 -0.1072 0.1629 -0.1015 0.1547 -0.096 0.1466 -0.0902 0.1389 -0.0844 0.1318 -0.0783 0.124 -0.0726 0.1183 -0.067 0.1118 -0.0606 0.1046 -0.0546 0.0998 -0.0494 0.0946 -0.0435 0.0887 -0.0378 0.0836 -0.0329 0.08 -0.0281 0.0759 -0.0238 0.0728 -0.0193 0.0706 -0.016 0.0697 -0.0128 0.0696 -0.0093 0.0702 -0.0062 0.0728 -0.0032 0.0762 0.0005 0.0808 0.004 0.0857 0.0076 0.0924 0.0117 0.0994 0.016 0.1059 0.0204 0.1141 0.025 0.122 0.0299 0.1309 0.0346 0.1394c0.101,0.3926 -0.1353,0.7932 -0.5279,0.8942 -0.0501,0.0129 -0.1005,0.0203 -0.1502,0.0225 -0.0153,0.0008 -0.0306,0.001 -0.046,0.0007l-0.1833 0.0035 -0.2256 -0.0082 -0.2226 -0.0196 -0.2188 -0.0316 -0.2139 -0.043 -0.2088 -0.054 -0.204 -0.0651 -0.1982 -0.0757 -0.1928 -0.0863 -0.1858 -0.096 -0.1791 -0.1053 -0.1731 -0.115 -0.1658 -0.1241 -0.1576 -0.1322 -0.15 -0.1404 -0.1421 -0.1487 -0.1333 -0.1553 -0.1251 -0.1627 -0.1161 -0.1692 -0.1074 -0.1761 -0.098 -0.1818 -0.0884 -0.1869 -0.079 -0.1925 -0.069 -0.1975 -0.0587 -0.2016 -0.049 -0.2058 -0.0382 -0.2098 -0.0274 -0.2126 -0.017 -0.2158 -0.0061 -0.2186 0.0052 -0.2211 0.0166 -0.2221 0.0613 -0.4532 0.0905 -0.4373 0.1178 -0.4212 0.1423 -0.4056 0.1645 -0.3908 0.1839 -0.3762 0.2004 -0.3633 0.2149 -0.3518 0.227 -0.3411 0.2368 -0.3325 0.2445 -0.3249 0.2501 -0.3193 0.2544 -0.3148 0.256 -0.3115 0.2564 -0.3102 0.255 -0.3097 0.2517 -0.3107 0.2467 -0.3127 0.2398 -0.3156 0.2323 -0.3208 0.2228 -0.3259 0.2113 -0.3323 0.1993 -0.3407 0.1852 -0.3497 0.1704 -0.3607 0.154 -0.3722 0.1362 -0.3861 0.1176 -0.4012 0.097 -0.4186 0.0753 -0.4373 0.0517 -0.4583 0.0268 -0.4816c0.0106,-0.4053 0.3482,-0.7252 0.7534,-0.7144 0.1319,0.0035 0.2547,0.0416 0.36,0.1053 0.0134,0.0081 0.0266,0.0168 0.0394,0.0256l0.0776 0.0501 0.1125 0.0819 0.1086 0.0875 0.1046 0.0921 0.102 0.098 0.0985 0.102 0.0961 0.1063 0.0933 0.1105 0.0915 0.114 0.0892 0.1188 0.0868 0.1218 0.0847 0.1248 0.0828 0.129 0.0801 0.1313 0.0778 0.1333 0.0761 0.1371 0.073 0.1388 0.0709 0.1406 0.0679 0.1426 0.0656 0.1445 0.0628 0.1464 0.0594 0.1472 0.0564 0.1476 0.0535 0.1488zm9.5019 3.9882l-0.1287 0.59 -0.1476 0.5842 -0.1665 0.578 -0.1846 0.5713 -0.203 0.5642 -0.2211 0.5564 -0.2385 0.5484 -0.2562 0.5402 -0.2729 0.5313 -0.2904 0.522 -0.3071 0.5124 -0.3234 0.5021 -0.3397 0.4919 -0.3557 0.481 -0.3713 0.4698 -0.3871 0.4577 -0.4025 0.4457 -0.4173 0.4329 -0.4318 0.4201 -0.4467 0.4064 -0.461 0.393 -0.475 0.3785 -0.4887 0.3637 -0.5024 0.3489 -0.5159 0.333 -0.5285 0.3171c-0.351,0.2024 -0.8004,0.0823 -1.0028,-0.2688 -0.2026,-0.3513 -0.0823,-0.8004 0.2688,-1.0029l0.4868 -0.292 0.4746 -0.3066 0.4621 -0.3209 0.4502 -0.3351 0.4372 -0.348 0.4242 -0.3615 0.4109 -0.3743 0.3976 -0.3864 0.3841 -0.3986 0.3702 -0.4103 0.3562 -0.4214 0.342 -0.432 0.3272 -0.4427 0.3128 -0.4527 0.2975 -0.4625 0.2826 -0.4715 0.2672 -0.4806 0.2518 -0.4889 0.2355 -0.4973 0.2198 -0.505 0.2035 -0.5123 0.1868 -0.5186 0.1699 -0.5259 0.1532 -0.532 0.136 -0.5376 0.1185 -0.543 0.1009 -0.5482 0.0831 -0.5528 0.0652 -0.557 0.0466 -0.5608 0.0281 -0.5645 0.0098 -0.5674 -0.0223 -0.8748 -0.0656 -0.8627 -0.1079 -0.85 -0.1495 -0.8363 -0.1896 -0.8215 -0.2288 -0.8053 -0.2668 -0.7891 -0.304 -0.771 -0.3402 -0.7521 -0.375 -0.7322 -0.4089 -0.7114 -0.4418 -0.6889 -0.4735 -0.6658 -0.5044 -0.6418 -0.5338 -0.6162 -0.5627 -0.5901 -0.5898 -0.5627 -0.6165 -0.5338 -0.6416 -0.5043 -0.666 -0.4734 -0.689 -0.442 -0.7112 -0.4088 -0.7322 -0.375 -0.7523 -0.3403 -0.7709 -0.3037 -0.7891 -0.2671 -0.8054 -0.2287 -0.8215 -0.1895 -0.8363 -0.1496 -0.85 -0.108 -0.8627 -0.0654 -0.875 -0.0223 -0.2076 0.0011 -0.2077 0.004 -0.2078 0.0063 -0.2071 0.0089 -0.2068 0.0113 -0.2068 0.014 -0.2065 0.0163 -0.2061 0.0189 -0.2062 0.0214 -0.2051 0.024 -0.2055 0.0265 -0.2048 0.0289 -0.2046 0.0314 -0.204 0.0338 -0.2036 0.0366 -0.2032 0.0388 -0.2026 0.0412 -0.2021 0.0437 -0.2013 0.0463 -0.2011 0.0488 -0.2007 0.0513 -0.1997 0.0533 -0.1994 0.0562 -0.1986 0.0585 -0.1978 0.0609 -0.1971 0.0633 -0.1967 0.0659 -0.196 0.0682 -0.1948 0.0706 -0.194 0.0728 -0.1937 0.0757 -0.1927 0.0779c-0.3748,0.1542 -0.804,-0.0248 -0.9582,-0.3997 -0.1542,-0.375 0.0248,-0.8042 0.3996,-0.9584l0.2092 -0.0843 0.2103 -0.0821 0.2111 -0.0795 0.2122 -0.0767 0.2125 -0.074 0.2133 -0.0715 0.2145 -0.0689 0.215 -0.0662 0.2157 -0.0634 0.2165 -0.061 0.2172 -0.0581 0.2175 -0.0558 0.2185 -0.0529 0.219 -0.0503 0.2198 -0.0476 0.2202 -0.0449 0.2205 -0.0422 0.2213 -0.0394 0.2217 -0.0366 0.2219 -0.0343 0.2226 -0.0314 0.2228 -0.0289 0.2238 -0.026 0.2232 -0.0231 0.2241 -0.0206 0.2246 -0.0179 0.2244 -0.015 0.2251 -0.0125 0.2253 -0.0095 0.2247 -0.0068 0.2256 -0.0043 0.2261 -0.0013 0.9488 0.024 0.937 0.0711 0.9234 0.1175 0.9087 0.1623 0.8929 0.206 0.8759 0.2485 0.8576 0.2905 0.8383 0.3304 0.8175 0.3695 0.7956 0.4076 0.7728 0.4443 0.7486 0.48 0.7235 0.5143 0.697 0.5476 0.6694 0.5801 0.6405 0.6106 0.6109 0.6408 0.5798 0.6694 0.5476 0.6969 0.5145 0.7231 0.4799 0.7488 0.4445 0.7728 0.4074 0.7959 0.3696 0.8173 0.3302 0.8382 0.2905 0.8576 0.2486 0.8759 0.2061 0.893 0.1623 0.9085 0.1174 0.9234 0.0712 0.9371 0.0238 0.9486 -0.0103 0.6162 -0.0307 0.6132 -0.0507 0.6094 -0.0705 0.6055 -0.0905 0.6003 -0.1097 0.5956z"/>
  <g id="_2038021248464">
   <path class="fil2" d="M14.6278 15.9266c3.0454,-1.6004 1.5736,-6.3778 -2.0265,-5.7686 -0.7304,0.1598 -1.3287,0.4974 -1.8062,1.0822 -2.1091,2.5833 0.8811,6.2375 3.8327,4.6864zm-2.3948 -4.0444c1.6351,-1.2025 3.5546,1.1501 2.0431,2.5131 -1.553,1.4001 -3.7643,-0.901 -2.1703,-2.4091l0.1272 -0.1041z"/>
   <path class="fil2" d="M23.0154 22.5537c2.0476,-2.0385 3.9774,-4.633 3.2772,-7.7258 1.9825,2.1278 2.8785,5.12 2.4894,7.9847 -0.2661,1.9582 -0.8362,2.9077 -1.9744,4.3632 -2.0479,2.619 -5.2473,6.6106 -3.5805,10.2105l-2.7455 -1.9795 -0.7437 -0.7942c-0.6826,-0.9648 -1.2273,-2.0436 -1.4183,-3.2179 -0.645,-3.967 2.1625,-6.3189 4.6957,-8.8409zm-4.4156 12.9891c1.1826,1.5366 4.0066,3.5602 5.9894,3.8687 1.376,0.2141 1.2804,-0.8588 0.9546,-1.2059 -1.878,-2.0005 -1.5008,-4.0902 -0.25,-6.3486 2.0571,-3.7138 4.0814,-4.283 4.8836,-8.4604 0.309,-2.0007 0.1664,-3.8929 -0.52,-5.8064 -0.6561,-1.8288 -2.2183,-4.151 -3.9432,-5.2237 -1.5032,-0.9348 -1.9039,0.1357 -1.6737,0.651l0.5061 1.1485c1.7668,4.4013 -2.663,7.1265 -5.1884,9.9989 -2.0868,2.3737 -3.1785,5.1885 -2.2957,8.3357l1.5374 3.0422z"/>
   <path class="fil2" d="M32.4487 24.81c0.5954,1.0682 0.8203,2.0391 0.7404,3.264 -0.2011,3.0839 -1.9157,4.0587 -3.141,5.8529 -0.7853,1.1501 -1.6208,2.2582 -1.5088,3.6228 -0.5836,-0.1858 -1.0415,-0.5316 -1.3483,-1.067 -1.0804,-1.8847 0.6,-4.223 1.7443,-5.6398 1.6474,-2.0072 2.9054,-3.4087 3.5133,-6.0329zm-1.4658 10.3654c0.8855,-1.3479 1.7615,-2.0504 2.4888,-3.2334 0.117,-0.2058 0.2351,-0.4133 0.2425,-0.4277 0.9683,-1.8761 1.2695,-4.1187 0.5927,-6.1432 -0.3367,-0.9372 -0.9007,-2.0251 -1.6731,-2.6756 -0.8823,-0.743 -1.4307,-0.1464 -1.4515,0.3642 -0.2129,5.2066 -4.6173,6.6634 -5.6219,10.7974 -0.6981,2.8725 1.0114,5.2418 3.6775,5.2651 0.6654,0.0058 1.0484,-0.3633 0.9074,-0.9207 -0.3522,-1.3928 -0.0209,-1.7191 0.8376,-3.026z"/>
   <path class="fil2" d="M34.5256 11.194c10.8951,6.6196 10.9878,22.5872 -0.3144,29.2339 -0.8476,0.4986 -0.0867,1.7545 0.734,1.2718 4.7143,-2.7728 7.7,-7.0114 8.8638,-12.3401l0.3214 -2.4109c0.9054,-13.6 -12.7655,-23.4584 -25.4311,-18.294 -0.8915,0.3633 -0.34,1.7244 0.5587,1.358 4.9746,-2.0282 10.6281,-1.6375 15.2677,1.1814z"/>
   <path class="fil2" d="M7.5373 22.5739c-2.2912,13.2185 9.9028,24.3619 22.8118,21.0071 1.2173,-0.3163 0.6389,-1.688 -0.2339,-1.4565l-2.8689 0.5099c-12.6515,1.145 -22.068,-11.556 -17.2258,-23.3946 0.365,-0.8923 -0.9901,-1.4493 -1.3574,-0.5603l-1.1258 3.8945z"/>
  </g>
  <path class="fil3" d="M122.4231 5.3811l5.6246 0 0 4.5105 -5.6246 0 0 -4.5105zm-56.8857 30.437l0 -3.3709 2.983 -0.5781 0 -20.1141 -2.983 -0.5781 0 -3.3908 11.5914 0 0 3.3908 -2.9834 0.5781 0 20.1141 2.9834 0.5781 0 3.3709 -11.5914 0zm55.5775 -25.9265c-1.9604,0 -3.4163,-0.056 -4.6978,1.0748 -0.6637,0.5916 -0.9986,1.4523 -0.9986,2.5955l0 1.4261 12.6292 0 0 16.8811 2.9834 0.5781 0 3.3709 -11.3219 0 0 -3.3709 2.7139 -0.5781 0 -12.9319 -7.0047 0 0 12.9319 2.7136 0.5781 0 3.3709 -11.3418 0 0 -3.3709 3.0033 -0.5781 0 -12.9319 -3.0952 0 0 -3.9492 3.0952 0 0 -1.4261c0,-2.6153 0.8016,-4.6327 2.3985,-6.0518 1.5965,-1.4193 3.8504,-2.1291 6.7483,-2.1291 0.7301,0 1.4703,0 2.1744,0l0 1.212 0 3.2985zm-28.9909 26.3339c-1.8861,-0.0063 -3.6075,-0.3547 -5.1581,-1.0643 -1.5509,-0.7034 -2.8915,-1.6956 -4.0152,-2.9701 -1.1235,-1.2814 -1.9845,-2.7797 -2.5889,-4.5078 -0.6046,-1.7217 -0.9069,-3.6142 -0.9069,-5.6708l0 -0.4207c0,-2.0435 0.3023,-3.923 0.9069,-5.6511 0.6043,-1.7282 1.4654,-3.2327 2.5822,-4.5143 1.1174,-1.2814 2.4511,-2.2804 4.0021,-2.9834 1.5505,-0.703 3.2723,-1.058 5.1581,-1.058 1.8988,0 3.6336,0.355 5.1977,1.058 1.5704,0.703 2.9177,1.702 4.0477,2.9834 1.1235,1.2815 1.9976,2.7861 2.6023,4.5143 0.6111,1.7281 0.9201,3.6075 0.9201,5.6511l0 0.4207c0,2.0566 -0.309,3.9492 -0.9201,5.6708 -0.6047,1.7282 -1.4788,3.2264 -2.6023,4.5078 -1.1301,1.2744 -2.4773,2.2667 -4.0347,2.9701 -1.5637,0.7096 -3.2921,1.058 -5.191,1.0643zm0 -4.3764c1.5902,0 2.9177,-0.4073 3.9689,-1.2287 1.0513,-0.8214 1.8398,-1.9714 2.3787,-3.4431 0.5322,-1.4785 0.7949,-3.2002 0.7949,-5.1649l0 -0.46c0,-1.9385 -0.2694,-3.6404 -0.808,-5.1125 -0.5389,-1.4654 -1.3405,-2.6153 -2.3985,-3.4364 -1.058,-0.8214 -2.3788,-1.2288 -3.9558,-1.2288 -1.5641,0 -2.865,0.4074 -3.9032,1.2221 -1.0449,0.8151 -1.82,1.9516 -2.3395,3.4169 -0.5255,1.4591 -0.7818,3.174 -0.7818,5.1388l0 0.46c0,1.9647 0.2563,3.6864 0.7818,5.1649 0.5195,1.4717 1.3013,2.6217 2.3459,3.4431 1.0449,0.8214 2.3526,1.2287 3.9166,1.2287zm41.2926 3.9689l0 -3.3709 2.6941 -0.5781 0 -12.9122 -2.9834 -0.5781 0 -3.3908 8.2203 0 0.2105 2.5824 0.0393 0.4601c0.5127,-1.1305 1.1499,-1.9845 1.9055,-2.5627 0.7561,-0.5785 1.6627,-0.8677 2.714,-0.8677 0.3352,0 0.703,0.0328 1.0973,0.0922 0.401,0.0524 0.7557,0.1312 1.058,0.2168l-0.5913 5.1779 -2.7928 -0.1513c-0.7952,-0.0393 -1.4392,0.099 -1.9385,0.4074 -0.4929,0.3026 -0.9331,0.7493 -1.3143,1.3274l0 10.1985 2.6941 0.5781 0 3.3709 -11.0129 0zm26.2181 0.4074c-1.9908,-0.0063 -3.7253,-0.4402 -5.2172,-1.3208 -1.4852,-0.8805 -2.6415,-2.0894 -3.4562,-3.6273 -0.8151,-1.5439 -1.2224,-3.2985 -1.2224,-5.2766l0 -0.7688c0,-2.0697 0.3875,-3.9031 1.1563,-5.5 0.7691,-1.5966 1.8599,-2.8515 3.2659,-3.7716 1.4063,-0.9198 3.0623,-1.3735 4.9743,-1.3603 1.8861,0 3.4696,0.3744 4.7575,1.117 1.2815,0.7493 2.2539,1.8204 2.9244,3.22 0.6701,1.3996 0.9986,3.0884 0.9986,5.0796l0 3.0619 -12.242 0 -0.0393 0.1117c0.0788,0.9134 0.3087,1.7281 0.6831,2.4378 0.3816,0.7097 0.9137,1.2681 1.6103,1.6758 0.6899,0.4007 1.5308,0.6043 2.523,0.6043 1.0252,0 1.9845,-0.1316 2.8784,-0.3943 0.8869,-0.2628 1.761,-0.6503 2.6086,-1.1627l1.5176 3.4626c-0.8607,0.6966 -1.9381,1.2684 -3.2458,1.7217 -1.3013,0.4601 -2.7928,0.6836 -4.4753,0.6899zm-4.0213 -12.8662l6.9456 0 0 -0.4993c0,-0.8476 -0.1117,-1.5704 -0.3352,-2.1815 -0.2231,-0.6113 -0.5849,-1.0845 -1.0774,-1.4194 -0.493,-0.3288 -1.1305,-0.4996 -1.9123,-0.4996 -0.749,0 -1.3731,0.1973 -1.8859,0.5913 -0.519,0.3879 -0.9201,0.9268 -1.209,1.6036 -0.2893,0.6835 -0.4799,1.4523 -0.5849,2.3129l0.059 0.0919z"/>
 </g>
</svg>
