<?xml version="1.0" encoding="UTF-8"?>
<!DOCTYPE svg PUBLIC "-//W3C//DTD SVG 1.1//EN" "http://www.w3.org/Graphics/SVG/1.1/DTD/svg11.dtd">
<!-- Creator: CorelDRAW 2018 (64 Bit) -->
<svg xmlns="http://www.w3.org/2000/svg" xml:space="preserve" width="24.6982mm" height="24.6907mm" version="1.1" style="shape-rendering:geometricPrecision; text-rendering:geometricPrecision; image-rendering:optimizeQuality; fill-rule:evenodd; clip-rule:evenodd"
viewBox="0 0 16.2845 16.2796"
 xmlns:xlink="http://www.w3.org/1999/xlink">
 <defs>
  <style type="text/css">
   <![CDATA[
    .fil0 {fill:#E6E7E8}
   ]]>
  </style>
 </defs>
 <g id="Camada_x0020_1">
  <metadata id="CorelCorpID_0Corel-Layer"/>
  <path class="fil0" d="M8.2695 6.2383c-0.1215,-1.4906 0.5738,-2.68 2.0209,-2.8553 0.9539,-0.1156 1.2616,0.1695 1.8548,0.5612 0.4752,0.3138 1.1533,-0.1832 1.6556,-0.3466 -0.1596,0.6237 -0.5443,0.8267 -0.812,1.2227l1.0993 -0.3015c-0.3358,0.6183 -0.5602,0.6991 -1.0736,1.1805 -0.1523,1.6296 -0.2213,2.4296 -0.9417,3.6978 -1.5986,2.8147 -4.8812,3.983 -7.8906,3.0146 -0.6395,-0.2058 -1.0896,-0.5581 -1.489,-0.7125 0.7756,-0.0733 2.3592,-0.0642 3.1839,-0.8749l0.1064 -0.1304c-1.036,-0.1923 -1.7859,-0.6975 -2.0325,-1.5998l0.8671 -0.1c-0.9859,-0.4737 -1.6806,-0.9174 -1.7221,-2.2948l0.92 0.1942c-0.3576,-0.4594 -0.6285,-0.5544 -0.8169,-1.2469 -0.1714,-0.6299 -0.1092,-1.3917 0.2444,-1.7802 1.023,0.7502 2.199,2.3557 4.8262,2.3716zm-1.4203 -6.1214c-4.0227,0.669 -7.529,4.4499 -6.7363,9.3082 0.6666,4.0852 4.4295,7.4941 9.2868,6.7524 4.0354,-0.6162 7.5517,-4.4687 6.777,-9.323 -0.6433,-4.0306 -4.4629,-7.5466 -9.3275,-6.7376z"/>
 </g>
</svg>
