<?xml version="1.0" encoding="UTF-8"?>
<!DOCTYPE svg PUBLIC "-//W3C//DTD SVG 1.1//EN" "http://www.w3.org/Graphics/SVG/1.1/DTD/svg11.dtd">
<!-- Creator: CorelDRAW 2018 (64 Bit) -->
<svg xmlns="http://www.w3.org/2000/svg" xml:space="preserve" width="25.6898mm" height="25.9012mm" version="1.1" style="shape-rendering:geometricPrecision; text-rendering:geometricPrecision; image-rendering:optimizeQuality; fill-rule:evenodd; clip-rule:evenodd"
viewBox="0 0 3.8253 3.8568"
 xmlns:xlink="http://www.w3.org/1999/xlink">
 <defs>
  <style type="text/css">
   <![CDATA[
    .fil0 {fill:#E6E7E8}
   ]]>
  </style>
 </defs>
 <g id="Camada_x0020_1">
  <metadata id="CorelCorpID_0Corel-Layer"/>
  <g id="_2690789509280">
   <path class="fil0" d="M0.4894 3.3755c0.0029,-0.0313 0.1536,-0.4623 0.1796,-0.5424 0.0141,-0.0434 0.0119,-0.036 -0.0109,-0.0688 -0.1069,-0.1542 -0.2036,-0.3596 -0.246,-0.5846 -0.0962,-0.5102 0.0705,-0.9857 0.3206,-1.2835l0.0462 -0.0538c0.0376,-0.0421 0.1151,-0.1225 0.1576,-0.1555 0.1012,-0.0786 0.1217,-0.098 0.2435,-0.1695 0.3963,-0.2325 0.9234,-0.2621 1.3483,-0.0892 0.3813,0.1552 0.6723,0.4396 0.8445,0.8122 0.0876,0.1897 0.1505,0.453 0.1362,0.6962 -0.0151,0.256 -0.0691,0.4606 -0.1708,0.6562 -0.2922,0.5623 -0.9269,0.9426 -1.6187,0.8351 -0.2316,-0.0359 -0.4375,-0.117 -0.6023,-0.2227 -0.0393,-0.0252 -0.0282,-0.0205 -0.0735,-0.0061l-0.2371 0.0759c-0.0523,0.0166 -0.1043,0.0333 -0.1582,0.0507 -0.0456,0.0147 -0.1164,0.042 -0.1591,0.0497zm-0.4894 0.4813l0.1903 -0.059c0.0639,-0.0203 0.1307,-0.0421 0.1936,-0.0622l0.5798 -0.1855c0.0982,-0.0303 0.0502,-0.0319 0.1825,0.0307 0.6936,0.3281 1.4642,0.1771 1.9729,-0.2327 0.3282,-0.2643 0.662,-0.7141 0.7022,-1.342 0.0285,-0.4445 -0.0957,-0.8558 -0.3305,-1.1963 -0.0334,-0.0484 -0.075,-0.1053 -0.1114,-0.1452 -0.0437,-0.0479 -0.0787,-0.0912 -0.1234,-0.1332 -0.1607,-0.1504 -0.3627,-0.3011 -0.6217,-0.4005 -0.559,-0.2144 -1.134,-0.1629 -1.6493,0.1348 -0.2186,0.1263 -0.401,0.3027 -0.5404,0.4858 -0.3033,0.3981 -0.4724,0.9839 -0.3151,1.6062 0.0317,0.1254 0.084,0.2604 0.1396,0.3693 0.0142,0.0279 0.0297,0.0571 0.0443,0.082 0.0279,0.0476 0.0272,0.0333 0.0082,0.0896l-0.2901 0.8628c-0.0092,0.0272 -0.0251,0.0676 -0.0314,0.0954z"/>
   <path class="fil0" d="M1.2785 0.9664c-0.0623,0.0171 -0.1064,0.0629 -0.1486,0.114 -0.0361,0.0438 -0.0706,0.0995 -0.0934,0.1677 -0.0532,0.1589 -0.0256,0.2972 0.0276,0.4405 0.0233,0.0626 0.0556,0.1196 0.0879,0.1731l0.1025 0.1584c0.0372,0.0536 0.0717,0.1008 0.1109,0.1502 0.0412,0.052 0.0815,0.095 0.1238,0.1414 0.1822,0.1995 0.3707,0.3132 0.631,0.4169 0.062,0.0247 0.1264,0.0493 0.1922,0.0687 0.1005,0.0297 0.117,0.0274 0.2217,0.0142 0.1425,-0.018 0.2824,-0.1079 0.3339,-0.1928 0.0269,-0.0444 0.0537,-0.1447 0.0548,-0.2081 0.0008,-0.0535 -0.0154,-0.0605 -0.0519,-0.0803l-0.255 -0.1365c-0.1877,-0.0917 -0.1702,-0.0961 -0.2507,0.0045l-0.1223 0.1386c-0.0228,0.0239 -0.0453,0.0409 -0.091,0.0209 -0.1207,-0.0527 -0.2417,-0.1271 -0.3264,-0.1997 -0.097,-0.0831 -0.1672,-0.1616 -0.2456,-0.2762 -0.1496,-0.2185 -0.0823,-0.1688 0.032,-0.3152 0.0128,-0.0164 0.0397,-0.0572 0.0479,-0.0826 0.0121,-0.0371 -0.0076,-0.0709 -0.0193,-0.1022 -0.0228,-0.0611 -0.1224,-0.3432 -0.145,-0.3768 -0.0231,-0.0344 -0.0422,-0.0359 -0.0923,-0.0379 -0.0449,-0.0017 -0.08,-0.013 -0.1246,-0.0008z"/>
  </g>
 </g>
</svg>
